  0
SECTION
  2
HEADER
  9
$ACADVER
  1
AC1014
  9
$HANDSEED
  5
FFFF
  9
$MEASUREMENT
 70
     1
  0
ENDSEC
  0
SECTION
  2
TABLES
  0
TABLE
  2
VPORT
  5
8
330
0
100
AcDbSymbolTable
 70
     4
  0
VPORT
  5
2E
330
8
100
AcDbSymbolTableRecord
100
AcDbViewportTableRecord
  2
*ACTIVE
 70
     0
 10
0.0
 20
0.0
 11
1.0
 21
1.0
 12
210.0
 22
148.5
 13
0.0
 23
0.0
 14
10.0
 24
10.0
 15
10.0
 25
10.0
 16
0.0
 26
0.0
 36
1.0
 17
0.0
 27
0.0
 37
0.0
 40
341.0
 41
1.24
 42
50.0
 43
0.0
 44
0.0
 50
0.0
 51
0.0
 71
     0
 72
   100
 73
     1
 74
     3
 75
     0
 76
     0
 77
     0
 78
     0
  0
ENDTAB
  0
TABLE
  2
LTYPE
  5
5
330
0
100
AcDbSymbolTable
 70
     1
  0
LTYPE
  5
14
330
5
100
AcDbSymbolTableRecord
100
AcDbLinetypeTableRecord
  2
BYBLOCK
 70
     0
  3

 72
    65
 73
     0
 40
0.0
  0
LTYPE
  5
15
330
5
100
AcDbSymbolTableRecord
100
AcDbLinetypeTableRecord
  2
BYLAYER
 70
     0
  3

 72
    65
 73
     0
 40
0.0
  0
LTYPE
  5
16
330
5
100
AcDbSymbolTableRecord
100
AcDbLinetypeTableRecord
  2
CONTINUOUS
 70
     0
  3
Solid line
 72
    65
 73
     0
 40
0.0
  0
ENDTAB
  0
TABLE
  2
LAYER
  5
2
100
AcDbSymbolTable
 70
2
  0
LAYER
  5
50
100
AcDbSymbolTableRecord
100
AcDbLayerTableRecord
  2
0
 70
0
  6
CONTINUOUS
  0
LAYER
  5
51
100
AcDbSymbolTableRecord
100
AcDbLayerTableRecord
  2
Layer_1
 70
0
  6
CONTINUOUS
  0
ENDTAB
  0
TABLE
  2
STYLE
  5
3
330
0
100
AcDbSymbolTable
 70
     1
  0
STYLE
  5
11
330
3
100
AcDbSymbolTableRecord
100
AcDbTextStyleTableRecord
  2
STANDARD
 70
     0
 40
0.0
 41
1.0
 50
0.0
 71
     0
 42
2.5
  3
txt
  4

  0
ENDTAB
  0
TABLE
  2
VIEW
  5
6
330
0
100
AcDbSymbolTable
 70
     0
  0
ENDTAB
  0
TABLE
  2
UCS
  5
7
330
0
100
AcDbSymbolTable
 70
     0
  0
ENDTAB
  0
TABLE
  2
APPID
  5
9
330
0
100
AcDbSymbolTable
 70
     2
  0
APPID
  5
12
330
9
100
AcDbSymbolTableRecord
100
AcDbRegAppTableRecord
  2
ACAD
 70
     0
  0
ENDTAB
  0
TABLE
  2
DIMSTYLE
  5
A
330
0
100
AcDbSymbolTable
 70
     1
  0
DIMSTYLE
105
27
330
A
100
AcDbSymbolTableRecord
100
AcDbDimStyleTableRecord
  2
ISO-25
 70
     0
  3

  4

  5

  6

  7

 40
1.0
 41
2.5
 42
0.625
 43
3.75
 44
1.25
 45
0.0
 46
0.0
 47
0.0
 48
0.0
140
2.5
141
2.5
142
0.0
143
0.03937007874016
144
1.0
145
0.0
146
1.0
147
0.625
 71
     0
 72
     0
 73
     0
 74
     0
 75
     0
 76
     0
 77
     1
 78
     8
170
     0
171
     3
172
     1
173
     0
174
     0
175
     0
176
     0
177
     0
178
     0
270
     2
271
     2
272
     2
273
     2
274
     3
340
11
275
     0
280
     0
281
     0
282
     0
283
     0
284
     8
285
     0
286
     0
287
     3
288
     0
  0
ENDTAB
  0
TABLE
  2
BLOCK_RECORD
  5
1
330
0
100
AcDbSymbolTable
 70
     1
  0
BLOCK_RECORD
  5
1F
330
1
100
AcDbSymbolTableRecord
100
AcDbBlockTableRecord
  2
*MODEL_SPACE
  0
BLOCK_RECORD
  5
1B
330
1
100
AcDbSymbolTableRecord
100
AcDbBlockTableRecord
  2
*PAPER_SPACE
  0
ENDTAB
  0
ENDSEC
  0
SECTION
  2
BLOCKS
  0
BLOCK
  5
20
330
1F
100
AcDbEntity
  8
0
100
AcDbBlockBegin
  2
*MODEL_SPACE
 70
     0
 10
0.0
 20
0.0
 30
0.0
  3
*MODEL_SPACE
  1

  0
ENDBLK
  5
21
330
1F
100
AcDbEntity
  8
0
100
AcDbBlockEnd
  0
BLOCK
  5
1C
330
1B
100
AcDbEntity
 67
     1
  8
0
100
AcDbBlockBegin
  2
*PAPER_SPACE
  1

  0
ENDBLK
  5
1D
330
1B
100
AcDbEntity
 67
     1
  8
0
100
AcDbBlockEnd
  0
ENDSEC
  0
SECTION
  2
ENTITIES
  0
LWPOLYLINE
  5
100
100
AcDbEntity
  8
Layer_1
 62
7
100
AcDbPolyline
 90
4
 70
1
 10
37.138026
 20
185.790140
 30
0.0
 10
37.894808
 20
185.790140
 30
0.0
 10
37.894808
 20
183.918300
 30
0.0
 10
37.138026
 20
183.918300
 30
0.0
  0
LWPOLYLINE
  5
101
100
AcDbEntity
  8
Layer_1
 62
7
100
AcDbPolyline
 90
4
 70
1
 10
38.408025
 20
185.790140
 30
0.0
 10
39.164807
 20
185.790140
 30
0.0
 10
39.164807
 20
183.918300
 30
0.0
 10
38.408025
 20
183.918300
 30
0.0
  0
LWPOLYLINE
  5
102
100
AcDbEntity
  8
Layer_1
 62
7
100
AcDbPolyline
 90
4
 70
1
 10
39.678023
 20
185.790140
 30
0.0
 10
40.434806
 20
185.790140
 30
0.0
 10
40.434806
 20
183.918300
 30
0.0
 10
39.678023
 20
183.918300
 30
0.0
  0
LWPOLYLINE
  5
103
100
AcDbEntity
  8
Layer_1
 62
7
100
AcDbPolyline
 90
4
 70
1
 10
40.948022
 20
185.790140
 30
0.0
 10
41.704804
 20
185.790140
 30
0.0
 10
41.704804
 20
183.918300
 30
0.0
 10
40.948022
 20
183.918300
 30
0.0
  0
LWPOLYLINE
  5
104
100
AcDbEntity
  8
Layer_1
 62
7
100
AcDbPolyline
 90
4
 70
1
 10
42.218021
 20
185.790140
 30
0.0
 10
42.974803
 20
185.790140
 30
0.0
 10
42.974803
 20
183.918300
 30
0.0
 10
42.218021
 20
183.918300
 30
0.0
  0
LWPOLYLINE
  5
105
100
AcDbEntity
  8
Layer_1
 62
7
100
AcDbPolyline
 90
4
 70
1
 10
43.488019
 20
185.790140
 30
0.0
 10
44.244802
 20
185.790140
 30
0.0
 10
44.244802
 20
183.918300
 30
0.0
 10
43.488019
 20
183.918300
 30
0.0
  0
LWPOLYLINE
  5
106
100
AcDbEntity
  8
Layer_1
 62
7
100
AcDbPolyline
 90
4
 70
1
 10
44.758018
 20
185.790140
 30
0.0
 10
45.514800
 20
185.790140
 30
0.0
 10
45.514800
 20
183.918300
 30
0.0
 10
44.758018
 20
183.918300
 30
0.0
  0
LWPOLYLINE
  5
107
100
AcDbEntity
  8
Layer_1
 62
7
100
AcDbPolyline
 90
4
 70
1
 10
46.028017
 20
185.790140
 30
0.0
 10
46.784799
 20
185.790140
 30
0.0
 10
46.784799
 20
183.918300
 30
0.0
 10
46.028017
 20
183.918300
 30
0.0
  0
LWPOLYLINE
  5
108
100
AcDbEntity
  8
Layer_1
 62
7
100
AcDbPolyline
 90
4
 70
1
 10
46.028017
 20
195.170350
 30
0.0
 10
46.784799
 20
195.170350
 30
0.0
 10
46.784799
 20
193.298510
 30
0.0
 10
46.028017
 20
193.298510
 30
0.0
  0
LWPOLYLINE
  5
109
100
AcDbEntity
  8
Layer_1
 62
7
100
AcDbPolyline
 90
4
 70
1
 10
44.758018
 20
195.170350
 30
0.0
 10
45.514800
 20
195.170350
 30
0.0
 10
45.514800
 20
193.298510
 30
0.0
 10
44.758018
 20
193.298510
 30
0.0
  0
LWPOLYLINE
  5
10a
100
AcDbEntity
  8
Layer_1
 62
7
100
AcDbPolyline
 90
4
 70
1
 10
43.488019
 20
195.170350
 30
0.0
 10
44.244802
 20
195.170350
 30
0.0
 10
44.244802
 20
193.298510
 30
0.0
 10
43.488019
 20
193.298510
 30
0.0
  0
LWPOLYLINE
  5
10b
100
AcDbEntity
  8
Layer_1
 62
7
100
AcDbPolyline
 90
4
 70
1
 10
42.218021
 20
195.170350
 30
0.0
 10
42.974803
 20
195.170350
 30
0.0
 10
42.974803
 20
193.298510
 30
0.0
 10
42.218021
 20
193.298510
 30
0.0
  0
LWPOLYLINE
  5
10c
100
AcDbEntity
  8
Layer_1
 62
7
100
AcDbPolyline
 90
4
 70
1
 10
40.948022
 20
195.170350
 30
0.0
 10
41.704804
 20
195.170350
 30
0.0
 10
41.704804
 20
193.298510
 30
0.0
 10
40.948022
 20
193.298510
 30
0.0
  0
LWPOLYLINE
  5
10d
100
AcDbEntity
  8
Layer_1
 62
7
100
AcDbPolyline
 90
4
 70
1
 10
39.678023
 20
195.170350
 30
0.0
 10
40.434806
 20
195.170350
 30
0.0
 10
40.434806
 20
193.298510
 30
0.0
 10
39.678023
 20
193.298510
 30
0.0
  0
LWPOLYLINE
  5
10e
100
AcDbEntity
  8
Layer_1
 62
7
100
AcDbPolyline
 90
4
 70
1
 10
38.408025
 20
195.170350
 30
0.0
 10
39.164807
 20
195.170350
 30
0.0
 10
39.164807
 20
193.298510
 30
0.0
 10
38.408025
 20
193.298510
 30
0.0
  0
LWPOLYLINE
  5
10f
100
AcDbEntity
  8
Layer_1
 62
7
100
AcDbPolyline
 90
4
 70
1
 10
37.102466
 20
195.170350
 30
0.0
 10
37.930368
 20
195.170350
 30
0.0
 10
37.930368
 20
193.298510
 30
0.0
 10
37.102466
 20
193.298510
 30
0.0
  0
LWPOLYLINE
  5
110
100
AcDbEntity
  8
Layer_1
 62
7
100
AcDbPolyline
 90
4
 70
1
 10
51.316291
 20
195.033190
 30
0.0
 10
53.216072
 20
195.033190
 30
0.0
 10
53.216072
 20
191.736410
 30
0.0
 10
51.316291
 20
191.736410
 30
0.0
  0
LWPOLYLINE
  5
111
100
AcDbEntity
  8
Layer_1
 62
7
100
AcDbPolyline
 90
4
 70
1
 10
51.379791
 20
202.907178
 30
0.0
 10
57.724567
 20
202.907178
 30
0.0
 10
57.724567
 20
196.562400
 30
0.0
 10
51.379791
 20
196.562400
 30
0.0
  0
LWPOLYLINE
  5
112
100
AcDbEntity
  8
Layer_1
 62
7
100
AcDbPolyline
 90
4
 70
1
 10
55.888286
 20
195.033190
 30
0.0
 10
57.788067
 20
195.033190
 30
0.0
 10
57.788067
 20
191.736410
 30
0.0
 10
55.888286
 20
191.736410
 30
0.0
  0
LWPOLYLINE
  5
113
100
AcDbEntity
  8
Layer_1
 62
7
100
AcDbPolyline
 90
4
 70
1
 10
52.350070
 20
180.113240
 30
0.0
 10
53.261792
 20
180.113240
 30
0.0
 10
53.261792
 20
177.829920
 30
0.0
 10
52.350070
 20
177.829920
 30
0.0
  0
LWPOLYLINE
  5
114
100
AcDbEntity
  8
Layer_1
 62
7
100
AcDbPolyline
 90
4
 70
1
 10
53.620069
 20
180.113240
 30
0.0
 10
54.531791
 20
180.113240
 30
0.0
 10
54.531791
 20
177.829920
 30
0.0
 10
53.620069
 20
177.829920
 30
0.0
  0
LWPOLYLINE
  5
115
100
AcDbEntity
  8
Layer_1
 62
7
100
AcDbPolyline
 90
4
 70
1
 10
54.890067
 20
180.113240
 30
0.0
 10
55.801789
 20
180.113240
 30
0.0
 10
55.801789
 20
177.829920
 30
0.0
 10
54.890067
 20
177.829920
 30
0.0
  0
LWPOLYLINE
  5
116
100
AcDbEntity
  8
Layer_1
 62
7
100
AcDbPolyline
 90
4
 70
1
 10
56.160066
 20
180.113240
 30
0.0
 10
57.071788
 20
180.113240
 30
0.0
 10
57.071788
 20
177.829920
 30
0.0
 10
56.160066
 20
177.829920
 30
0.0
  0
LWPOLYLINE
  5
117
100
AcDbEntity
  8
Layer_1
 62
7
100
AcDbPolyline
 90
4
 70
1
 10
56.160066
 20
186.260040
 30
0.0
 10
57.071788
 20
186.260040
 30
0.0
 10
57.071788
 20
183.976720
 30
0.0
 10
56.160066
 20
183.976720
 30
0.0
  0
LWPOLYLINE
  5
118
100
AcDbEntity
  8
Layer_1
 62
7
100
AcDbPolyline
 90
4
 70
1
 10
54.890067
 20
186.260040
 30
0.0
 10
55.801789
 20
186.260040
 30
0.0
 10
55.801789
 20
183.976720
 30
0.0
 10
54.890067
 20
183.976720
 30
0.0
  0
LWPOLYLINE
  5
119
100
AcDbEntity
  8
Layer_1
 62
7
100
AcDbPolyline
 90
4
 70
1
 10
53.620069
 20
186.260040
 30
0.0
 10
54.531791
 20
186.260040
 30
0.0
 10
54.531791
 20
183.976720
 30
0.0
 10
53.620069
 20
183.976720
 30
0.0
  0
LWPOLYLINE
  5
11a
100
AcDbEntity
  8
Layer_1
 62
7
100
AcDbPolyline
 90
4
 70
1
 10
52.350070
 20
186.260040
 30
0.0
 10
53.261792
 20
186.260040
 30
0.0
 10
53.261792
 20
183.976720
 30
0.0
 10
52.350070
 20
183.976720
 30
0.0
  0
LWPOLYLINE
  5
11b
100
AcDbEntity
  8
Layer_1
 62
7
100
AcDbPolyline
 90
4
 70
1
 10
37.960985
 20
179.419820
 30
0.0
 10
39.461987
 20
179.419820
 30
0.0
 10
39.461987
 20
178.170280
 30
0.0
 10
37.960985
 20
178.170280
 30
0.0
  0
LWPOLYLINE
  5
11c
100
AcDbEntity
  8
Layer_1
 62
7
100
AcDbPolyline
 90
4
 70
1
 10
37.960985
 20
181.418800
 30
0.0
 10
39.461987
 20
181.418800
 30
0.0
 10
39.461987
 20
180.169260
 30
0.0
 10
37.960985
 20
180.169260
 30
0.0
  0
LWPOLYLINE
  5
11d
100
AcDbEntity
  8
Layer_1
 62
7
100
AcDbPolyline
 90
4
 70
1
 10
59.462063
 20
189.419790
 30
0.0
 10
60.960524
 20
189.419790
 30
0.0
 10
60.960524
 20
188.170250
 30
0.0
 10
59.462063
 20
188.170250
 30
0.0
  0
LWPOLYLINE
  5
11e
100
AcDbEntity
  8
Layer_1
 62
7
100
AcDbPolyline
 90
4
 70
1
 10
59.462063
 20
191.418770
 30
0.0
 10
60.960524
 20
191.418770
 30
0.0
 10
60.960524
 20
190.169230
 30
0.0
 10
59.462063
 20
190.169230
 30
0.0
  0
LWPOLYLINE
  5
11f
100
AcDbEntity
  8
Layer_1
 62
7
100
AcDbPolyline
 90
4
 70
1
 10
61.461040
 20
184.169620
 30
0.0
 10
62.962042
 20
184.169620
 30
0.0
 10
62.962042
 20
182.920080
 30
0.0
 10
61.461040
 20
182.920080
 30
0.0
  0
LWPOLYLINE
  5
120
100
AcDbEntity
  8
Layer_1
 62
7
100
AcDbPolyline
 90
4
 70
1
 10
61.461040
 20
186.168600
 30
0.0
 10
62.962042
 20
186.168600
 30
0.0
 10
62.962042
 20
184.919060
 30
0.0
 10
61.461040
 20
184.919060
 30
0.0
  0
LWPOLYLINE
  5
121
100
AcDbEntity
  8
Layer_1
 62
7
100
AcDbPolyline
 90
4
 70
1
 10
58.712763
 20
186.168600
 30
0.0
 10
60.211225
 20
186.168600
 30
0.0
 10
60.211225
 20
184.919060
 30
0.0
 10
58.712763
 20
184.919060
 30
0.0
  0
LWPOLYLINE
  5
122
100
AcDbEntity
  8
Layer_1
 62
7
100
AcDbPolyline
 90
4
 70
1
 10
58.712763
 20
184.169620
 30
0.0
 10
60.211225
 20
184.169620
 30
0.0
 10
60.211225
 20
182.920080
 30
0.0
 10
58.712763
 20
182.920080
 30
0.0
  0
LWPOLYLINE
  5
123
100
AcDbEntity
  8
Layer_1
 62
7
100
AcDbPolyline
 90
4
 70
1
 10
39.962503
 20
198.670458
 30
0.0
 10
41.460964
 20
198.670458
 30
0.0
 10
41.460964
 20
197.418378
 30
0.0
 10
39.962503
 20
197.418378
 30
0.0
  0
LWPOLYLINE
  5
124
100
AcDbEntity
  8
Layer_1
 62
7
100
AcDbPolyline
 90
4
 70
1
 10
39.962503
 20
200.669438
 30
0.0
 10
41.460964
 20
200.669438
 30
0.0
 10
41.460964
 20
199.419898
 30
0.0
 10
39.962503
 20
199.419898
 30
0.0
  0
LWPOLYLINE
  5
125
100
AcDbEntity
  8
Layer_1
 62
7
100
AcDbPolyline
 90
4
 70
1
 10
43.462619
 20
181.418800
 30
0.0
 10
44.961081
 20
181.418800
 30
0.0
 10
44.961081
 20
180.169260
 30
0.0
 10
43.462619
 20
180.169260
 30
0.0
  0
LWPOLYLINE
  5
126
100
AcDbEntity
  8
Layer_1
 62
7
100
AcDbPolyline
 90
4
 70
1
 10
43.462619
 20
179.419820
 30
0.0
 10
44.961081
 20
179.419820
 30
0.0
 10
44.961081
 20
178.170280
 30
0.0
 10
43.462619
 20
178.170280
 30
0.0
  0
LWPOLYLINE
  5
127
100
AcDbEntity
  8
Layer_1
 62
7
100
AcDbPolyline
 90
4
 70
1
 10
40.711802
 20
179.419820
 30
0.0
 10
42.212804
 20
179.419820
 30
0.0
 10
42.212804
 20
178.170280
 30
0.0
 10
40.711802
 20
178.170280
 30
0.0
  0
LWPOLYLINE
  5
128
100
AcDbEntity
  8
Layer_1
 62
7
100
AcDbPolyline
 90
4
 70
1
 10
40.711802
 20
181.418800
 30
0.0
 10
42.212804
 20
181.418800
 30
0.0
 10
42.212804
 20
180.169260
 30
0.0
 10
40.711802
 20
180.169260
 30
0.0
  0
LWPOLYLINE
  5
129
100
AcDbEntity
  8
Layer_1
 62
7
100
AcDbPolyline
 90
4
 70
1
 10
42.710780
 20
200.669438
 30
0.0
 10
44.211782
 20
200.669438
 30
0.0
 10
44.211782
 20
199.419898
 30
0.0
 10
42.710780
 20
199.419898
 30
0.0
  0
LWPOLYLINE
  5
12a
100
AcDbEntity
  8
Layer_1
 62
7
100
AcDbPolyline
 90
4
 70
1
 10
42.710780
 20
198.670458
 30
0.0
 10
44.211782
 20
198.670458
 30
0.0
 10
44.211782
 20
197.418378
 30
0.0
 10
42.710780
 20
197.418378
 30
0.0
  0
LWPOLYLINE
  5
12b
100
AcDbEntity
  8
Layer_1
 62
7
100
AcDbPolyline
 90
4
 70
1
 10
59.710982
 20
179.419820
 30
0.0
 10
61.211984
 20
179.419820
 30
0.0
 10
61.211984
 20
178.170280
 30
0.0
 10
59.710982
 20
178.170280
 30
0.0
  0
LWPOLYLINE
  5
12c
100
AcDbEntity
  8
Layer_1
 62
7
100
AcDbPolyline
 90
4
 70
1
 10
59.710982
 20
181.418800
 30
0.0
 10
61.211984
 20
181.418800
 30
0.0
 10
61.211984
 20
180.169260
 30
0.0
 10
59.710982
 20
180.169260
 30
0.0
  0
LWPOLYLINE
  5
12d
100
AcDbEntity
  8
Layer_1
 62
7
100
AcDbPolyline
 90
4
 70
1
 10
48.461334
 20
179.419820
 30
0.0
 10
49.962335
 20
179.419820
 30
0.0
 10
49.962335
 20
178.170280
 30
0.0
 10
48.461334
 20
178.170280
 30
0.0
  0
LWPOLYLINE
  5
12e
100
AcDbEntity
  8
Layer_1
 62
7
100
AcDbPolyline
 90
4
 70
1
 10
48.461334
 20
181.418800
 30
0.0
 10
49.962335
 20
181.418800
 30
0.0
 10
49.962335
 20
180.169260
 30
0.0
 10
48.461334
 20
180.169260
 30
0.0
  0
LWPOLYLINE
  5
12f
100
AcDbEntity
  8
Layer_1
 62
7
100
AcDbPolyline
 90
4
 70
1
 10
52.837749
 20
189.795710
 30
0.0
 10
54.087291
 20
189.795710
 30
0.0
 10
54.087291
 20
188.294710
 30
0.0
 10
52.837749
 20
188.294710
 30
0.0
  0
LWPOLYLINE
  5
130
100
AcDbEntity
  8
Layer_1
 62
7
100
AcDbPolyline
 90
4
 70
1
 10
50.836232
 20
189.795710
 30
0.0
 10
52.085773
 20
189.795710
 30
0.0
 10
52.085773
 20
188.294710
 30
0.0
 10
50.836232
 20
188.294710
 30
0.0
  0
LWPOLYLINE
  5
131
100
AcDbEntity
  8
Layer_1
 62
7
100
AcDbPolyline
 90
4
 70
1
 10
59.462063
 20
196.168570
 30
0.0
 10
60.960524
 20
196.168570
 30
0.0
 10
60.960524
 20
194.919020
 30
0.0
 10
59.462063
 20
194.919020
 30
0.0
  0
LWPOLYLINE
  5
132
100
AcDbEntity
  8
Layer_1
 62
7
100
AcDbPolyline
 90
4
 70
1
 10
59.462063
 20
194.169590
 30
0.0
 10
60.960524
 20
194.169590
 30
0.0
 10
60.960524
 20
192.920050
 30
0.0
 10
59.462063
 20
192.920050
 30
0.0
  0
LWPOLYLINE
  5
133
100
AcDbEntity
  8
Layer_1
 62
7
100
AcDbPolyline
 90
4
 70
1
 10
57.087165
 20
189.795710
 30
0.0
 10
58.336707
 20
189.795710
 30
0.0
 10
58.336707
 20
188.294710
 30
0.0
 10
57.087165
 20
188.294710
 30
0.0
  0
LWPOLYLINE
  5
134
100
AcDbEntity
  8
Layer_1
 62
7
100
AcDbPolyline
 90
4
 70
1
 10
55.085647
 20
189.795710
 30
0.0
 10
56.337729
 20
189.795710
 30
0.0
 10
56.337729
 20
188.294710
 30
0.0
 10
55.085647
 20
188.294710
 30
0.0
  0
LWPOLYLINE
  5
135
100
AcDbEntity
  8
Layer_1
 62
7
100
AcDbPolyline
 90
4
 70
1
 10
38.094669
 20
130.302480
 30
0.0
 10
38.851451
 20
130.302480
 30
0.0
 10
38.851451
 20
128.430640
 30
0.0
 10
38.094669
 20
128.430640
 30
0.0
  0
LWPOLYLINE
  5
136
100
AcDbEntity
  8
Layer_1
 62
7
100
AcDbPolyline
 90
4
 70
1
 10
39.364668
 20
130.302480
 30
0.0
 10
40.121450
 20
130.302480
 30
0.0
 10
40.121450
 20
128.430640
 30
0.0
 10
39.364668
 20
128.430640
 30
0.0
  0
LWPOLYLINE
  5
137
100
AcDbEntity
  8
Layer_1
 62
7
100
AcDbPolyline
 90
4
 70
1
 10
40.634666
 20
130.302480
 30
0.0
 10
41.391449
 20
130.302480
 30
0.0
 10
41.391449
 20
128.430640
 30
0.0
 10
40.634666
 20
128.430640
 30
0.0
  0
LWPOLYLINE
  5
138
100
AcDbEntity
  8
Layer_1
 62
7
100
AcDbPolyline
 90
4
 70
1
 10
41.904665
 20
130.302480
 30
0.0
 10
42.661447
 20
130.302480
 30
0.0
 10
42.661447
 20
128.430640
 30
0.0
 10
41.904665
 20
128.430640
 30
0.0
  0
LWPOLYLINE
  5
139
100
AcDbEntity
  8
Layer_1
 62
7
100
AcDbPolyline
 90
4
 70
1
 10
43.174664
 20
130.302480
 30
0.0
 10
43.931446
 20
130.302480
 30
0.0
 10
43.931446
 20
128.430640
 30
0.0
 10
43.174664
 20
128.430640
 30
0.0
  0
LWPOLYLINE
  5
13a
100
AcDbEntity
  8
Layer_1
 62
7
100
AcDbPolyline
 90
4
 70
1
 10
44.444662
 20
130.302480
 30
0.0
 10
45.201445
 20
130.302480
 30
0.0
 10
45.201445
 20
128.430640
 30
0.0
 10
44.444662
 20
128.430640
 30
0.0
  0
LWPOLYLINE
  5
13b
100
AcDbEntity
  8
Layer_1
 62
7
100
AcDbPolyline
 90
4
 70
1
 10
45.714661
 20
130.302480
 30
0.0
 10
46.471443
 20
130.302480
 30
0.0
 10
46.471443
 20
128.430640
 30
0.0
 10
45.714661
 20
128.430640
 30
0.0
  0
LWPOLYLINE
  5
13c
100
AcDbEntity
  8
Layer_1
 62
7
100
AcDbPolyline
 90
4
 70
1
 10
46.984660
 20
130.302480
 30
0.0
 10
47.741442
 20
130.302480
 30
0.0
 10
47.741442
 20
128.430640
 30
0.0
 10
46.984660
 20
128.430640
 30
0.0
  0
LWPOLYLINE
  5
13d
100
AcDbEntity
  8
Layer_1
 62
7
100
AcDbPolyline
 90
4
 70
1
 10
46.984660
 20
139.682690
 30
0.0
 10
47.741442
 20
139.682690
 30
0.0
 10
47.741442
 20
137.810850
 30
0.0
 10
46.984660
 20
137.810850
 30
0.0
  0
LWPOLYLINE
  5
13e
100
AcDbEntity
  8
Layer_1
 62
7
100
AcDbPolyline
 90
4
 70
1
 10
45.714661
 20
139.682690
 30
0.0
 10
46.471443
 20
139.682690
 30
0.0
 10
46.471443
 20
137.810850
 30
0.0
 10
45.714661
 20
137.810850
 30
0.0
  0
LWPOLYLINE
  5
13f
100
AcDbEntity
  8
Layer_1
 62
7
100
AcDbPolyline
 90
4
 70
1
 10
44.444662
 20
139.682690
 30
0.0
 10
45.201445
 20
139.682690
 30
0.0
 10
45.201445
 20
137.810850
 30
0.0
 10
44.444662
 20
137.810850
 30
0.0
  0
LWPOLYLINE
  5
140
100
AcDbEntity
  8
Layer_1
 62
7
100
AcDbPolyline
 90
4
 70
1
 10
43.174664
 20
139.682690
 30
0.0
 10
43.931446
 20
139.682690
 30
0.0
 10
43.931446
 20
137.810850
 30
0.0
 10
43.174664
 20
137.810850
 30
0.0
  0
LWPOLYLINE
  5
141
100
AcDbEntity
  8
Layer_1
 62
7
100
AcDbPolyline
 90
4
 70
1
 10
41.904665
 20
139.682690
 30
0.0
 10
42.661447
 20
139.682690
 30
0.0
 10
42.661447
 20
137.810850
 30
0.0
 10
41.904665
 20
137.810850
 30
0.0
  0
LWPOLYLINE
  5
142
100
AcDbEntity
  8
Layer_1
 62
7
100
AcDbPolyline
 90
4
 70
1
 10
40.634666
 20
139.682690
 30
0.0
 10
41.391449
 20
139.682690
 30
0.0
 10
41.391449
 20
137.810850
 30
0.0
 10
40.634666
 20
137.810850
 30
0.0
  0
LWPOLYLINE
  5
143
100
AcDbEntity
  8
Layer_1
 62
7
100
AcDbPolyline
 90
4
 70
1
 10
39.364668
 20
139.682690
 30
0.0
 10
40.121450
 20
139.682690
 30
0.0
 10
40.121450
 20
137.810850
 30
0.0
 10
39.364668
 20
137.810850
 30
0.0
  0
LWPOLYLINE
  5
144
100
AcDbEntity
  8
Layer_1
 62
7
100
AcDbPolyline
 90
4
 70
1
 10
38.059109
 20
139.682690
 30
0.0
 10
38.887011
 20
139.682690
 30
0.0
 10
38.887011
 20
137.810850
 30
0.0
 10
38.059109
 20
137.810850
 30
0.0
  0
LWPOLYLINE
  5
145
100
AcDbEntity
  8
Layer_1
 62
7
100
AcDbPolyline
 90
4
 70
1
 10
52.272934
 20
139.545530
 30
0.0
 10
54.172715
 20
139.545530
 30
0.0
 10
54.172715
 20
136.248750
 30
0.0
 10
52.272934
 20
136.248750
 30
0.0
  0
LWPOLYLINE
  5
146
100
AcDbEntity
  8
Layer_1
 62
7
100
AcDbPolyline
 90
4
 70
1
 10
52.336434
 20
147.419520
 30
0.0
 10
58.681210
 20
147.419520
 30
0.0
 10
58.681210
 20
141.074740
 30
0.0
 10
52.336434
 20
141.074740
 30
0.0
  0
LWPOLYLINE
  5
147
100
AcDbEntity
  8
Layer_1
 62
7
100
AcDbPolyline
 90
4
 70
1
 10
56.844929
 20
139.545530
 30
0.0
 10
58.744710
 20
139.545530
 30
0.0
 10
58.744710
 20
136.248750
 30
0.0
 10
56.844929
 20
136.248750
 30
0.0
  0
LWPOLYLINE
  5
148
100
AcDbEntity
  8
Layer_1
 62
7
100
AcDbPolyline
 90
4
 70
1
 10
53.306713
 20
124.625580
 30
0.0
 10
54.218435
 20
124.625580
 30
0.0
 10
54.218435
 20
122.342260
 30
0.0
 10
53.306713
 20
122.342260
 30
0.0
  0
LWPOLYLINE
  5
149
100
AcDbEntity
  8
Layer_1
 62
7
100
AcDbPolyline
 90
4
 70
1
 10
54.576712
 20
124.625580
 30
0.0
 10
55.488434
 20
124.625580
 30
0.0
 10
55.488434
 20
122.342260
 30
0.0
 10
54.576712
 20
122.342260
 30
0.0
  0
LWPOLYLINE
  5
14a
100
AcDbEntity
  8
Layer_1
 62
7
100
AcDbPolyline
 90
4
 70
1
 10
55.846710
 20
124.625580
 30
0.0
 10
56.758432
 20
124.625580
 30
0.0
 10
56.758432
 20
122.342260
 30
0.0
 10
55.846710
 20
122.342260
 30
0.0
  0
LWPOLYLINE
  5
14b
100
AcDbEntity
  8
Layer_1
 62
7
100
AcDbPolyline
 90
4
 70
1
 10
57.116709
 20
124.625580
 30
0.0
 10
58.028431
 20
124.625580
 30
0.0
 10
58.028431
 20
122.342260
 30
0.0
 10
57.116709
 20
122.342260
 30
0.0
  0
LWPOLYLINE
  5
14c
100
AcDbEntity
  8
Layer_1
 62
7
100
AcDbPolyline
 90
4
 70
1
 10
57.116709
 20
130.772380
 30
0.0
 10
58.028431
 20
130.772380
 30
0.0
 10
58.028431
 20
128.489060
 30
0.0
 10
57.116709
 20
128.489060
 30
0.0
  0
LWPOLYLINE
  5
14d
100
AcDbEntity
  8
Layer_1
 62
7
100
AcDbPolyline
 90
4
 70
1
 10
55.846710
 20
130.772380
 30
0.0
 10
56.758432
 20
130.772380
 30
0.0
 10
56.758432
 20
128.489060
 30
0.0
 10
55.846710
 20
128.489060
 30
0.0
  0
LWPOLYLINE
  5
14e
100
AcDbEntity
  8
Layer_1
 62
7
100
AcDbPolyline
 90
4
 70
1
 10
54.576712
 20
130.772380
 30
0.0
 10
55.488434
 20
130.772380
 30
0.0
 10
55.488434
 20
128.489060
 30
0.0
 10
54.576712
 20
128.489060
 30
0.0
  0
LWPOLYLINE
  5
14f
100
AcDbEntity
  8
Layer_1
 62
7
100
AcDbPolyline
 90
4
 70
1
 10
53.306713
 20
130.772380
 30
0.0
 10
54.218435
 20
130.772380
 30
0.0
 10
54.218435
 20
128.489060
 30
0.0
 10
53.306713
 20
128.489060
 30
0.0
  0
LWPOLYLINE
  5
150
100
AcDbEntity
  8
Layer_1
 62
7
100
AcDbPolyline
 90
4
 70
1
 10
38.917628
 20
123.932160
 30
0.0
 10
40.418630
 20
123.932160
 30
0.0
 10
40.418630
 20
122.682620
 30
0.0
 10
38.917628
 20
122.682620
 30
0.0
  0
LWPOLYLINE
  5
151
100
AcDbEntity
  8
Layer_1
 62
7
100
AcDbPolyline
 90
4
 70
1
 10
38.917628
 20
125.931140
 30
0.0
 10
40.418630
 20
125.931140
 30
0.0
 10
40.418630
 20
124.681600
 30
0.0
 10
38.917628
 20
124.681600
 30
0.0
  0
LWPOLYLINE
  5
152
100
AcDbEntity
  8
Layer_1
 62
7
100
AcDbPolyline
 90
4
 70
1
 10
60.418706
 20
133.932130
 30
0.0
 10
61.917167
 20
133.932130
 30
0.0
 10
61.917167
 20
132.682590
 30
0.0
 10
60.418706
 20
132.682590
 30
0.0
  0
LWPOLYLINE
  5
153
100
AcDbEntity
  8
Layer_1
 62
7
100
AcDbPolyline
 90
4
 70
1
 10
60.418706
 20
135.931110
 30
0.0
 10
61.917167
 20
135.931110
 30
0.0
 10
61.917167
 20
134.681570
 30
0.0
 10
60.418706
 20
134.681570
 30
0.0
  0
LWPOLYLINE
  5
154
100
AcDbEntity
  8
Layer_1
 62
7
100
AcDbPolyline
 90
4
 70
1
 10
62.417683
 20
128.681960
 30
0.0
 10
63.918685
 20
128.681960
 30
0.0
 10
63.918685
 20
127.432420
 30
0.0
 10
62.417683
 20
127.432420
 30
0.0
  0
LWPOLYLINE
  5
155
100
AcDbEntity
  8
Layer_1
 62
7
100
AcDbPolyline
 90
4
 70
1
 10
62.417683
 20
130.680940
 30
0.0
 10
63.918685
 20
130.680940
 30
0.0
 10
63.918685
 20
129.431400
 30
0.0
 10
62.417683
 20
129.431400
 30
0.0
  0
LWPOLYLINE
  5
156
100
AcDbEntity
  8
Layer_1
 62
7
100
AcDbPolyline
 90
4
 70
1
 10
59.669406
 20
130.680940
 30
0.0
 10
61.167868
 20
130.680940
 30
0.0
 10
61.167868
 20
129.431400
 30
0.0
 10
59.669406
 20
129.431400
 30
0.0
  0
LWPOLYLINE
  5
157
100
AcDbEntity
  8
Layer_1
 62
7
100
AcDbPolyline
 90
4
 70
1
 10
59.669406
 20
128.681960
 30
0.0
 10
61.167868
 20
128.681960
 30
0.0
 10
61.167868
 20
127.432420
 30
0.0
 10
59.669406
 20
127.432420
 30
0.0
  0
LWPOLYLINE
  5
158
100
AcDbEntity
  8
Layer_1
 62
7
100
AcDbPolyline
 90
4
 70
1
 10
40.919146
 20
143.182800
 30
0.0
 10
42.417607
 20
143.182800
 30
0.0
 10
42.417607
 20
141.930720
 30
0.0
 10
40.919146
 20
141.930720
 30
0.0
  0
LWPOLYLINE
  5
159
100
AcDbEntity
  8
Layer_1
 62
7
100
AcDbPolyline
 90
4
 70
1
 10
40.919146
 20
145.181780
 30
0.0
 10
42.417607
 20
145.181780
 30
0.0
 10
42.417607
 20
143.932240
 30
0.0
 10
40.919146
 20
143.932240
 30
0.0
  0
LWPOLYLINE
  5
15a
100
AcDbEntity
  8
Layer_1
 62
7
100
AcDbPolyline
 90
4
 70
1
 10
44.419262
 20
125.931140
 30
0.0
 10
45.917724
 20
125.931140
 30
0.0
 10
45.917724
 20
124.681600
 30
0.0
 10
44.419262
 20
124.681600
 30
0.0
  0
LWPOLYLINE
  5
15b
100
AcDbEntity
  8
Layer_1
 62
7
100
AcDbPolyline
 90
4
 70
1
 10
44.419262
 20
123.932160
 30
0.0
 10
45.917724
 20
123.932160
 30
0.0
 10
45.917724
 20
122.682620
 30
0.0
 10
44.419262
 20
122.682620
 30
0.0
  0
LWPOLYLINE
  5
15c
100
AcDbEntity
  8
Layer_1
 62
7
100
AcDbPolyline
 90
4
 70
1
 10
41.668445
 20
123.932160
 30
0.0
 10
43.169447
 20
123.932160
 30
0.0
 10
43.169447
 20
122.682620
 30
0.0
 10
41.668445
 20
122.682620
 30
0.0
  0
LWPOLYLINE
  5
15d
100
AcDbEntity
  8
Layer_1
 62
7
100
AcDbPolyline
 90
4
 70
1
 10
41.668445
 20
125.931140
 30
0.0
 10
43.169447
 20
125.931140
 30
0.0
 10
43.169447
 20
124.681600
 30
0.0
 10
41.668445
 20
124.681600
 30
0.0
  0
LWPOLYLINE
  5
15e
100
AcDbEntity
  8
Layer_1
 62
7
100
AcDbPolyline
 90
4
 70
1
 10
43.667423
 20
145.181780
 30
0.0
 10
45.168425
 20
145.181780
 30
0.0
 10
45.168425
 20
143.932240
 30
0.0
 10
43.667423
 20
143.932240
 30
0.0
  0
LWPOLYLINE
  5
15f
100
AcDbEntity
  8
Layer_1
 62
7
100
AcDbPolyline
 90
4
 70
1
 10
43.667423
 20
143.182800
 30
0.0
 10
45.168425
 20
143.182800
 30
0.0
 10
45.168425
 20
141.930720
 30
0.0
 10
43.667423
 20
141.930720
 30
0.0
  0
LWPOLYLINE
  5
160
100
AcDbEntity
  8
Layer_1
 62
7
100
AcDbPolyline
 90
4
 70
1
 10
60.667625
 20
123.932160
 30
0.0
 10
62.168627
 20
123.932160
 30
0.0
 10
62.168627
 20
122.682620
 30
0.0
 10
60.667625
 20
122.682620
 30
0.0
  0
LWPOLYLINE
  5
161
100
AcDbEntity
  8
Layer_1
 62
7
100
AcDbPolyline
 90
4
 70
1
 10
60.667625
 20
125.931140
 30
0.0
 10
62.168627
 20
125.931140
 30
0.0
 10
62.168627
 20
124.681600
 30
0.0
 10
60.667625
 20
124.681600
 30
0.0
  0
LWPOLYLINE
  5
162
100
AcDbEntity
  8
Layer_1
 62
7
100
AcDbPolyline
 90
4
 70
1
 10
49.417977
 20
123.932160
 30
0.0
 10
50.918978
 20
123.932160
 30
0.0
 10
50.918978
 20
122.682620
 30
0.0
 10
49.417977
 20
122.682620
 30
0.0
  0
LWPOLYLINE
  5
163
100
AcDbEntity
  8
Layer_1
 62
7
100
AcDbPolyline
 90
4
 70
1
 10
49.417977
 20
125.931140
 30
0.0
 10
50.918978
 20
125.931140
 30
0.0
 10
50.918978
 20
124.681600
 30
0.0
 10
49.417977
 20
124.681600
 30
0.0
  0
LWPOLYLINE
  5
164
100
AcDbEntity
  8
Layer_1
 62
7
100
AcDbPolyline
 90
4
 70
1
 10
53.794392
 20
134.308050
 30
0.0
 10
55.043934
 20
134.308050
 30
0.0
 10
55.043934
 20
132.807050
 30
0.0
 10
53.794392
 20
132.807050
 30
0.0
  0
LWPOLYLINE
  5
165
100
AcDbEntity
  8
Layer_1
 62
7
100
AcDbPolyline
 90
4
 70
1
 10
51.792875
 20
134.308050
 30
0.0
 10
53.042416
 20
134.308050
 30
0.0
 10
53.042416
 20
132.807050
 30
0.0
 10
51.792875
 20
132.807050
 30
0.0
  0
LWPOLYLINE
  5
166
100
AcDbEntity
  8
Layer_1
 62
7
100
AcDbPolyline
 90
4
 70
1
 10
60.418706
 20
140.680910
 30
0.0
 10
61.917167
 20
140.680910
 30
0.0
 10
61.917167
 20
139.431360
 30
0.0
 10
60.418706
 20
139.431360
 30
0.0
  0
LWPOLYLINE
  5
167
100
AcDbEntity
  8
Layer_1
 62
7
100
AcDbPolyline
 90
4
 70
1
 10
60.418706
 20
138.681930
 30
0.0
 10
61.917167
 20
138.681930
 30
0.0
 10
61.917167
 20
137.432390
 30
0.0
 10
60.418706
 20
137.432390
 30
0.0
  0
LWPOLYLINE
  5
168
100
AcDbEntity
  8
Layer_1
 62
7
100
AcDbPolyline
 90
4
 70
1
 10
58.043808
 20
134.308050
 30
0.0
 10
59.293350
 20
134.308050
 30
0.0
 10
59.293350
 20
132.807050
 30
0.0
 10
58.043808
 20
132.807050
 30
0.0
  0
LWPOLYLINE
  5
169
100
AcDbEntity
  8
Layer_1
 62
7
100
AcDbPolyline
 90
4
 70
1
 10
56.042290
 20
134.308050
 30
0.0
 10
57.294372
 20
134.308050
 30
0.0
 10
57.294372
 20
132.807050
 30
0.0
 10
56.042290
 20
132.807050
 30
0.0
  0
LWPOLYLINE
  5
16a
100
AcDbEntity
  8
Layer_1
 62
7
100
AcDbPolyline
 90
4
 70
1
 10
26.245127
 20
212.349037
 30
0.0
 10
76.169081
 20
212.349037
 30
0.0
 10
76.169081
 20
112.425079
 30
0.0
 10
26.245127
 20
112.425079
 30
0.0
  0
ENDSEC
  0
SECTION
  2
OBJECTS
  0
DICTIONARY
  5
C
330
0
100
AcDbDictionary
  3
ACAD_GROUP
350
D
  3
ACAD_MLINESTYLE
350
17
  0
DICTIONARY
  5
D
330
C
100
AcDbDictionary
  0
DICTIONARY
  5
1A
330
C
100
AcDbDictionary
  0
DICTIONARY
  5
17
330
C
100
AcDbDictionary
  3
STANDARD
350
18
  0
DICTIONARY
  5
19
330
C
100
AcDbDictionary
  0
ENDSEC
  0
EOF
