%TF.GenerationSoftware,KiCad,Pcbnew,4.0.7-e2-6376~58~ubuntu16.04.1*%
%TF.CreationDate,2018-10-07T23:02:28+08:00*%
%TF.ProjectId,DVDBreakOut,445644427265616B4F75742E6B696361,rev?*%
%TF.FileFunction,Copper,L1,Top,Signal*%
%FSLAX46Y46*%
G04 Gerber Fmt 4.6, Leading zero omitted, Abs format (unit mm)*
G04 Created by KiCad (PCBNEW 4.0.7-e2-6376~58~ubuntu16.04.1) date Sun Oct  7 23:02:28 2018*
%MOMM*%
%LPD*%
G01*
G04 APERTURE LIST*
%ADD10C,0.100000*%
%ADD11R,0.508000X1.620000*%
%ADD12R,0.580000X1.620000*%
%ADD13R,1.651000X3.048000*%
%ADD14R,6.096000X6.096000*%
%ADD15R,0.660400X2.032000*%
%ADD16C,6.000000*%
%ADD17R,3.000000X3.000000*%
%ADD18R,1.250000X1.000000*%
%ADD19R,1.000000X1.250000*%
%ADD20R,3.200000X3.200000*%
%ADD21O,1.676400X3.000000*%
%ADD22C,0.500000*%
%ADD23C,0.200000*%
%ADD24C,0.350000*%
%ADD25C,0.400000*%
%ADD26C,0.254000*%
G04 APERTURE END LIST*
D10*
D11*
X87305000Y-75190000D03*
X88575000Y-75190000D03*
X89845000Y-75190000D03*
X91115000Y-75190000D03*
X92385000Y-75190000D03*
X93655000Y-75190000D03*
X94925000Y-75190000D03*
X96195000Y-75190000D03*
X96195000Y-65810000D03*
X94925000Y-65810000D03*
X93655000Y-65810000D03*
X92385000Y-65810000D03*
X91115000Y-65810000D03*
X89845000Y-65810000D03*
X88575000Y-65810000D03*
D12*
X87305000Y-65810000D03*
D13*
X102054000Y-66660000D03*
D14*
X104340000Y-60310000D03*
D13*
X106626000Y-66660000D03*
D15*
X102595000Y-81073400D03*
X103865000Y-81073400D03*
X105135000Y-81073400D03*
X106405000Y-81073400D03*
X106405000Y-74926600D03*
X105135000Y-74926600D03*
X103865000Y-74926600D03*
X102595000Y-74926600D03*
D16*
X84250000Y-60750000D03*
X114250000Y-60750000D03*
D17*
X116610000Y-73160000D03*
X97000000Y-53000000D03*
X116610000Y-78240000D03*
X91250000Y-53000000D03*
X107000000Y-53000000D03*
X91250000Y-48000000D03*
X97000000Y-48000000D03*
X107250000Y-48000000D03*
D18*
X88500000Y-81250000D03*
X88500000Y-79250000D03*
X110000000Y-71250000D03*
X110000000Y-69250000D03*
X112000000Y-76500000D03*
X112000000Y-74500000D03*
X109250000Y-74500000D03*
X109250000Y-76500000D03*
X90500000Y-62000000D03*
X90500000Y-60000000D03*
X94000000Y-79250000D03*
X94000000Y-81250000D03*
X91250000Y-81250000D03*
X91250000Y-79250000D03*
X93250000Y-60000000D03*
X93250000Y-62000000D03*
X110250000Y-81250000D03*
X110250000Y-79250000D03*
X99000000Y-81250000D03*
X99000000Y-79250000D03*
D19*
X103250000Y-71000000D03*
X101250000Y-71000000D03*
D18*
X110000000Y-64500000D03*
X110000000Y-66500000D03*
D19*
X107500000Y-71000000D03*
X105500000Y-71000000D03*
D20*
X82000000Y-91250000D03*
X91000000Y-91250000D03*
D21*
X89040000Y-98250000D03*
X86500000Y-98250000D03*
X83960000Y-98250000D03*
X96710000Y-98250000D03*
X99250000Y-98250000D03*
X101790000Y-98250000D03*
D20*
X103750000Y-91250000D03*
X94750000Y-91250000D03*
D21*
X109460000Y-98250000D03*
X112000000Y-98250000D03*
X114540000Y-98250000D03*
D20*
X116500000Y-91250000D03*
X107500000Y-91250000D03*
D17*
X82000000Y-75750000D03*
D22*
X96100000Y-70500000D03*
X84900000Y-70700000D03*
X104400000Y-71000000D03*
X88300000Y-77900000D03*
X116400000Y-75700000D03*
X115400000Y-81300000D03*
X91700000Y-73000000D03*
X94000000Y-82300000D03*
X94100000Y-85000000D03*
X106700000Y-68600000D03*
X107500000Y-70000000D03*
X105100000Y-73500000D03*
X111400000Y-72500000D03*
X96800000Y-71300000D03*
X88800000Y-71300000D03*
X105200000Y-78300000D03*
X108100000Y-78300000D03*
D23*
X96195000Y-75190000D02*
X96195000Y-70595000D01*
X96195000Y-70595000D02*
X96100000Y-70500000D01*
X82000000Y-75750000D02*
X82000000Y-73600000D01*
X96195000Y-70405000D02*
X96195000Y-65810000D01*
X96100000Y-70500000D02*
X96195000Y-70405000D01*
X82000000Y-73600000D02*
X84900000Y-70700000D01*
X96195000Y-65810000D02*
X96195000Y-57905000D01*
X97000000Y-57100000D02*
X97000000Y-53000000D01*
X96195000Y-57905000D02*
X97000000Y-57100000D01*
D24*
X91250000Y-53000000D02*
X97000000Y-53000000D01*
D23*
X105500000Y-71000000D02*
X104400000Y-71000000D01*
X88500000Y-78100000D02*
X88300000Y-77900000D01*
X88500000Y-79250000D02*
X88500000Y-78100000D01*
X116610000Y-78240000D02*
X116610000Y-75910000D01*
X116610000Y-75910000D02*
X116400000Y-75700000D01*
X116610000Y-78240000D02*
X116610000Y-80090000D01*
X116610000Y-80090000D02*
X115400000Y-81300000D01*
X91800000Y-75190000D02*
X91800000Y-73100000D01*
X91800000Y-73100000D02*
X91700000Y-73000000D01*
X91115000Y-75190000D02*
X91800000Y-75190000D01*
X91800000Y-75190000D02*
X92385000Y-75190000D01*
X92385000Y-65810000D02*
X91115000Y-65810000D01*
X93250000Y-60000000D02*
X94400000Y-60000000D01*
X94925000Y-60525000D02*
X94925000Y-65810000D01*
X94400000Y-60000000D02*
X94925000Y-60525000D01*
X93250000Y-60000000D02*
X92000000Y-60000000D01*
X92000000Y-60000000D02*
X90500000Y-60000000D01*
X86500000Y-98250000D02*
X86500000Y-77600000D01*
X88900000Y-62000000D02*
X90500000Y-62000000D01*
X86100000Y-64800000D02*
X88900000Y-62000000D01*
X86100000Y-77200000D02*
X86100000Y-64800000D01*
X86500000Y-77600000D02*
X86100000Y-77200000D01*
X99250000Y-98250000D02*
X99250000Y-90150000D01*
X94000000Y-82300000D02*
X94000000Y-81250000D01*
X99250000Y-90150000D02*
X94100000Y-85000000D01*
X110250000Y-81250000D02*
X110250000Y-85050000D01*
X112000000Y-86800000D02*
X112000000Y-98250000D01*
X110250000Y-85050000D02*
X112000000Y-86800000D01*
X102054000Y-66660000D02*
X102054000Y-70196000D01*
X102054000Y-70196000D02*
X101250000Y-71000000D01*
X107500000Y-71000000D02*
X107500000Y-70000000D01*
X106626000Y-68526000D02*
X106626000Y-66660000D01*
X106700000Y-68600000D02*
X106626000Y-68526000D01*
X106626000Y-66660000D02*
X106626000Y-66574000D01*
X106626000Y-66574000D02*
X108700000Y-64500000D01*
X108700000Y-64500000D02*
X110000000Y-64500000D01*
D25*
X100400000Y-83700000D02*
X89200000Y-83700000D01*
X114540000Y-98250000D02*
X114540000Y-95140000D01*
X114540000Y-95140000D02*
X113500000Y-94100000D01*
X113500000Y-94100000D02*
X113500000Y-79500000D01*
X113500000Y-79500000D02*
X114100000Y-78900000D01*
X114100000Y-78900000D02*
X114100000Y-73160000D01*
D23*
X101790000Y-98250000D02*
X101790000Y-94590000D01*
X100400000Y-93200000D02*
X100400000Y-83700000D01*
X101790000Y-94590000D02*
X100400000Y-93200000D01*
D25*
X89040000Y-98250000D02*
X89040000Y-94640000D01*
X88000000Y-84900000D02*
X89200000Y-83700000D01*
X88000000Y-93600000D02*
X88000000Y-84900000D01*
X89040000Y-94640000D02*
X88000000Y-93600000D01*
D23*
X88500000Y-81250000D02*
X88050000Y-81250000D01*
X88050000Y-81250000D02*
X87305000Y-80505000D01*
X87305000Y-80505000D02*
X87305000Y-75190000D01*
D25*
X106405000Y-81073400D02*
X106405000Y-82095000D01*
X106405000Y-82095000D02*
X104800000Y-83700000D01*
X104800000Y-83700000D02*
X100400000Y-83700000D01*
X88500000Y-83000000D02*
X88500000Y-81250000D01*
X89200000Y-83700000D02*
X88500000Y-83000000D01*
X109250000Y-74500000D02*
X109250000Y-73550000D01*
X109250000Y-73550000D02*
X109640000Y-73160000D01*
X109640000Y-73160000D02*
X114100000Y-73160000D01*
X114100000Y-73160000D02*
X116610000Y-73160000D01*
X106405000Y-81073400D02*
X106405000Y-78495000D01*
X106405000Y-78495000D02*
X107800000Y-77100000D01*
X107800000Y-77100000D02*
X107800000Y-75950000D01*
X107800000Y-75950000D02*
X109250000Y-74500000D01*
D23*
X107000000Y-53000000D02*
X107000000Y-53800000D01*
D25*
X107000000Y-53800000D02*
X109200000Y-56000000D01*
X109200000Y-56000000D02*
X109200000Y-61200000D01*
X109200000Y-61200000D02*
X116610000Y-68610000D01*
X116610000Y-68610000D02*
X116610000Y-73160000D01*
D23*
X110000000Y-69250000D02*
X110550000Y-69250000D01*
X110550000Y-69250000D02*
X111400000Y-70100000D01*
X105135000Y-73535000D02*
X105135000Y-74926600D01*
X105100000Y-73500000D02*
X105135000Y-73535000D01*
X111400000Y-70100000D02*
X111400000Y-72500000D01*
X110000000Y-66500000D02*
X110000000Y-69250000D01*
X110000000Y-71250000D02*
X109950000Y-71250000D01*
X109950000Y-71250000D02*
X108100000Y-69400000D01*
X108100000Y-69400000D02*
X104800000Y-69400000D01*
X104800000Y-69400000D02*
X104400000Y-69800000D01*
X103250000Y-71000000D02*
X103250000Y-71550000D01*
X103250000Y-71550000D02*
X104600000Y-72900000D01*
X106405000Y-73205000D02*
X106405000Y-74926600D01*
X106100000Y-72900000D02*
X106405000Y-73205000D01*
X104600000Y-72900000D02*
X106100000Y-72900000D01*
X103250000Y-71000000D02*
X103250000Y-70950000D01*
X103250000Y-70950000D02*
X104400000Y-69800000D01*
X109250000Y-76500000D02*
X112000000Y-76500000D01*
X104340000Y-60310000D02*
X104340000Y-50910000D01*
X104340000Y-50910000D02*
X107250000Y-48000000D01*
X94000000Y-79250000D02*
X91250000Y-79250000D01*
X94925000Y-75190000D02*
X94925000Y-78325000D01*
X94925000Y-78325000D02*
X94000000Y-79250000D01*
X88575000Y-73100000D02*
X88575000Y-71525000D01*
X99100000Y-69000000D02*
X99100000Y-66100000D01*
X96800000Y-71300000D02*
X99100000Y-69000000D01*
X88575000Y-71525000D02*
X88800000Y-71300000D01*
X88575000Y-75190000D02*
X88575000Y-76275000D01*
X89900000Y-79900000D02*
X91250000Y-81250000D01*
X89900000Y-77600000D02*
X89900000Y-79900000D01*
X88575000Y-76275000D02*
X89900000Y-77600000D01*
X88575000Y-75190000D02*
X88575000Y-73100000D01*
X88575000Y-73100000D02*
X88575000Y-72825000D01*
X100200000Y-51200000D02*
X97000000Y-48000000D01*
X99100000Y-66100000D02*
X99100000Y-56400000D01*
X99100000Y-56400000D02*
X100200000Y-55300000D01*
X100200000Y-55300000D02*
X100200000Y-51200000D01*
X91250000Y-48000000D02*
X89500000Y-48000000D01*
X92250000Y-61000000D02*
X93250000Y-62000000D01*
X89500000Y-61000000D02*
X92250000Y-61000000D01*
X88600000Y-60100000D02*
X89500000Y-61000000D01*
X88600000Y-48900000D02*
X88600000Y-60100000D01*
X89500000Y-48000000D02*
X88600000Y-48900000D01*
X93250000Y-62000000D02*
X93250000Y-62750000D01*
X87305000Y-64495000D02*
X87305000Y-65810000D01*
X87900000Y-63900000D02*
X87305000Y-64495000D01*
X92100000Y-63900000D02*
X87900000Y-63900000D01*
X93250000Y-62750000D02*
X92100000Y-63900000D01*
X110250000Y-79250000D02*
X109050000Y-79250000D01*
X103865000Y-76965000D02*
X103865000Y-76735000D01*
X105200000Y-78300000D02*
X103865000Y-76965000D01*
X109050000Y-79250000D02*
X108100000Y-78300000D01*
X99000000Y-79250000D02*
X101350000Y-79250000D01*
X103865000Y-76735000D02*
X103865000Y-74926600D01*
X101350000Y-79250000D02*
X103865000Y-76735000D01*
D26*
G36*
X85573000Y-77200000D02*
X85613115Y-77401675D01*
X85727355Y-77572645D01*
X85973000Y-77818291D01*
X85973000Y-96410173D01*
X85605369Y-96655817D01*
X85331108Y-97066277D01*
X85281666Y-97314838D01*
X85172680Y-96948428D01*
X84835540Y-96533055D01*
X84365107Y-96278318D01*
X84298075Y-96265522D01*
X84087000Y-96361306D01*
X84087000Y-98123000D01*
X84107000Y-98123000D01*
X84107000Y-98377000D01*
X84087000Y-98377000D01*
X84087000Y-100138694D01*
X84298075Y-100234478D01*
X84365107Y-100221682D01*
X84835540Y-99966945D01*
X85172680Y-99551572D01*
X85281666Y-99185162D01*
X85331108Y-99433723D01*
X85605369Y-99844183D01*
X86015829Y-100118444D01*
X86500000Y-100214752D01*
X86984171Y-100118444D01*
X87394631Y-99844183D01*
X87668892Y-99433723D01*
X87765200Y-98949552D01*
X87765200Y-97550448D01*
X87668892Y-97066277D01*
X87394631Y-96655817D01*
X87027000Y-96410173D01*
X87027000Y-80972290D01*
X87439635Y-81384925D01*
X87439635Y-81750000D01*
X87469409Y-81908237D01*
X87562927Y-82053567D01*
X87705619Y-82151064D01*
X87873000Y-82184960D01*
X87873000Y-83000000D01*
X87920728Y-83239943D01*
X87979135Y-83327355D01*
X88056644Y-83443356D01*
X88313288Y-83700000D01*
X87556644Y-84456644D01*
X87420728Y-84660057D01*
X87373000Y-84900000D01*
X87373000Y-93600000D01*
X87420728Y-93839943D01*
X87536361Y-94013000D01*
X87556644Y-94043356D01*
X88413000Y-94899712D01*
X88413000Y-96476991D01*
X88145369Y-96655817D01*
X87871108Y-97066277D01*
X87774800Y-97550448D01*
X87774800Y-98949552D01*
X87871108Y-99433723D01*
X88145369Y-99844183D01*
X88555829Y-100118444D01*
X89040000Y-100214752D01*
X89524171Y-100118444D01*
X89934631Y-99844183D01*
X90208892Y-99433723D01*
X90305200Y-98949552D01*
X90305200Y-98377000D01*
X95344800Y-98377000D01*
X95344800Y-99038800D01*
X95497320Y-99551572D01*
X95834460Y-99966945D01*
X96304893Y-100221682D01*
X96371925Y-100234478D01*
X96583000Y-100138694D01*
X96583000Y-98377000D01*
X95344800Y-98377000D01*
X90305200Y-98377000D01*
X90305200Y-97550448D01*
X90287448Y-97461200D01*
X95344800Y-97461200D01*
X95344800Y-98123000D01*
X96583000Y-98123000D01*
X96583000Y-96361306D01*
X96371925Y-96265522D01*
X96304893Y-96278318D01*
X95834460Y-96533055D01*
X95497320Y-96948428D01*
X95344800Y-97461200D01*
X90287448Y-97461200D01*
X90208892Y-97066277D01*
X89934631Y-96655817D01*
X89667000Y-96476991D01*
X89667000Y-94640000D01*
X89619272Y-94400057D01*
X89483356Y-94196644D01*
X88627000Y-93340288D01*
X88627000Y-89650000D01*
X88964635Y-89650000D01*
X88964635Y-92850000D01*
X88994409Y-93008237D01*
X89087927Y-93153567D01*
X89230619Y-93251064D01*
X89400000Y-93285365D01*
X92600000Y-93285365D01*
X92758237Y-93255591D01*
X92876174Y-93179700D01*
X92980619Y-93251064D01*
X93150000Y-93285365D01*
X96350000Y-93285365D01*
X96508237Y-93255591D01*
X96653567Y-93162073D01*
X96751064Y-93019381D01*
X96785365Y-92850000D01*
X96785365Y-89650000D01*
X96755591Y-89491763D01*
X96662073Y-89346433D01*
X96519381Y-89248936D01*
X96350000Y-89214635D01*
X93150000Y-89214635D01*
X92991763Y-89244409D01*
X92873826Y-89320300D01*
X92769381Y-89248936D01*
X92600000Y-89214635D01*
X89400000Y-89214635D01*
X89241763Y-89244409D01*
X89096433Y-89337927D01*
X88998936Y-89480619D01*
X88964635Y-89650000D01*
X88627000Y-89650000D01*
X88627000Y-85159712D01*
X89459712Y-84327000D01*
X93955963Y-84327000D01*
X93717011Y-84425733D01*
X93526402Y-84616010D01*
X93423118Y-84864746D01*
X93422883Y-85134073D01*
X93525733Y-85382989D01*
X93716010Y-85573598D01*
X93964746Y-85676882D01*
X94031650Y-85676940D01*
X98723000Y-90368290D01*
X98723000Y-96410173D01*
X98355369Y-96655817D01*
X98081108Y-97066277D01*
X98031666Y-97314838D01*
X97922680Y-96948428D01*
X97585540Y-96533055D01*
X97115107Y-96278318D01*
X97048075Y-96265522D01*
X96837000Y-96361306D01*
X96837000Y-98123000D01*
X96857000Y-98123000D01*
X96857000Y-98377000D01*
X96837000Y-98377000D01*
X96837000Y-100138694D01*
X97048075Y-100234478D01*
X97115107Y-100221682D01*
X97585540Y-99966945D01*
X97922680Y-99551572D01*
X98031666Y-99185162D01*
X98081108Y-99433723D01*
X98355369Y-99844183D01*
X98765829Y-100118444D01*
X99250000Y-100214752D01*
X99734171Y-100118444D01*
X100144631Y-99844183D01*
X100418892Y-99433723D01*
X100515200Y-98949552D01*
X100515200Y-97550448D01*
X100418892Y-97066277D01*
X100144631Y-96655817D01*
X99777000Y-96410173D01*
X99777000Y-90150000D01*
X99736885Y-89948326D01*
X99736885Y-89948325D01*
X99622645Y-89777355D01*
X94777060Y-84931770D01*
X94777117Y-84865927D01*
X94674267Y-84617011D01*
X94483990Y-84426402D01*
X94244603Y-84327000D01*
X99873000Y-84327000D01*
X99873000Y-93200000D01*
X99913115Y-93401675D01*
X100027355Y-93572645D01*
X101263000Y-94808290D01*
X101263000Y-96410173D01*
X100895369Y-96655817D01*
X100621108Y-97066277D01*
X100524800Y-97550448D01*
X100524800Y-98949552D01*
X100621108Y-99433723D01*
X100895369Y-99844183D01*
X101305829Y-100118444D01*
X101790000Y-100214752D01*
X102274171Y-100118444D01*
X102684631Y-99844183D01*
X102958892Y-99433723D01*
X103055200Y-98949552D01*
X103055200Y-98377000D01*
X108094800Y-98377000D01*
X108094800Y-99038800D01*
X108247320Y-99551572D01*
X108584460Y-99966945D01*
X109054893Y-100221682D01*
X109121925Y-100234478D01*
X109333000Y-100138694D01*
X109333000Y-98377000D01*
X108094800Y-98377000D01*
X103055200Y-98377000D01*
X103055200Y-97550448D01*
X103037448Y-97461200D01*
X108094800Y-97461200D01*
X108094800Y-98123000D01*
X109333000Y-98123000D01*
X109333000Y-96361306D01*
X109121925Y-96265522D01*
X109054893Y-96278318D01*
X108584460Y-96533055D01*
X108247320Y-96948428D01*
X108094800Y-97461200D01*
X103037448Y-97461200D01*
X102958892Y-97066277D01*
X102684631Y-96655817D01*
X102317000Y-96410173D01*
X102317000Y-94590000D01*
X102279219Y-94400058D01*
X102276885Y-94388325D01*
X102162645Y-94217355D01*
X100927000Y-92981710D01*
X100927000Y-89650000D01*
X101714635Y-89650000D01*
X101714635Y-92850000D01*
X101744409Y-93008237D01*
X101837927Y-93153567D01*
X101980619Y-93251064D01*
X102150000Y-93285365D01*
X105350000Y-93285365D01*
X105508237Y-93255591D01*
X105626174Y-93179700D01*
X105730619Y-93251064D01*
X105900000Y-93285365D01*
X109100000Y-93285365D01*
X109258237Y-93255591D01*
X109403567Y-93162073D01*
X109501064Y-93019381D01*
X109535365Y-92850000D01*
X109535365Y-89650000D01*
X109505591Y-89491763D01*
X109412073Y-89346433D01*
X109269381Y-89248936D01*
X109100000Y-89214635D01*
X105900000Y-89214635D01*
X105741763Y-89244409D01*
X105623826Y-89320300D01*
X105519381Y-89248936D01*
X105350000Y-89214635D01*
X102150000Y-89214635D01*
X101991763Y-89244409D01*
X101846433Y-89337927D01*
X101748936Y-89480619D01*
X101714635Y-89650000D01*
X100927000Y-89650000D01*
X100927000Y-84327000D01*
X104800000Y-84327000D01*
X105039943Y-84279272D01*
X105243356Y-84143356D01*
X106848356Y-82538356D01*
X106875016Y-82498457D01*
X106893437Y-82494991D01*
X107038767Y-82401473D01*
X107136264Y-82258781D01*
X107170565Y-82089400D01*
X107170565Y-80750000D01*
X109189635Y-80750000D01*
X109189635Y-81750000D01*
X109219409Y-81908237D01*
X109312927Y-82053567D01*
X109455619Y-82151064D01*
X109625000Y-82185365D01*
X109723000Y-82185365D01*
X109723000Y-85050000D01*
X109763115Y-85251675D01*
X109877355Y-85422645D01*
X111473000Y-87018290D01*
X111473000Y-96410173D01*
X111105369Y-96655817D01*
X110831108Y-97066277D01*
X110781666Y-97314838D01*
X110672680Y-96948428D01*
X110335540Y-96533055D01*
X109865107Y-96278318D01*
X109798075Y-96265522D01*
X109587000Y-96361306D01*
X109587000Y-98123000D01*
X109607000Y-98123000D01*
X109607000Y-98377000D01*
X109587000Y-98377000D01*
X109587000Y-100138694D01*
X109798075Y-100234478D01*
X109865107Y-100221682D01*
X110335540Y-99966945D01*
X110672680Y-99551572D01*
X110781666Y-99185162D01*
X110831108Y-99433723D01*
X111105369Y-99844183D01*
X111515829Y-100118444D01*
X112000000Y-100214752D01*
X112484171Y-100118444D01*
X112894631Y-99844183D01*
X113168892Y-99433723D01*
X113265200Y-98949552D01*
X113265200Y-97550448D01*
X113168892Y-97066277D01*
X112894631Y-96655817D01*
X112527000Y-96410173D01*
X112527000Y-86800000D01*
X112486885Y-86598326D01*
X112372645Y-86427355D01*
X110777000Y-84831710D01*
X110777000Y-82185365D01*
X110875000Y-82185365D01*
X111033237Y-82155591D01*
X111178567Y-82062073D01*
X111276064Y-81919381D01*
X111310365Y-81750000D01*
X111310365Y-80750000D01*
X111280591Y-80591763D01*
X111187073Y-80446433D01*
X111044381Y-80348936D01*
X110875000Y-80314635D01*
X109625000Y-80314635D01*
X109466763Y-80344409D01*
X109321433Y-80437927D01*
X109223936Y-80580619D01*
X109189635Y-80750000D01*
X107170565Y-80750000D01*
X107170565Y-80057400D01*
X107140791Y-79899163D01*
X107047273Y-79753833D01*
X107032000Y-79743397D01*
X107032000Y-78754712D01*
X107422944Y-78363768D01*
X107422883Y-78434073D01*
X107525733Y-78682989D01*
X107716010Y-78873598D01*
X107964746Y-78976882D01*
X108031650Y-78976940D01*
X108677355Y-79622645D01*
X108848325Y-79736885D01*
X109050000Y-79777000D01*
X109194715Y-79777000D01*
X109219409Y-79908237D01*
X109312927Y-80053567D01*
X109455619Y-80151064D01*
X109625000Y-80185365D01*
X110875000Y-80185365D01*
X111033237Y-80155591D01*
X111178567Y-80062073D01*
X111276064Y-79919381D01*
X111310365Y-79750000D01*
X111310365Y-78750000D01*
X111280591Y-78591763D01*
X111187073Y-78446433D01*
X111044381Y-78348936D01*
X110875000Y-78314635D01*
X109625000Y-78314635D01*
X109466763Y-78344409D01*
X109321433Y-78437927D01*
X109223936Y-78580619D01*
X109207428Y-78662138D01*
X108777060Y-78231770D01*
X108777117Y-78165927D01*
X108674267Y-77917011D01*
X108483990Y-77726402D01*
X108235254Y-77623118D01*
X108163656Y-77623056D01*
X108243356Y-77543356D01*
X108375164Y-77346092D01*
X108455619Y-77401064D01*
X108625000Y-77435365D01*
X109875000Y-77435365D01*
X110033237Y-77405591D01*
X110178567Y-77312073D01*
X110276064Y-77169381D01*
X110304897Y-77027000D01*
X110944715Y-77027000D01*
X110969409Y-77158237D01*
X111062927Y-77303567D01*
X111205619Y-77401064D01*
X111375000Y-77435365D01*
X112625000Y-77435365D01*
X112783237Y-77405591D01*
X112928567Y-77312073D01*
X113026064Y-77169381D01*
X113060365Y-77000000D01*
X113060365Y-76000000D01*
X113030591Y-75841763D01*
X112937073Y-75696433D01*
X112794381Y-75598936D01*
X112625000Y-75564635D01*
X111375000Y-75564635D01*
X111216763Y-75594409D01*
X111071433Y-75687927D01*
X110973936Y-75830619D01*
X110945103Y-75973000D01*
X110305285Y-75973000D01*
X110280591Y-75841763D01*
X110187073Y-75696433D01*
X110044381Y-75598936D01*
X109875000Y-75564635D01*
X109072077Y-75564635D01*
X109201347Y-75435365D01*
X109875000Y-75435365D01*
X110033237Y-75405591D01*
X110178567Y-75312073D01*
X110276064Y-75169381D01*
X110310365Y-75000000D01*
X110310365Y-74758750D01*
X110848000Y-74758750D01*
X110848000Y-75104827D01*
X110928231Y-75298522D01*
X111076479Y-75446769D01*
X111270173Y-75527000D01*
X111741250Y-75527000D01*
X111873000Y-75395250D01*
X111873000Y-74627000D01*
X112127000Y-74627000D01*
X112127000Y-75395250D01*
X112258750Y-75527000D01*
X112729827Y-75527000D01*
X112923521Y-75446769D01*
X113071769Y-75298522D01*
X113152000Y-75104827D01*
X113152000Y-74758750D01*
X113020250Y-74627000D01*
X112127000Y-74627000D01*
X111873000Y-74627000D01*
X110979750Y-74627000D01*
X110848000Y-74758750D01*
X110310365Y-74758750D01*
X110310365Y-74000000D01*
X110280591Y-73841763D01*
X110245352Y-73787000D01*
X110892807Y-73787000D01*
X110848000Y-73895173D01*
X110848000Y-74241250D01*
X110979750Y-74373000D01*
X111873000Y-74373000D01*
X111873000Y-74353000D01*
X112127000Y-74353000D01*
X112127000Y-74373000D01*
X113020250Y-74373000D01*
X113152000Y-74241250D01*
X113152000Y-73895173D01*
X113107193Y-73787000D01*
X113473000Y-73787000D01*
X113473000Y-78640288D01*
X113056644Y-79056644D01*
X112920728Y-79260057D01*
X112873000Y-79500000D01*
X112873000Y-94100000D01*
X112920728Y-94339943D01*
X113036361Y-94513000D01*
X113056644Y-94543356D01*
X113913000Y-95399712D01*
X113913000Y-96476991D01*
X113645369Y-96655817D01*
X113371108Y-97066277D01*
X113274800Y-97550448D01*
X113274800Y-98949552D01*
X113371108Y-99433723D01*
X113645369Y-99844183D01*
X114055829Y-100118444D01*
X114540000Y-100214752D01*
X115024171Y-100118444D01*
X115434631Y-99844183D01*
X115708892Y-99433723D01*
X115805200Y-98949552D01*
X115805200Y-97550448D01*
X115708892Y-97066277D01*
X115434631Y-96655817D01*
X115167000Y-96476991D01*
X115167000Y-95140000D01*
X115119272Y-94900057D01*
X114983356Y-94696644D01*
X114127000Y-93840288D01*
X114127000Y-79759712D01*
X114543356Y-79343356D01*
X114583000Y-79284024D01*
X114583000Y-79844827D01*
X114663231Y-80038521D01*
X114811478Y-80186769D01*
X115005173Y-80267000D01*
X116351250Y-80267000D01*
X116483000Y-80135250D01*
X116483000Y-78367000D01*
X116463000Y-78367000D01*
X116463000Y-78113000D01*
X116483000Y-78113000D01*
X116483000Y-76344750D01*
X116351250Y-76213000D01*
X115005173Y-76213000D01*
X114811478Y-76293231D01*
X114727000Y-76377710D01*
X114727000Y-74853344D01*
X114797927Y-74963567D01*
X114940619Y-75061064D01*
X115110000Y-75095365D01*
X117751042Y-75095365D01*
X117751042Y-76213000D01*
X116868750Y-76213000D01*
X116737000Y-76344750D01*
X116737000Y-78113000D01*
X116757000Y-78113000D01*
X116757000Y-78367000D01*
X116737000Y-78367000D01*
X116737000Y-80135250D01*
X116868750Y-80267000D01*
X117751042Y-80267000D01*
X117751042Y-89214635D01*
X114900000Y-89214635D01*
X114741763Y-89244409D01*
X114596433Y-89337927D01*
X114498936Y-89480619D01*
X114464635Y-89650000D01*
X114464635Y-92850000D01*
X114494409Y-93008237D01*
X114587927Y-93153567D01*
X114730619Y-93251064D01*
X114900000Y-93285365D01*
X117751042Y-93285365D01*
X117751042Y-102205521D01*
X117736720Y-102348450D01*
X117703116Y-102457147D01*
X117649939Y-102555359D01*
X117579242Y-102641113D01*
X117493458Y-102711834D01*
X117395261Y-102765025D01*
X117286569Y-102798616D01*
X117143624Y-102812960D01*
X81399417Y-102812960D01*
X81256473Y-102798616D01*
X81147779Y-102765025D01*
X81049581Y-102711833D01*
X80963795Y-102641110D01*
X80893104Y-102555362D01*
X80839932Y-102457159D01*
X80806332Y-102348459D01*
X80792009Y-102205521D01*
X80792009Y-98377000D01*
X82594800Y-98377000D01*
X82594800Y-99038800D01*
X82747320Y-99551572D01*
X83084460Y-99966945D01*
X83554893Y-100221682D01*
X83621925Y-100234478D01*
X83833000Y-100138694D01*
X83833000Y-98377000D01*
X82594800Y-98377000D01*
X80792009Y-98377000D01*
X80792009Y-97461200D01*
X82594800Y-97461200D01*
X82594800Y-98123000D01*
X83833000Y-98123000D01*
X83833000Y-96361306D01*
X83621925Y-96265522D01*
X83554893Y-96278318D01*
X83084460Y-96533055D01*
X82747320Y-96948428D01*
X82594800Y-97461200D01*
X80792009Y-97461200D01*
X80792009Y-93285365D01*
X83600000Y-93285365D01*
X83758237Y-93255591D01*
X83903567Y-93162073D01*
X84001064Y-93019381D01*
X84035365Y-92850000D01*
X84035365Y-89650000D01*
X84005591Y-89491763D01*
X83912073Y-89346433D01*
X83769381Y-89248936D01*
X83600000Y-89214635D01*
X80792009Y-89214635D01*
X80792009Y-77685365D01*
X83500000Y-77685365D01*
X83658237Y-77655591D01*
X83803567Y-77562073D01*
X83901064Y-77419381D01*
X83935365Y-77250000D01*
X83935365Y-74250000D01*
X83905591Y-74091763D01*
X83812073Y-73946433D01*
X83669381Y-73848936D01*
X83500000Y-73814635D01*
X82530655Y-73814635D01*
X84968231Y-71377060D01*
X85034073Y-71377117D01*
X85282989Y-71274267D01*
X85473598Y-71083990D01*
X85573000Y-70844603D01*
X85573000Y-77200000D01*
X85573000Y-77200000D01*
G37*
X85573000Y-77200000D02*
X85613115Y-77401675D01*
X85727355Y-77572645D01*
X85973000Y-77818291D01*
X85973000Y-96410173D01*
X85605369Y-96655817D01*
X85331108Y-97066277D01*
X85281666Y-97314838D01*
X85172680Y-96948428D01*
X84835540Y-96533055D01*
X84365107Y-96278318D01*
X84298075Y-96265522D01*
X84087000Y-96361306D01*
X84087000Y-98123000D01*
X84107000Y-98123000D01*
X84107000Y-98377000D01*
X84087000Y-98377000D01*
X84087000Y-100138694D01*
X84298075Y-100234478D01*
X84365107Y-100221682D01*
X84835540Y-99966945D01*
X85172680Y-99551572D01*
X85281666Y-99185162D01*
X85331108Y-99433723D01*
X85605369Y-99844183D01*
X86015829Y-100118444D01*
X86500000Y-100214752D01*
X86984171Y-100118444D01*
X87394631Y-99844183D01*
X87668892Y-99433723D01*
X87765200Y-98949552D01*
X87765200Y-97550448D01*
X87668892Y-97066277D01*
X87394631Y-96655817D01*
X87027000Y-96410173D01*
X87027000Y-80972290D01*
X87439635Y-81384925D01*
X87439635Y-81750000D01*
X87469409Y-81908237D01*
X87562927Y-82053567D01*
X87705619Y-82151064D01*
X87873000Y-82184960D01*
X87873000Y-83000000D01*
X87920728Y-83239943D01*
X87979135Y-83327355D01*
X88056644Y-83443356D01*
X88313288Y-83700000D01*
X87556644Y-84456644D01*
X87420728Y-84660057D01*
X87373000Y-84900000D01*
X87373000Y-93600000D01*
X87420728Y-93839943D01*
X87536361Y-94013000D01*
X87556644Y-94043356D01*
X88413000Y-94899712D01*
X88413000Y-96476991D01*
X88145369Y-96655817D01*
X87871108Y-97066277D01*
X87774800Y-97550448D01*
X87774800Y-98949552D01*
X87871108Y-99433723D01*
X88145369Y-99844183D01*
X88555829Y-100118444D01*
X89040000Y-100214752D01*
X89524171Y-100118444D01*
X89934631Y-99844183D01*
X90208892Y-99433723D01*
X90305200Y-98949552D01*
X90305200Y-98377000D01*
X95344800Y-98377000D01*
X95344800Y-99038800D01*
X95497320Y-99551572D01*
X95834460Y-99966945D01*
X96304893Y-100221682D01*
X96371925Y-100234478D01*
X96583000Y-100138694D01*
X96583000Y-98377000D01*
X95344800Y-98377000D01*
X90305200Y-98377000D01*
X90305200Y-97550448D01*
X90287448Y-97461200D01*
X95344800Y-97461200D01*
X95344800Y-98123000D01*
X96583000Y-98123000D01*
X96583000Y-96361306D01*
X96371925Y-96265522D01*
X96304893Y-96278318D01*
X95834460Y-96533055D01*
X95497320Y-96948428D01*
X95344800Y-97461200D01*
X90287448Y-97461200D01*
X90208892Y-97066277D01*
X89934631Y-96655817D01*
X89667000Y-96476991D01*
X89667000Y-94640000D01*
X89619272Y-94400057D01*
X89483356Y-94196644D01*
X88627000Y-93340288D01*
X88627000Y-89650000D01*
X88964635Y-89650000D01*
X88964635Y-92850000D01*
X88994409Y-93008237D01*
X89087927Y-93153567D01*
X89230619Y-93251064D01*
X89400000Y-93285365D01*
X92600000Y-93285365D01*
X92758237Y-93255591D01*
X92876174Y-93179700D01*
X92980619Y-93251064D01*
X93150000Y-93285365D01*
X96350000Y-93285365D01*
X96508237Y-93255591D01*
X96653567Y-93162073D01*
X96751064Y-93019381D01*
X96785365Y-92850000D01*
X96785365Y-89650000D01*
X96755591Y-89491763D01*
X96662073Y-89346433D01*
X96519381Y-89248936D01*
X96350000Y-89214635D01*
X93150000Y-89214635D01*
X92991763Y-89244409D01*
X92873826Y-89320300D01*
X92769381Y-89248936D01*
X92600000Y-89214635D01*
X89400000Y-89214635D01*
X89241763Y-89244409D01*
X89096433Y-89337927D01*
X88998936Y-89480619D01*
X88964635Y-89650000D01*
X88627000Y-89650000D01*
X88627000Y-85159712D01*
X89459712Y-84327000D01*
X93955963Y-84327000D01*
X93717011Y-84425733D01*
X93526402Y-84616010D01*
X93423118Y-84864746D01*
X93422883Y-85134073D01*
X93525733Y-85382989D01*
X93716010Y-85573598D01*
X93964746Y-85676882D01*
X94031650Y-85676940D01*
X98723000Y-90368290D01*
X98723000Y-96410173D01*
X98355369Y-96655817D01*
X98081108Y-97066277D01*
X98031666Y-97314838D01*
X97922680Y-96948428D01*
X97585540Y-96533055D01*
X97115107Y-96278318D01*
X97048075Y-96265522D01*
X96837000Y-96361306D01*
X96837000Y-98123000D01*
X96857000Y-98123000D01*
X96857000Y-98377000D01*
X96837000Y-98377000D01*
X96837000Y-100138694D01*
X97048075Y-100234478D01*
X97115107Y-100221682D01*
X97585540Y-99966945D01*
X97922680Y-99551572D01*
X98031666Y-99185162D01*
X98081108Y-99433723D01*
X98355369Y-99844183D01*
X98765829Y-100118444D01*
X99250000Y-100214752D01*
X99734171Y-100118444D01*
X100144631Y-99844183D01*
X100418892Y-99433723D01*
X100515200Y-98949552D01*
X100515200Y-97550448D01*
X100418892Y-97066277D01*
X100144631Y-96655817D01*
X99777000Y-96410173D01*
X99777000Y-90150000D01*
X99736885Y-89948326D01*
X99736885Y-89948325D01*
X99622645Y-89777355D01*
X94777060Y-84931770D01*
X94777117Y-84865927D01*
X94674267Y-84617011D01*
X94483990Y-84426402D01*
X94244603Y-84327000D01*
X99873000Y-84327000D01*
X99873000Y-93200000D01*
X99913115Y-93401675D01*
X100027355Y-93572645D01*
X101263000Y-94808290D01*
X101263000Y-96410173D01*
X100895369Y-96655817D01*
X100621108Y-97066277D01*
X100524800Y-97550448D01*
X100524800Y-98949552D01*
X100621108Y-99433723D01*
X100895369Y-99844183D01*
X101305829Y-100118444D01*
X101790000Y-100214752D01*
X102274171Y-100118444D01*
X102684631Y-99844183D01*
X102958892Y-99433723D01*
X103055200Y-98949552D01*
X103055200Y-98377000D01*
X108094800Y-98377000D01*
X108094800Y-99038800D01*
X108247320Y-99551572D01*
X108584460Y-99966945D01*
X109054893Y-100221682D01*
X109121925Y-100234478D01*
X109333000Y-100138694D01*
X109333000Y-98377000D01*
X108094800Y-98377000D01*
X103055200Y-98377000D01*
X103055200Y-97550448D01*
X103037448Y-97461200D01*
X108094800Y-97461200D01*
X108094800Y-98123000D01*
X109333000Y-98123000D01*
X109333000Y-96361306D01*
X109121925Y-96265522D01*
X109054893Y-96278318D01*
X108584460Y-96533055D01*
X108247320Y-96948428D01*
X108094800Y-97461200D01*
X103037448Y-97461200D01*
X102958892Y-97066277D01*
X102684631Y-96655817D01*
X102317000Y-96410173D01*
X102317000Y-94590000D01*
X102279219Y-94400058D01*
X102276885Y-94388325D01*
X102162645Y-94217355D01*
X100927000Y-92981710D01*
X100927000Y-89650000D01*
X101714635Y-89650000D01*
X101714635Y-92850000D01*
X101744409Y-93008237D01*
X101837927Y-93153567D01*
X101980619Y-93251064D01*
X102150000Y-93285365D01*
X105350000Y-93285365D01*
X105508237Y-93255591D01*
X105626174Y-93179700D01*
X105730619Y-93251064D01*
X105900000Y-93285365D01*
X109100000Y-93285365D01*
X109258237Y-93255591D01*
X109403567Y-93162073D01*
X109501064Y-93019381D01*
X109535365Y-92850000D01*
X109535365Y-89650000D01*
X109505591Y-89491763D01*
X109412073Y-89346433D01*
X109269381Y-89248936D01*
X109100000Y-89214635D01*
X105900000Y-89214635D01*
X105741763Y-89244409D01*
X105623826Y-89320300D01*
X105519381Y-89248936D01*
X105350000Y-89214635D01*
X102150000Y-89214635D01*
X101991763Y-89244409D01*
X101846433Y-89337927D01*
X101748936Y-89480619D01*
X101714635Y-89650000D01*
X100927000Y-89650000D01*
X100927000Y-84327000D01*
X104800000Y-84327000D01*
X105039943Y-84279272D01*
X105243356Y-84143356D01*
X106848356Y-82538356D01*
X106875016Y-82498457D01*
X106893437Y-82494991D01*
X107038767Y-82401473D01*
X107136264Y-82258781D01*
X107170565Y-82089400D01*
X107170565Y-80750000D01*
X109189635Y-80750000D01*
X109189635Y-81750000D01*
X109219409Y-81908237D01*
X109312927Y-82053567D01*
X109455619Y-82151064D01*
X109625000Y-82185365D01*
X109723000Y-82185365D01*
X109723000Y-85050000D01*
X109763115Y-85251675D01*
X109877355Y-85422645D01*
X111473000Y-87018290D01*
X111473000Y-96410173D01*
X111105369Y-96655817D01*
X110831108Y-97066277D01*
X110781666Y-97314838D01*
X110672680Y-96948428D01*
X110335540Y-96533055D01*
X109865107Y-96278318D01*
X109798075Y-96265522D01*
X109587000Y-96361306D01*
X109587000Y-98123000D01*
X109607000Y-98123000D01*
X109607000Y-98377000D01*
X109587000Y-98377000D01*
X109587000Y-100138694D01*
X109798075Y-100234478D01*
X109865107Y-100221682D01*
X110335540Y-99966945D01*
X110672680Y-99551572D01*
X110781666Y-99185162D01*
X110831108Y-99433723D01*
X111105369Y-99844183D01*
X111515829Y-100118444D01*
X112000000Y-100214752D01*
X112484171Y-100118444D01*
X112894631Y-99844183D01*
X113168892Y-99433723D01*
X113265200Y-98949552D01*
X113265200Y-97550448D01*
X113168892Y-97066277D01*
X112894631Y-96655817D01*
X112527000Y-96410173D01*
X112527000Y-86800000D01*
X112486885Y-86598326D01*
X112372645Y-86427355D01*
X110777000Y-84831710D01*
X110777000Y-82185365D01*
X110875000Y-82185365D01*
X111033237Y-82155591D01*
X111178567Y-82062073D01*
X111276064Y-81919381D01*
X111310365Y-81750000D01*
X111310365Y-80750000D01*
X111280591Y-80591763D01*
X111187073Y-80446433D01*
X111044381Y-80348936D01*
X110875000Y-80314635D01*
X109625000Y-80314635D01*
X109466763Y-80344409D01*
X109321433Y-80437927D01*
X109223936Y-80580619D01*
X109189635Y-80750000D01*
X107170565Y-80750000D01*
X107170565Y-80057400D01*
X107140791Y-79899163D01*
X107047273Y-79753833D01*
X107032000Y-79743397D01*
X107032000Y-78754712D01*
X107422944Y-78363768D01*
X107422883Y-78434073D01*
X107525733Y-78682989D01*
X107716010Y-78873598D01*
X107964746Y-78976882D01*
X108031650Y-78976940D01*
X108677355Y-79622645D01*
X108848325Y-79736885D01*
X109050000Y-79777000D01*
X109194715Y-79777000D01*
X109219409Y-79908237D01*
X109312927Y-80053567D01*
X109455619Y-80151064D01*
X109625000Y-80185365D01*
X110875000Y-80185365D01*
X111033237Y-80155591D01*
X111178567Y-80062073D01*
X111276064Y-79919381D01*
X111310365Y-79750000D01*
X111310365Y-78750000D01*
X111280591Y-78591763D01*
X111187073Y-78446433D01*
X111044381Y-78348936D01*
X110875000Y-78314635D01*
X109625000Y-78314635D01*
X109466763Y-78344409D01*
X109321433Y-78437927D01*
X109223936Y-78580619D01*
X109207428Y-78662138D01*
X108777060Y-78231770D01*
X108777117Y-78165927D01*
X108674267Y-77917011D01*
X108483990Y-77726402D01*
X108235254Y-77623118D01*
X108163656Y-77623056D01*
X108243356Y-77543356D01*
X108375164Y-77346092D01*
X108455619Y-77401064D01*
X108625000Y-77435365D01*
X109875000Y-77435365D01*
X110033237Y-77405591D01*
X110178567Y-77312073D01*
X110276064Y-77169381D01*
X110304897Y-77027000D01*
X110944715Y-77027000D01*
X110969409Y-77158237D01*
X111062927Y-77303567D01*
X111205619Y-77401064D01*
X111375000Y-77435365D01*
X112625000Y-77435365D01*
X112783237Y-77405591D01*
X112928567Y-77312073D01*
X113026064Y-77169381D01*
X113060365Y-77000000D01*
X113060365Y-76000000D01*
X113030591Y-75841763D01*
X112937073Y-75696433D01*
X112794381Y-75598936D01*
X112625000Y-75564635D01*
X111375000Y-75564635D01*
X111216763Y-75594409D01*
X111071433Y-75687927D01*
X110973936Y-75830619D01*
X110945103Y-75973000D01*
X110305285Y-75973000D01*
X110280591Y-75841763D01*
X110187073Y-75696433D01*
X110044381Y-75598936D01*
X109875000Y-75564635D01*
X109072077Y-75564635D01*
X109201347Y-75435365D01*
X109875000Y-75435365D01*
X110033237Y-75405591D01*
X110178567Y-75312073D01*
X110276064Y-75169381D01*
X110310365Y-75000000D01*
X110310365Y-74758750D01*
X110848000Y-74758750D01*
X110848000Y-75104827D01*
X110928231Y-75298522D01*
X111076479Y-75446769D01*
X111270173Y-75527000D01*
X111741250Y-75527000D01*
X111873000Y-75395250D01*
X111873000Y-74627000D01*
X112127000Y-74627000D01*
X112127000Y-75395250D01*
X112258750Y-75527000D01*
X112729827Y-75527000D01*
X112923521Y-75446769D01*
X113071769Y-75298522D01*
X113152000Y-75104827D01*
X113152000Y-74758750D01*
X113020250Y-74627000D01*
X112127000Y-74627000D01*
X111873000Y-74627000D01*
X110979750Y-74627000D01*
X110848000Y-74758750D01*
X110310365Y-74758750D01*
X110310365Y-74000000D01*
X110280591Y-73841763D01*
X110245352Y-73787000D01*
X110892807Y-73787000D01*
X110848000Y-73895173D01*
X110848000Y-74241250D01*
X110979750Y-74373000D01*
X111873000Y-74373000D01*
X111873000Y-74353000D01*
X112127000Y-74353000D01*
X112127000Y-74373000D01*
X113020250Y-74373000D01*
X113152000Y-74241250D01*
X113152000Y-73895173D01*
X113107193Y-73787000D01*
X113473000Y-73787000D01*
X113473000Y-78640288D01*
X113056644Y-79056644D01*
X112920728Y-79260057D01*
X112873000Y-79500000D01*
X112873000Y-94100000D01*
X112920728Y-94339943D01*
X113036361Y-94513000D01*
X113056644Y-94543356D01*
X113913000Y-95399712D01*
X113913000Y-96476991D01*
X113645369Y-96655817D01*
X113371108Y-97066277D01*
X113274800Y-97550448D01*
X113274800Y-98949552D01*
X113371108Y-99433723D01*
X113645369Y-99844183D01*
X114055829Y-100118444D01*
X114540000Y-100214752D01*
X115024171Y-100118444D01*
X115434631Y-99844183D01*
X115708892Y-99433723D01*
X115805200Y-98949552D01*
X115805200Y-97550448D01*
X115708892Y-97066277D01*
X115434631Y-96655817D01*
X115167000Y-96476991D01*
X115167000Y-95140000D01*
X115119272Y-94900057D01*
X114983356Y-94696644D01*
X114127000Y-93840288D01*
X114127000Y-79759712D01*
X114543356Y-79343356D01*
X114583000Y-79284024D01*
X114583000Y-79844827D01*
X114663231Y-80038521D01*
X114811478Y-80186769D01*
X115005173Y-80267000D01*
X116351250Y-80267000D01*
X116483000Y-80135250D01*
X116483000Y-78367000D01*
X116463000Y-78367000D01*
X116463000Y-78113000D01*
X116483000Y-78113000D01*
X116483000Y-76344750D01*
X116351250Y-76213000D01*
X115005173Y-76213000D01*
X114811478Y-76293231D01*
X114727000Y-76377710D01*
X114727000Y-74853344D01*
X114797927Y-74963567D01*
X114940619Y-75061064D01*
X115110000Y-75095365D01*
X117751042Y-75095365D01*
X117751042Y-76213000D01*
X116868750Y-76213000D01*
X116737000Y-76344750D01*
X116737000Y-78113000D01*
X116757000Y-78113000D01*
X116757000Y-78367000D01*
X116737000Y-78367000D01*
X116737000Y-80135250D01*
X116868750Y-80267000D01*
X117751042Y-80267000D01*
X117751042Y-89214635D01*
X114900000Y-89214635D01*
X114741763Y-89244409D01*
X114596433Y-89337927D01*
X114498936Y-89480619D01*
X114464635Y-89650000D01*
X114464635Y-92850000D01*
X114494409Y-93008237D01*
X114587927Y-93153567D01*
X114730619Y-93251064D01*
X114900000Y-93285365D01*
X117751042Y-93285365D01*
X117751042Y-102205521D01*
X117736720Y-102348450D01*
X117703116Y-102457147D01*
X117649939Y-102555359D01*
X117579242Y-102641113D01*
X117493458Y-102711834D01*
X117395261Y-102765025D01*
X117286569Y-102798616D01*
X117143624Y-102812960D01*
X81399417Y-102812960D01*
X81256473Y-102798616D01*
X81147779Y-102765025D01*
X81049581Y-102711833D01*
X80963795Y-102641110D01*
X80893104Y-102555362D01*
X80839932Y-102457159D01*
X80806332Y-102348459D01*
X80792009Y-102205521D01*
X80792009Y-98377000D01*
X82594800Y-98377000D01*
X82594800Y-99038800D01*
X82747320Y-99551572D01*
X83084460Y-99966945D01*
X83554893Y-100221682D01*
X83621925Y-100234478D01*
X83833000Y-100138694D01*
X83833000Y-98377000D01*
X82594800Y-98377000D01*
X80792009Y-98377000D01*
X80792009Y-97461200D01*
X82594800Y-97461200D01*
X82594800Y-98123000D01*
X83833000Y-98123000D01*
X83833000Y-96361306D01*
X83621925Y-96265522D01*
X83554893Y-96278318D01*
X83084460Y-96533055D01*
X82747320Y-96948428D01*
X82594800Y-97461200D01*
X80792009Y-97461200D01*
X80792009Y-93285365D01*
X83600000Y-93285365D01*
X83758237Y-93255591D01*
X83903567Y-93162073D01*
X84001064Y-93019381D01*
X84035365Y-92850000D01*
X84035365Y-89650000D01*
X84005591Y-89491763D01*
X83912073Y-89346433D01*
X83769381Y-89248936D01*
X83600000Y-89214635D01*
X80792009Y-89214635D01*
X80792009Y-77685365D01*
X83500000Y-77685365D01*
X83658237Y-77655591D01*
X83803567Y-77562073D01*
X83901064Y-77419381D01*
X83935365Y-77250000D01*
X83935365Y-74250000D01*
X83905591Y-74091763D01*
X83812073Y-73946433D01*
X83669381Y-73848936D01*
X83500000Y-73814635D01*
X82530655Y-73814635D01*
X84968231Y-71377060D01*
X85034073Y-71377117D01*
X85282989Y-71274267D01*
X85473598Y-71083990D01*
X85573000Y-70844603D01*
X85573000Y-77200000D01*
G36*
X105314635Y-49190075D02*
X103967355Y-50537355D01*
X103853115Y-50708325D01*
X103853115Y-50708326D01*
X103813000Y-50910000D01*
X103813000Y-56826635D01*
X101292000Y-56826635D01*
X101133763Y-56856409D01*
X100988433Y-56949927D01*
X100890936Y-57092619D01*
X100856635Y-57262000D01*
X100856635Y-63358000D01*
X100886409Y-63516237D01*
X100979927Y-63661567D01*
X101122619Y-63759064D01*
X101292000Y-63793365D01*
X107388000Y-63793365D01*
X107546237Y-63763591D01*
X107691567Y-63670073D01*
X107789064Y-63527381D01*
X107823365Y-63358000D01*
X107823365Y-57262000D01*
X107793591Y-57103763D01*
X107700073Y-56958433D01*
X107557381Y-56860936D01*
X107388000Y-56826635D01*
X104867000Y-56826635D01*
X104867000Y-51128290D01*
X106059925Y-49935365D01*
X108750000Y-49935365D01*
X108908237Y-49905591D01*
X109053567Y-49812073D01*
X109151064Y-49669381D01*
X109185365Y-49500000D01*
X109185365Y-46853820D01*
X117143624Y-46853820D01*
X117286569Y-46868164D01*
X117395261Y-46901755D01*
X117493458Y-46954946D01*
X117579242Y-47025667D01*
X117649939Y-47111421D01*
X117703116Y-47209633D01*
X117736720Y-47318330D01*
X117751042Y-47461259D01*
X117751042Y-71224635D01*
X117237000Y-71224635D01*
X117237000Y-68610000D01*
X117189272Y-68370057D01*
X117053356Y-68166644D01*
X112706492Y-63819780D01*
X113565337Y-64176404D01*
X114928682Y-64177594D01*
X116188704Y-63656963D01*
X117153575Y-62693774D01*
X117676404Y-61434663D01*
X117677594Y-60071318D01*
X117156963Y-58811296D01*
X116193774Y-57846425D01*
X114934663Y-57323596D01*
X113571318Y-57322406D01*
X112311296Y-57843037D01*
X111346425Y-58806226D01*
X110823596Y-60065337D01*
X110822406Y-61428682D01*
X111179411Y-62292699D01*
X109827000Y-60940288D01*
X109827000Y-56000000D01*
X109779273Y-55760058D01*
X109643356Y-55556644D01*
X108842218Y-54755506D01*
X108901064Y-54669381D01*
X108935365Y-54500000D01*
X108935365Y-51500000D01*
X108905591Y-51341763D01*
X108812073Y-51196433D01*
X108669381Y-51098936D01*
X108500000Y-51064635D01*
X105500000Y-51064635D01*
X105341763Y-51094409D01*
X105196433Y-51187927D01*
X105098936Y-51330619D01*
X105064635Y-51500000D01*
X105064635Y-54500000D01*
X105094409Y-54658237D01*
X105187927Y-54803567D01*
X105330619Y-54901064D01*
X105500000Y-54935365D01*
X107248653Y-54935365D01*
X108573000Y-56259712D01*
X108573000Y-61200000D01*
X108620728Y-61439943D01*
X108756644Y-61643356D01*
X110691362Y-63578074D01*
X110625000Y-63564635D01*
X109375000Y-63564635D01*
X109216763Y-63594409D01*
X109071433Y-63687927D01*
X108973936Y-63830619D01*
X108945103Y-63973000D01*
X108700000Y-63973000D01*
X108498325Y-64013115D01*
X108327355Y-64127355D01*
X107679632Y-64775078D01*
X107620881Y-64734936D01*
X107451500Y-64700635D01*
X105800500Y-64700635D01*
X105642263Y-64730409D01*
X105496933Y-64823927D01*
X105399436Y-64966619D01*
X105365135Y-65136000D01*
X105365135Y-68184000D01*
X105394909Y-68342237D01*
X105488427Y-68487567D01*
X105631119Y-68585064D01*
X105800500Y-68619365D01*
X106022983Y-68619365D01*
X106022883Y-68734073D01*
X106080286Y-68873000D01*
X104800000Y-68873000D01*
X104598326Y-68913115D01*
X104598324Y-68913116D01*
X104598325Y-68913116D01*
X104427354Y-69027355D01*
X104027358Y-69427352D01*
X104027355Y-69427354D01*
X103515074Y-69939635D01*
X102750000Y-69939635D01*
X102591763Y-69969409D01*
X102581000Y-69976335D01*
X102581000Y-68619365D01*
X102879500Y-68619365D01*
X103037737Y-68589591D01*
X103183067Y-68496073D01*
X103280564Y-68353381D01*
X103314865Y-68184000D01*
X103314865Y-65136000D01*
X103285091Y-64977763D01*
X103191573Y-64832433D01*
X103048881Y-64734936D01*
X102879500Y-64700635D01*
X101228500Y-64700635D01*
X101070263Y-64730409D01*
X100924933Y-64823927D01*
X100827436Y-64966619D01*
X100793135Y-65136000D01*
X100793135Y-68184000D01*
X100822909Y-68342237D01*
X100916427Y-68487567D01*
X101059119Y-68585064D01*
X101228500Y-68619365D01*
X101527000Y-68619365D01*
X101527000Y-69939635D01*
X100750000Y-69939635D01*
X100591763Y-69969409D01*
X100446433Y-70062927D01*
X100348936Y-70205619D01*
X100314635Y-70375000D01*
X100314635Y-71625000D01*
X100344409Y-71783237D01*
X100437927Y-71928567D01*
X100580619Y-72026064D01*
X100750000Y-72060365D01*
X101750000Y-72060365D01*
X101908237Y-72030591D01*
X102053567Y-71937073D01*
X102151064Y-71794381D01*
X102185365Y-71625000D01*
X102185365Y-70809925D01*
X102314635Y-70680655D01*
X102314635Y-71625000D01*
X102344409Y-71783237D01*
X102437927Y-71928567D01*
X102580619Y-72026064D01*
X102750000Y-72060365D01*
X103015075Y-72060365D01*
X104227355Y-73272645D01*
X104398325Y-73386885D01*
X104423094Y-73391812D01*
X104422957Y-73549422D01*
X104364581Y-73509536D01*
X104195200Y-73475235D01*
X103534800Y-73475235D01*
X103376563Y-73505009D01*
X103308620Y-73548730D01*
X103223722Y-73463831D01*
X103030027Y-73383600D01*
X102853750Y-73383600D01*
X102722000Y-73515350D01*
X102722000Y-74799600D01*
X102742000Y-74799600D01*
X102742000Y-75053600D01*
X102722000Y-75053600D01*
X102722000Y-76337850D01*
X102853750Y-76469600D01*
X103030027Y-76469600D01*
X103223722Y-76389369D01*
X103308392Y-76304699D01*
X103338000Y-76324929D01*
X103338000Y-76516710D01*
X101131710Y-78723000D01*
X100055285Y-78723000D01*
X100030591Y-78591763D01*
X99937073Y-78446433D01*
X99794381Y-78348936D01*
X99625000Y-78314635D01*
X98375000Y-78314635D01*
X98216763Y-78344409D01*
X98071433Y-78437927D01*
X97973936Y-78580619D01*
X97939635Y-78750000D01*
X97939635Y-79750000D01*
X97969409Y-79908237D01*
X98062927Y-80053567D01*
X98205619Y-80151064D01*
X98375000Y-80185365D01*
X99625000Y-80185365D01*
X99783237Y-80155591D01*
X99928567Y-80062073D01*
X100026064Y-79919381D01*
X100054897Y-79777000D01*
X101350000Y-79777000D01*
X101551675Y-79736885D01*
X101722645Y-79622645D01*
X103750000Y-77595290D01*
X104522940Y-78368230D01*
X104522883Y-78434073D01*
X104625733Y-78682989D01*
X104816010Y-78873598D01*
X105064746Y-78976882D01*
X105334073Y-78977117D01*
X105582989Y-78874267D01*
X105773598Y-78683990D01*
X105778000Y-78673389D01*
X105778000Y-79740973D01*
X105771233Y-79745327D01*
X105769193Y-79748312D01*
X105634581Y-79656336D01*
X105465200Y-79622035D01*
X104804800Y-79622035D01*
X104646563Y-79651809D01*
X104501233Y-79745327D01*
X104499193Y-79748312D01*
X104364581Y-79656336D01*
X104195200Y-79622035D01*
X103534800Y-79622035D01*
X103376563Y-79651809D01*
X103231233Y-79745327D01*
X103229193Y-79748312D01*
X103094581Y-79656336D01*
X102925200Y-79622035D01*
X102264800Y-79622035D01*
X102106563Y-79651809D01*
X101961233Y-79745327D01*
X101863736Y-79888019D01*
X101829435Y-80057400D01*
X101829435Y-82089400D01*
X101859209Y-82247637D01*
X101952727Y-82392967D01*
X102095419Y-82490464D01*
X102264800Y-82524765D01*
X102925200Y-82524765D01*
X103083437Y-82494991D01*
X103228767Y-82401473D01*
X103230807Y-82398488D01*
X103365419Y-82490464D01*
X103534800Y-82524765D01*
X104195200Y-82524765D01*
X104353437Y-82494991D01*
X104498767Y-82401473D01*
X104500807Y-82398488D01*
X104635419Y-82490464D01*
X104804800Y-82524765D01*
X105088523Y-82524765D01*
X104540288Y-83073000D01*
X89459712Y-83073000D01*
X89127000Y-82740288D01*
X89127000Y-82184989D01*
X89283237Y-82155591D01*
X89428567Y-82062073D01*
X89526064Y-81919381D01*
X89560365Y-81750000D01*
X89560365Y-80750000D01*
X89530591Y-80591763D01*
X89437073Y-80446433D01*
X89294381Y-80348936D01*
X89125000Y-80314635D01*
X87875000Y-80314635D01*
X87862312Y-80317022D01*
X87832000Y-80286710D01*
X87832000Y-80277000D01*
X88241250Y-80277000D01*
X88373000Y-80145250D01*
X88373000Y-79377000D01*
X88353000Y-79377000D01*
X88353000Y-79123000D01*
X88373000Y-79123000D01*
X88373000Y-78354750D01*
X88241250Y-78223000D01*
X87832000Y-78223000D01*
X87832000Y-76331742D01*
X87862567Y-76312073D01*
X87940760Y-76197633D01*
X88008927Y-76303567D01*
X88060722Y-76338957D01*
X88088115Y-76476675D01*
X88202355Y-76647645D01*
X89373000Y-77818290D01*
X89373000Y-78282304D01*
X89229827Y-78223000D01*
X88758750Y-78223000D01*
X88627000Y-78354750D01*
X88627000Y-79123000D01*
X88647000Y-79123000D01*
X88647000Y-79377000D01*
X88627000Y-79377000D01*
X88627000Y-80145250D01*
X88758750Y-80277000D01*
X89229827Y-80277000D01*
X89423521Y-80196769D01*
X89455373Y-80164917D01*
X89527355Y-80272645D01*
X90189635Y-80934925D01*
X90189635Y-81750000D01*
X90219409Y-81908237D01*
X90312927Y-82053567D01*
X90455619Y-82151064D01*
X90625000Y-82185365D01*
X91875000Y-82185365D01*
X92033237Y-82155591D01*
X92178567Y-82062073D01*
X92276064Y-81919381D01*
X92310365Y-81750000D01*
X92310365Y-80750000D01*
X92939635Y-80750000D01*
X92939635Y-81750000D01*
X92969409Y-81908237D01*
X93062927Y-82053567D01*
X93205619Y-82151064D01*
X93323109Y-82174857D01*
X93322883Y-82434073D01*
X93425733Y-82682989D01*
X93616010Y-82873598D01*
X93864746Y-82976882D01*
X94134073Y-82977117D01*
X94382989Y-82874267D01*
X94573598Y-82683990D01*
X94676882Y-82435254D01*
X94677109Y-82175560D01*
X94783237Y-82155591D01*
X94928567Y-82062073D01*
X95026064Y-81919381D01*
X95060365Y-81750000D01*
X95060365Y-81508750D01*
X97848000Y-81508750D01*
X97848000Y-81854827D01*
X97928231Y-82048522D01*
X98076479Y-82196769D01*
X98270173Y-82277000D01*
X98741250Y-82277000D01*
X98873000Y-82145250D01*
X98873000Y-81377000D01*
X99127000Y-81377000D01*
X99127000Y-82145250D01*
X99258750Y-82277000D01*
X99729827Y-82277000D01*
X99923521Y-82196769D01*
X100071769Y-82048522D01*
X100152000Y-81854827D01*
X100152000Y-81508750D01*
X100020250Y-81377000D01*
X99127000Y-81377000D01*
X98873000Y-81377000D01*
X97979750Y-81377000D01*
X97848000Y-81508750D01*
X95060365Y-81508750D01*
X95060365Y-80750000D01*
X95040641Y-80645173D01*
X97848000Y-80645173D01*
X97848000Y-80991250D01*
X97979750Y-81123000D01*
X98873000Y-81123000D01*
X98873000Y-80354750D01*
X99127000Y-80354750D01*
X99127000Y-81123000D01*
X100020250Y-81123000D01*
X100152000Y-80991250D01*
X100152000Y-80645173D01*
X100071769Y-80451478D01*
X99923521Y-80303231D01*
X99729827Y-80223000D01*
X99258750Y-80223000D01*
X99127000Y-80354750D01*
X98873000Y-80354750D01*
X98741250Y-80223000D01*
X98270173Y-80223000D01*
X98076479Y-80303231D01*
X97928231Y-80451478D01*
X97848000Y-80645173D01*
X95040641Y-80645173D01*
X95030591Y-80591763D01*
X94937073Y-80446433D01*
X94794381Y-80348936D01*
X94625000Y-80314635D01*
X93375000Y-80314635D01*
X93216763Y-80344409D01*
X93071433Y-80437927D01*
X92973936Y-80580619D01*
X92939635Y-80750000D01*
X92310365Y-80750000D01*
X92280591Y-80591763D01*
X92187073Y-80446433D01*
X92044381Y-80348936D01*
X91875000Y-80314635D01*
X91059925Y-80314635D01*
X90930655Y-80185365D01*
X91875000Y-80185365D01*
X92033237Y-80155591D01*
X92178567Y-80062073D01*
X92276064Y-79919381D01*
X92304897Y-79777000D01*
X92944715Y-79777000D01*
X92969409Y-79908237D01*
X93062927Y-80053567D01*
X93205619Y-80151064D01*
X93375000Y-80185365D01*
X94625000Y-80185365D01*
X94783237Y-80155591D01*
X94928567Y-80062073D01*
X95026064Y-79919381D01*
X95060365Y-79750000D01*
X95060365Y-78934926D01*
X95297646Y-78697645D01*
X95411885Y-78526674D01*
X95452000Y-78325000D01*
X95452000Y-76331742D01*
X95482567Y-76312073D01*
X95560760Y-76197633D01*
X95628927Y-76303567D01*
X95771619Y-76401064D01*
X95941000Y-76435365D01*
X96449000Y-76435365D01*
X96607237Y-76405591D01*
X96752567Y-76312073D01*
X96850064Y-76169381D01*
X96884365Y-76000000D01*
X96884365Y-75185350D01*
X101737800Y-75185350D01*
X101737800Y-76047427D01*
X101818031Y-76241121D01*
X101966278Y-76389369D01*
X102159973Y-76469600D01*
X102336250Y-76469600D01*
X102468000Y-76337850D01*
X102468000Y-75053600D01*
X101869550Y-75053600D01*
X101737800Y-75185350D01*
X96884365Y-75185350D01*
X96884365Y-74380000D01*
X96854591Y-74221763D01*
X96761073Y-74076433D01*
X96722000Y-74049736D01*
X96722000Y-73805773D01*
X101737800Y-73805773D01*
X101737800Y-74667850D01*
X101869550Y-74799600D01*
X102468000Y-74799600D01*
X102468000Y-73515350D01*
X102336250Y-73383600D01*
X102159973Y-73383600D01*
X101966278Y-73463831D01*
X101818031Y-73612079D01*
X101737800Y-73805773D01*
X96722000Y-73805773D01*
X96722000Y-71976932D01*
X96934073Y-71977117D01*
X97182989Y-71874267D01*
X97373598Y-71683990D01*
X97476882Y-71435254D01*
X97476940Y-71368350D01*
X99472645Y-69372645D01*
X99586885Y-69201675D01*
X99601738Y-69127000D01*
X99627000Y-69000000D01*
X99627000Y-56618290D01*
X100572645Y-55672645D01*
X100686885Y-55501675D01*
X100727000Y-55300000D01*
X100727000Y-51200000D01*
X100686885Y-50998326D01*
X100627867Y-50910000D01*
X100572645Y-50827354D01*
X98935365Y-49190075D01*
X98935365Y-46853820D01*
X105314635Y-46853820D01*
X105314635Y-49190075D01*
X105314635Y-49190075D01*
G37*
X105314635Y-49190075D02*
X103967355Y-50537355D01*
X103853115Y-50708325D01*
X103853115Y-50708326D01*
X103813000Y-50910000D01*
X103813000Y-56826635D01*
X101292000Y-56826635D01*
X101133763Y-56856409D01*
X100988433Y-56949927D01*
X100890936Y-57092619D01*
X100856635Y-57262000D01*
X100856635Y-63358000D01*
X100886409Y-63516237D01*
X100979927Y-63661567D01*
X101122619Y-63759064D01*
X101292000Y-63793365D01*
X107388000Y-63793365D01*
X107546237Y-63763591D01*
X107691567Y-63670073D01*
X107789064Y-63527381D01*
X107823365Y-63358000D01*
X107823365Y-57262000D01*
X107793591Y-57103763D01*
X107700073Y-56958433D01*
X107557381Y-56860936D01*
X107388000Y-56826635D01*
X104867000Y-56826635D01*
X104867000Y-51128290D01*
X106059925Y-49935365D01*
X108750000Y-49935365D01*
X108908237Y-49905591D01*
X109053567Y-49812073D01*
X109151064Y-49669381D01*
X109185365Y-49500000D01*
X109185365Y-46853820D01*
X117143624Y-46853820D01*
X117286569Y-46868164D01*
X117395261Y-46901755D01*
X117493458Y-46954946D01*
X117579242Y-47025667D01*
X117649939Y-47111421D01*
X117703116Y-47209633D01*
X117736720Y-47318330D01*
X117751042Y-47461259D01*
X117751042Y-71224635D01*
X117237000Y-71224635D01*
X117237000Y-68610000D01*
X117189272Y-68370057D01*
X117053356Y-68166644D01*
X112706492Y-63819780D01*
X113565337Y-64176404D01*
X114928682Y-64177594D01*
X116188704Y-63656963D01*
X117153575Y-62693774D01*
X117676404Y-61434663D01*
X117677594Y-60071318D01*
X117156963Y-58811296D01*
X116193774Y-57846425D01*
X114934663Y-57323596D01*
X113571318Y-57322406D01*
X112311296Y-57843037D01*
X111346425Y-58806226D01*
X110823596Y-60065337D01*
X110822406Y-61428682D01*
X111179411Y-62292699D01*
X109827000Y-60940288D01*
X109827000Y-56000000D01*
X109779273Y-55760058D01*
X109643356Y-55556644D01*
X108842218Y-54755506D01*
X108901064Y-54669381D01*
X108935365Y-54500000D01*
X108935365Y-51500000D01*
X108905591Y-51341763D01*
X108812073Y-51196433D01*
X108669381Y-51098936D01*
X108500000Y-51064635D01*
X105500000Y-51064635D01*
X105341763Y-51094409D01*
X105196433Y-51187927D01*
X105098936Y-51330619D01*
X105064635Y-51500000D01*
X105064635Y-54500000D01*
X105094409Y-54658237D01*
X105187927Y-54803567D01*
X105330619Y-54901064D01*
X105500000Y-54935365D01*
X107248653Y-54935365D01*
X108573000Y-56259712D01*
X108573000Y-61200000D01*
X108620728Y-61439943D01*
X108756644Y-61643356D01*
X110691362Y-63578074D01*
X110625000Y-63564635D01*
X109375000Y-63564635D01*
X109216763Y-63594409D01*
X109071433Y-63687927D01*
X108973936Y-63830619D01*
X108945103Y-63973000D01*
X108700000Y-63973000D01*
X108498325Y-64013115D01*
X108327355Y-64127355D01*
X107679632Y-64775078D01*
X107620881Y-64734936D01*
X107451500Y-64700635D01*
X105800500Y-64700635D01*
X105642263Y-64730409D01*
X105496933Y-64823927D01*
X105399436Y-64966619D01*
X105365135Y-65136000D01*
X105365135Y-68184000D01*
X105394909Y-68342237D01*
X105488427Y-68487567D01*
X105631119Y-68585064D01*
X105800500Y-68619365D01*
X106022983Y-68619365D01*
X106022883Y-68734073D01*
X106080286Y-68873000D01*
X104800000Y-68873000D01*
X104598326Y-68913115D01*
X104598324Y-68913116D01*
X104598325Y-68913116D01*
X104427354Y-69027355D01*
X104027358Y-69427352D01*
X104027355Y-69427354D01*
X103515074Y-69939635D01*
X102750000Y-69939635D01*
X102591763Y-69969409D01*
X102581000Y-69976335D01*
X102581000Y-68619365D01*
X102879500Y-68619365D01*
X103037737Y-68589591D01*
X103183067Y-68496073D01*
X103280564Y-68353381D01*
X103314865Y-68184000D01*
X103314865Y-65136000D01*
X103285091Y-64977763D01*
X103191573Y-64832433D01*
X103048881Y-64734936D01*
X102879500Y-64700635D01*
X101228500Y-64700635D01*
X101070263Y-64730409D01*
X100924933Y-64823927D01*
X100827436Y-64966619D01*
X100793135Y-65136000D01*
X100793135Y-68184000D01*
X100822909Y-68342237D01*
X100916427Y-68487567D01*
X101059119Y-68585064D01*
X101228500Y-68619365D01*
X101527000Y-68619365D01*
X101527000Y-69939635D01*
X100750000Y-69939635D01*
X100591763Y-69969409D01*
X100446433Y-70062927D01*
X100348936Y-70205619D01*
X100314635Y-70375000D01*
X100314635Y-71625000D01*
X100344409Y-71783237D01*
X100437927Y-71928567D01*
X100580619Y-72026064D01*
X100750000Y-72060365D01*
X101750000Y-72060365D01*
X101908237Y-72030591D01*
X102053567Y-71937073D01*
X102151064Y-71794381D01*
X102185365Y-71625000D01*
X102185365Y-70809925D01*
X102314635Y-70680655D01*
X102314635Y-71625000D01*
X102344409Y-71783237D01*
X102437927Y-71928567D01*
X102580619Y-72026064D01*
X102750000Y-72060365D01*
X103015075Y-72060365D01*
X104227355Y-73272645D01*
X104398325Y-73386885D01*
X104423094Y-73391812D01*
X104422957Y-73549422D01*
X104364581Y-73509536D01*
X104195200Y-73475235D01*
X103534800Y-73475235D01*
X103376563Y-73505009D01*
X103308620Y-73548730D01*
X103223722Y-73463831D01*
X103030027Y-73383600D01*
X102853750Y-73383600D01*
X102722000Y-73515350D01*
X102722000Y-74799600D01*
X102742000Y-74799600D01*
X102742000Y-75053600D01*
X102722000Y-75053600D01*
X102722000Y-76337850D01*
X102853750Y-76469600D01*
X103030027Y-76469600D01*
X103223722Y-76389369D01*
X103308392Y-76304699D01*
X103338000Y-76324929D01*
X103338000Y-76516710D01*
X101131710Y-78723000D01*
X100055285Y-78723000D01*
X100030591Y-78591763D01*
X99937073Y-78446433D01*
X99794381Y-78348936D01*
X99625000Y-78314635D01*
X98375000Y-78314635D01*
X98216763Y-78344409D01*
X98071433Y-78437927D01*
X97973936Y-78580619D01*
X97939635Y-78750000D01*
X97939635Y-79750000D01*
X97969409Y-79908237D01*
X98062927Y-80053567D01*
X98205619Y-80151064D01*
X98375000Y-80185365D01*
X99625000Y-80185365D01*
X99783237Y-80155591D01*
X99928567Y-80062073D01*
X100026064Y-79919381D01*
X100054897Y-79777000D01*
X101350000Y-79777000D01*
X101551675Y-79736885D01*
X101722645Y-79622645D01*
X103750000Y-77595290D01*
X104522940Y-78368230D01*
X104522883Y-78434073D01*
X104625733Y-78682989D01*
X104816010Y-78873598D01*
X105064746Y-78976882D01*
X105334073Y-78977117D01*
X105582989Y-78874267D01*
X105773598Y-78683990D01*
X105778000Y-78673389D01*
X105778000Y-79740973D01*
X105771233Y-79745327D01*
X105769193Y-79748312D01*
X105634581Y-79656336D01*
X105465200Y-79622035D01*
X104804800Y-79622035D01*
X104646563Y-79651809D01*
X104501233Y-79745327D01*
X104499193Y-79748312D01*
X104364581Y-79656336D01*
X104195200Y-79622035D01*
X103534800Y-79622035D01*
X103376563Y-79651809D01*
X103231233Y-79745327D01*
X103229193Y-79748312D01*
X103094581Y-79656336D01*
X102925200Y-79622035D01*
X102264800Y-79622035D01*
X102106563Y-79651809D01*
X101961233Y-79745327D01*
X101863736Y-79888019D01*
X101829435Y-80057400D01*
X101829435Y-82089400D01*
X101859209Y-82247637D01*
X101952727Y-82392967D01*
X102095419Y-82490464D01*
X102264800Y-82524765D01*
X102925200Y-82524765D01*
X103083437Y-82494991D01*
X103228767Y-82401473D01*
X103230807Y-82398488D01*
X103365419Y-82490464D01*
X103534800Y-82524765D01*
X104195200Y-82524765D01*
X104353437Y-82494991D01*
X104498767Y-82401473D01*
X104500807Y-82398488D01*
X104635419Y-82490464D01*
X104804800Y-82524765D01*
X105088523Y-82524765D01*
X104540288Y-83073000D01*
X89459712Y-83073000D01*
X89127000Y-82740288D01*
X89127000Y-82184989D01*
X89283237Y-82155591D01*
X89428567Y-82062073D01*
X89526064Y-81919381D01*
X89560365Y-81750000D01*
X89560365Y-80750000D01*
X89530591Y-80591763D01*
X89437073Y-80446433D01*
X89294381Y-80348936D01*
X89125000Y-80314635D01*
X87875000Y-80314635D01*
X87862312Y-80317022D01*
X87832000Y-80286710D01*
X87832000Y-80277000D01*
X88241250Y-80277000D01*
X88373000Y-80145250D01*
X88373000Y-79377000D01*
X88353000Y-79377000D01*
X88353000Y-79123000D01*
X88373000Y-79123000D01*
X88373000Y-78354750D01*
X88241250Y-78223000D01*
X87832000Y-78223000D01*
X87832000Y-76331742D01*
X87862567Y-76312073D01*
X87940760Y-76197633D01*
X88008927Y-76303567D01*
X88060722Y-76338957D01*
X88088115Y-76476675D01*
X88202355Y-76647645D01*
X89373000Y-77818290D01*
X89373000Y-78282304D01*
X89229827Y-78223000D01*
X88758750Y-78223000D01*
X88627000Y-78354750D01*
X88627000Y-79123000D01*
X88647000Y-79123000D01*
X88647000Y-79377000D01*
X88627000Y-79377000D01*
X88627000Y-80145250D01*
X88758750Y-80277000D01*
X89229827Y-80277000D01*
X89423521Y-80196769D01*
X89455373Y-80164917D01*
X89527355Y-80272645D01*
X90189635Y-80934925D01*
X90189635Y-81750000D01*
X90219409Y-81908237D01*
X90312927Y-82053567D01*
X90455619Y-82151064D01*
X90625000Y-82185365D01*
X91875000Y-82185365D01*
X92033237Y-82155591D01*
X92178567Y-82062073D01*
X92276064Y-81919381D01*
X92310365Y-81750000D01*
X92310365Y-80750000D01*
X92939635Y-80750000D01*
X92939635Y-81750000D01*
X92969409Y-81908237D01*
X93062927Y-82053567D01*
X93205619Y-82151064D01*
X93323109Y-82174857D01*
X93322883Y-82434073D01*
X93425733Y-82682989D01*
X93616010Y-82873598D01*
X93864746Y-82976882D01*
X94134073Y-82977117D01*
X94382989Y-82874267D01*
X94573598Y-82683990D01*
X94676882Y-82435254D01*
X94677109Y-82175560D01*
X94783237Y-82155591D01*
X94928567Y-82062073D01*
X95026064Y-81919381D01*
X95060365Y-81750000D01*
X95060365Y-81508750D01*
X97848000Y-81508750D01*
X97848000Y-81854827D01*
X97928231Y-82048522D01*
X98076479Y-82196769D01*
X98270173Y-82277000D01*
X98741250Y-82277000D01*
X98873000Y-82145250D01*
X98873000Y-81377000D01*
X99127000Y-81377000D01*
X99127000Y-82145250D01*
X99258750Y-82277000D01*
X99729827Y-82277000D01*
X99923521Y-82196769D01*
X100071769Y-82048522D01*
X100152000Y-81854827D01*
X100152000Y-81508750D01*
X100020250Y-81377000D01*
X99127000Y-81377000D01*
X98873000Y-81377000D01*
X97979750Y-81377000D01*
X97848000Y-81508750D01*
X95060365Y-81508750D01*
X95060365Y-80750000D01*
X95040641Y-80645173D01*
X97848000Y-80645173D01*
X97848000Y-80991250D01*
X97979750Y-81123000D01*
X98873000Y-81123000D01*
X98873000Y-80354750D01*
X99127000Y-80354750D01*
X99127000Y-81123000D01*
X100020250Y-81123000D01*
X100152000Y-80991250D01*
X100152000Y-80645173D01*
X100071769Y-80451478D01*
X99923521Y-80303231D01*
X99729827Y-80223000D01*
X99258750Y-80223000D01*
X99127000Y-80354750D01*
X98873000Y-80354750D01*
X98741250Y-80223000D01*
X98270173Y-80223000D01*
X98076479Y-80303231D01*
X97928231Y-80451478D01*
X97848000Y-80645173D01*
X95040641Y-80645173D01*
X95030591Y-80591763D01*
X94937073Y-80446433D01*
X94794381Y-80348936D01*
X94625000Y-80314635D01*
X93375000Y-80314635D01*
X93216763Y-80344409D01*
X93071433Y-80437927D01*
X92973936Y-80580619D01*
X92939635Y-80750000D01*
X92310365Y-80750000D01*
X92280591Y-80591763D01*
X92187073Y-80446433D01*
X92044381Y-80348936D01*
X91875000Y-80314635D01*
X91059925Y-80314635D01*
X90930655Y-80185365D01*
X91875000Y-80185365D01*
X92033237Y-80155591D01*
X92178567Y-80062073D01*
X92276064Y-79919381D01*
X92304897Y-79777000D01*
X92944715Y-79777000D01*
X92969409Y-79908237D01*
X93062927Y-80053567D01*
X93205619Y-80151064D01*
X93375000Y-80185365D01*
X94625000Y-80185365D01*
X94783237Y-80155591D01*
X94928567Y-80062073D01*
X95026064Y-79919381D01*
X95060365Y-79750000D01*
X95060365Y-78934926D01*
X95297646Y-78697645D01*
X95411885Y-78526674D01*
X95452000Y-78325000D01*
X95452000Y-76331742D01*
X95482567Y-76312073D01*
X95560760Y-76197633D01*
X95628927Y-76303567D01*
X95771619Y-76401064D01*
X95941000Y-76435365D01*
X96449000Y-76435365D01*
X96607237Y-76405591D01*
X96752567Y-76312073D01*
X96850064Y-76169381D01*
X96884365Y-76000000D01*
X96884365Y-75185350D01*
X101737800Y-75185350D01*
X101737800Y-76047427D01*
X101818031Y-76241121D01*
X101966278Y-76389369D01*
X102159973Y-76469600D01*
X102336250Y-76469600D01*
X102468000Y-76337850D01*
X102468000Y-75053600D01*
X101869550Y-75053600D01*
X101737800Y-75185350D01*
X96884365Y-75185350D01*
X96884365Y-74380000D01*
X96854591Y-74221763D01*
X96761073Y-74076433D01*
X96722000Y-74049736D01*
X96722000Y-73805773D01*
X101737800Y-73805773D01*
X101737800Y-74667850D01*
X101869550Y-74799600D01*
X102468000Y-74799600D01*
X102468000Y-73515350D01*
X102336250Y-73383600D01*
X102159973Y-73383600D01*
X101966278Y-73463831D01*
X101818031Y-73612079D01*
X101737800Y-73805773D01*
X96722000Y-73805773D01*
X96722000Y-71976932D01*
X96934073Y-71977117D01*
X97182989Y-71874267D01*
X97373598Y-71683990D01*
X97476882Y-71435254D01*
X97476940Y-71368350D01*
X99472645Y-69372645D01*
X99586885Y-69201675D01*
X99601738Y-69127000D01*
X99627000Y-69000000D01*
X99627000Y-56618290D01*
X100572645Y-55672645D01*
X100686885Y-55501675D01*
X100727000Y-55300000D01*
X100727000Y-51200000D01*
X100686885Y-50998326D01*
X100627867Y-50910000D01*
X100572645Y-50827354D01*
X98935365Y-49190075D01*
X98935365Y-46853820D01*
X105314635Y-46853820D01*
X105314635Y-49190075D01*
G36*
X94398000Y-60743290D02*
X94398000Y-64668258D01*
X94367433Y-64687927D01*
X94289240Y-64802367D01*
X94221073Y-64696433D01*
X94078381Y-64598936D01*
X93909000Y-64564635D01*
X93401000Y-64564635D01*
X93242763Y-64594409D01*
X93097433Y-64687927D01*
X93086676Y-64703670D01*
X93085769Y-64701479D01*
X92937522Y-64553231D01*
X92743827Y-64473000D01*
X92643750Y-64473000D01*
X92512000Y-64604750D01*
X92512000Y-65683000D01*
X92532000Y-65683000D01*
X92532000Y-65937000D01*
X92512000Y-65937000D01*
X92512000Y-67015250D01*
X92643750Y-67147000D01*
X92743827Y-67147000D01*
X92937522Y-67066769D01*
X93085715Y-66918575D01*
X93088927Y-66923567D01*
X93231619Y-67021064D01*
X93401000Y-67055365D01*
X93909000Y-67055365D01*
X94067237Y-67025591D01*
X94212567Y-66932073D01*
X94290760Y-66817633D01*
X94358927Y-66923567D01*
X94501619Y-67021064D01*
X94671000Y-67055365D01*
X95179000Y-67055365D01*
X95337237Y-67025591D01*
X95482567Y-66932073D01*
X95560760Y-66817633D01*
X95628927Y-66923567D01*
X95668000Y-66950264D01*
X95668000Y-69974659D01*
X95526402Y-70116010D01*
X95423118Y-70364746D01*
X95422883Y-70634073D01*
X95525733Y-70882989D01*
X95668000Y-71025504D01*
X95668000Y-74048258D01*
X95637433Y-74067927D01*
X95559240Y-74182367D01*
X95491073Y-74076433D01*
X95348381Y-73978936D01*
X95179000Y-73944635D01*
X94671000Y-73944635D01*
X94512763Y-73974409D01*
X94367433Y-74067927D01*
X94289240Y-74182367D01*
X94221073Y-74076433D01*
X94078381Y-73978936D01*
X93909000Y-73944635D01*
X93401000Y-73944635D01*
X93242763Y-73974409D01*
X93097433Y-74067927D01*
X93086676Y-74083670D01*
X93085769Y-74081479D01*
X92937522Y-73933231D01*
X92743827Y-73853000D01*
X92643750Y-73853000D01*
X92512000Y-73984750D01*
X92512000Y-75063000D01*
X92532000Y-75063000D01*
X92532000Y-75317000D01*
X92512000Y-75317000D01*
X92512000Y-76395250D01*
X92643750Y-76527000D01*
X92743827Y-76527000D01*
X92937522Y-76446769D01*
X93085715Y-76298575D01*
X93088927Y-76303567D01*
X93231619Y-76401064D01*
X93401000Y-76435365D01*
X93909000Y-76435365D01*
X94067237Y-76405591D01*
X94212567Y-76312073D01*
X94290760Y-76197633D01*
X94358927Y-76303567D01*
X94398000Y-76330264D01*
X94398000Y-78106709D01*
X94190074Y-78314635D01*
X93375000Y-78314635D01*
X93216763Y-78344409D01*
X93071433Y-78437927D01*
X92973936Y-78580619D01*
X92945103Y-78723000D01*
X92305285Y-78723000D01*
X92280591Y-78591763D01*
X92187073Y-78446433D01*
X92044381Y-78348936D01*
X91875000Y-78314635D01*
X90625000Y-78314635D01*
X90466763Y-78344409D01*
X90427000Y-78369996D01*
X90427000Y-77600000D01*
X90405518Y-77492000D01*
X90386885Y-77398325D01*
X90272645Y-77227355D01*
X89452635Y-76407345D01*
X89591000Y-76435365D01*
X90099000Y-76435365D01*
X90257237Y-76405591D01*
X90402567Y-76312073D01*
X90413324Y-76296330D01*
X90414231Y-76298521D01*
X90562478Y-76446769D01*
X90756173Y-76527000D01*
X90856250Y-76527000D01*
X90988000Y-76395250D01*
X90988000Y-75317000D01*
X91242000Y-75317000D01*
X91242000Y-76395250D01*
X91373750Y-76527000D01*
X91473827Y-76527000D01*
X91667522Y-76446769D01*
X91750000Y-76364290D01*
X91832478Y-76446769D01*
X92026173Y-76527000D01*
X92126250Y-76527000D01*
X92258000Y-76395250D01*
X92258000Y-75317000D01*
X91242000Y-75317000D01*
X90988000Y-75317000D01*
X90968000Y-75317000D01*
X90968000Y-75063000D01*
X90988000Y-75063000D01*
X90988000Y-73984750D01*
X91242000Y-73984750D01*
X91242000Y-75063000D01*
X92258000Y-75063000D01*
X92258000Y-73984750D01*
X92126250Y-73853000D01*
X92026173Y-73853000D01*
X91832478Y-73933231D01*
X91750000Y-74015710D01*
X91667522Y-73933231D01*
X91473827Y-73853000D01*
X91373750Y-73853000D01*
X91242000Y-73984750D01*
X90988000Y-73984750D01*
X90856250Y-73853000D01*
X90756173Y-73853000D01*
X90562478Y-73933231D01*
X90414285Y-74081425D01*
X90411073Y-74076433D01*
X90268381Y-73978936D01*
X90099000Y-73944635D01*
X89591000Y-73944635D01*
X89432763Y-73974409D01*
X89287433Y-74067927D01*
X89209240Y-74182367D01*
X89141073Y-74076433D01*
X89102000Y-74049736D01*
X89102000Y-71907731D01*
X89182989Y-71874267D01*
X89373598Y-71683990D01*
X89476882Y-71435254D01*
X89477117Y-71165927D01*
X89374267Y-70917011D01*
X89183990Y-70726402D01*
X88935254Y-70623118D01*
X88665927Y-70622883D01*
X88417011Y-70725733D01*
X88226402Y-70916010D01*
X88123118Y-71164746D01*
X88123025Y-71271079D01*
X88088115Y-71323325D01*
X88083142Y-71348325D01*
X88048000Y-71525000D01*
X88048000Y-74048258D01*
X88017433Y-74067927D01*
X87939240Y-74182367D01*
X87871073Y-74076433D01*
X87728381Y-73978936D01*
X87559000Y-73944635D01*
X87051000Y-73944635D01*
X86892763Y-73974409D01*
X86747433Y-74067927D01*
X86649936Y-74210619D01*
X86627000Y-74323879D01*
X86627000Y-66805574D01*
X86702927Y-66923567D01*
X86845619Y-67021064D01*
X87015000Y-67055365D01*
X87595000Y-67055365D01*
X87753237Y-67025591D01*
X87898567Y-66932073D01*
X87958220Y-66844767D01*
X88008927Y-66923567D01*
X88151619Y-67021064D01*
X88321000Y-67055365D01*
X88829000Y-67055365D01*
X88987237Y-67025591D01*
X89132567Y-66932073D01*
X89210760Y-66817633D01*
X89278927Y-66923567D01*
X89421619Y-67021064D01*
X89591000Y-67055365D01*
X90099000Y-67055365D01*
X90257237Y-67025591D01*
X90402567Y-66932073D01*
X90413324Y-66916330D01*
X90414231Y-66918521D01*
X90562478Y-67066769D01*
X90756173Y-67147000D01*
X90856250Y-67147000D01*
X90988000Y-67015250D01*
X90988000Y-65937000D01*
X91242000Y-65937000D01*
X91242000Y-67015250D01*
X91373750Y-67147000D01*
X91473827Y-67147000D01*
X91667522Y-67066769D01*
X91750000Y-66984290D01*
X91832478Y-67066769D01*
X92026173Y-67147000D01*
X92126250Y-67147000D01*
X92258000Y-67015250D01*
X92258000Y-65937000D01*
X91242000Y-65937000D01*
X90988000Y-65937000D01*
X90968000Y-65937000D01*
X90968000Y-65683000D01*
X90988000Y-65683000D01*
X90988000Y-64604750D01*
X91242000Y-64604750D01*
X91242000Y-65683000D01*
X92258000Y-65683000D01*
X92258000Y-64604750D01*
X92126250Y-64473000D01*
X92026173Y-64473000D01*
X91832478Y-64553231D01*
X91750000Y-64635710D01*
X91667522Y-64553231D01*
X91473827Y-64473000D01*
X91373750Y-64473000D01*
X91242000Y-64604750D01*
X90988000Y-64604750D01*
X90856250Y-64473000D01*
X90756173Y-64473000D01*
X90562478Y-64553231D01*
X90414285Y-64701425D01*
X90411073Y-64696433D01*
X90268381Y-64598936D01*
X90099000Y-64564635D01*
X89591000Y-64564635D01*
X89432763Y-64594409D01*
X89287433Y-64687927D01*
X89209240Y-64802367D01*
X89141073Y-64696433D01*
X88998381Y-64598936D01*
X88829000Y-64564635D01*
X88321000Y-64564635D01*
X88162763Y-64594409D01*
X88017433Y-64687927D01*
X87957780Y-64775233D01*
X87907073Y-64696433D01*
X87872488Y-64672802D01*
X88118290Y-64427000D01*
X92100000Y-64427000D01*
X92301675Y-64386885D01*
X92472645Y-64272645D01*
X93622646Y-63122645D01*
X93736885Y-62951674D01*
X93740129Y-62935365D01*
X93875000Y-62935365D01*
X94033237Y-62905591D01*
X94178567Y-62812073D01*
X94276064Y-62669381D01*
X94310365Y-62500000D01*
X94310365Y-61500000D01*
X94280591Y-61341763D01*
X94187073Y-61196433D01*
X94044381Y-61098936D01*
X93875000Y-61064635D01*
X93059925Y-61064635D01*
X92930655Y-60935365D01*
X93875000Y-60935365D01*
X94033237Y-60905591D01*
X94178567Y-60812073D01*
X94276064Y-60669381D01*
X94284152Y-60629442D01*
X94398000Y-60743290D01*
X94398000Y-60743290D01*
G37*
X94398000Y-60743290D02*
X94398000Y-64668258D01*
X94367433Y-64687927D01*
X94289240Y-64802367D01*
X94221073Y-64696433D01*
X94078381Y-64598936D01*
X93909000Y-64564635D01*
X93401000Y-64564635D01*
X93242763Y-64594409D01*
X93097433Y-64687927D01*
X93086676Y-64703670D01*
X93085769Y-64701479D01*
X92937522Y-64553231D01*
X92743827Y-64473000D01*
X92643750Y-64473000D01*
X92512000Y-64604750D01*
X92512000Y-65683000D01*
X92532000Y-65683000D01*
X92532000Y-65937000D01*
X92512000Y-65937000D01*
X92512000Y-67015250D01*
X92643750Y-67147000D01*
X92743827Y-67147000D01*
X92937522Y-67066769D01*
X93085715Y-66918575D01*
X93088927Y-66923567D01*
X93231619Y-67021064D01*
X93401000Y-67055365D01*
X93909000Y-67055365D01*
X94067237Y-67025591D01*
X94212567Y-66932073D01*
X94290760Y-66817633D01*
X94358927Y-66923567D01*
X94501619Y-67021064D01*
X94671000Y-67055365D01*
X95179000Y-67055365D01*
X95337237Y-67025591D01*
X95482567Y-66932073D01*
X95560760Y-66817633D01*
X95628927Y-66923567D01*
X95668000Y-66950264D01*
X95668000Y-69974659D01*
X95526402Y-70116010D01*
X95423118Y-70364746D01*
X95422883Y-70634073D01*
X95525733Y-70882989D01*
X95668000Y-71025504D01*
X95668000Y-74048258D01*
X95637433Y-74067927D01*
X95559240Y-74182367D01*
X95491073Y-74076433D01*
X95348381Y-73978936D01*
X95179000Y-73944635D01*
X94671000Y-73944635D01*
X94512763Y-73974409D01*
X94367433Y-74067927D01*
X94289240Y-74182367D01*
X94221073Y-74076433D01*
X94078381Y-73978936D01*
X93909000Y-73944635D01*
X93401000Y-73944635D01*
X93242763Y-73974409D01*
X93097433Y-74067927D01*
X93086676Y-74083670D01*
X93085769Y-74081479D01*
X92937522Y-73933231D01*
X92743827Y-73853000D01*
X92643750Y-73853000D01*
X92512000Y-73984750D01*
X92512000Y-75063000D01*
X92532000Y-75063000D01*
X92532000Y-75317000D01*
X92512000Y-75317000D01*
X92512000Y-76395250D01*
X92643750Y-76527000D01*
X92743827Y-76527000D01*
X92937522Y-76446769D01*
X93085715Y-76298575D01*
X93088927Y-76303567D01*
X93231619Y-76401064D01*
X93401000Y-76435365D01*
X93909000Y-76435365D01*
X94067237Y-76405591D01*
X94212567Y-76312073D01*
X94290760Y-76197633D01*
X94358927Y-76303567D01*
X94398000Y-76330264D01*
X94398000Y-78106709D01*
X94190074Y-78314635D01*
X93375000Y-78314635D01*
X93216763Y-78344409D01*
X93071433Y-78437927D01*
X92973936Y-78580619D01*
X92945103Y-78723000D01*
X92305285Y-78723000D01*
X92280591Y-78591763D01*
X92187073Y-78446433D01*
X92044381Y-78348936D01*
X91875000Y-78314635D01*
X90625000Y-78314635D01*
X90466763Y-78344409D01*
X90427000Y-78369996D01*
X90427000Y-77600000D01*
X90405518Y-77492000D01*
X90386885Y-77398325D01*
X90272645Y-77227355D01*
X89452635Y-76407345D01*
X89591000Y-76435365D01*
X90099000Y-76435365D01*
X90257237Y-76405591D01*
X90402567Y-76312073D01*
X90413324Y-76296330D01*
X90414231Y-76298521D01*
X90562478Y-76446769D01*
X90756173Y-76527000D01*
X90856250Y-76527000D01*
X90988000Y-76395250D01*
X90988000Y-75317000D01*
X91242000Y-75317000D01*
X91242000Y-76395250D01*
X91373750Y-76527000D01*
X91473827Y-76527000D01*
X91667522Y-76446769D01*
X91750000Y-76364290D01*
X91832478Y-76446769D01*
X92026173Y-76527000D01*
X92126250Y-76527000D01*
X92258000Y-76395250D01*
X92258000Y-75317000D01*
X91242000Y-75317000D01*
X90988000Y-75317000D01*
X90968000Y-75317000D01*
X90968000Y-75063000D01*
X90988000Y-75063000D01*
X90988000Y-73984750D01*
X91242000Y-73984750D01*
X91242000Y-75063000D01*
X92258000Y-75063000D01*
X92258000Y-73984750D01*
X92126250Y-73853000D01*
X92026173Y-73853000D01*
X91832478Y-73933231D01*
X91750000Y-74015710D01*
X91667522Y-73933231D01*
X91473827Y-73853000D01*
X91373750Y-73853000D01*
X91242000Y-73984750D01*
X90988000Y-73984750D01*
X90856250Y-73853000D01*
X90756173Y-73853000D01*
X90562478Y-73933231D01*
X90414285Y-74081425D01*
X90411073Y-74076433D01*
X90268381Y-73978936D01*
X90099000Y-73944635D01*
X89591000Y-73944635D01*
X89432763Y-73974409D01*
X89287433Y-74067927D01*
X89209240Y-74182367D01*
X89141073Y-74076433D01*
X89102000Y-74049736D01*
X89102000Y-71907731D01*
X89182989Y-71874267D01*
X89373598Y-71683990D01*
X89476882Y-71435254D01*
X89477117Y-71165927D01*
X89374267Y-70917011D01*
X89183990Y-70726402D01*
X88935254Y-70623118D01*
X88665927Y-70622883D01*
X88417011Y-70725733D01*
X88226402Y-70916010D01*
X88123118Y-71164746D01*
X88123025Y-71271079D01*
X88088115Y-71323325D01*
X88083142Y-71348325D01*
X88048000Y-71525000D01*
X88048000Y-74048258D01*
X88017433Y-74067927D01*
X87939240Y-74182367D01*
X87871073Y-74076433D01*
X87728381Y-73978936D01*
X87559000Y-73944635D01*
X87051000Y-73944635D01*
X86892763Y-73974409D01*
X86747433Y-74067927D01*
X86649936Y-74210619D01*
X86627000Y-74323879D01*
X86627000Y-66805574D01*
X86702927Y-66923567D01*
X86845619Y-67021064D01*
X87015000Y-67055365D01*
X87595000Y-67055365D01*
X87753237Y-67025591D01*
X87898567Y-66932073D01*
X87958220Y-66844767D01*
X88008927Y-66923567D01*
X88151619Y-67021064D01*
X88321000Y-67055365D01*
X88829000Y-67055365D01*
X88987237Y-67025591D01*
X89132567Y-66932073D01*
X89210760Y-66817633D01*
X89278927Y-66923567D01*
X89421619Y-67021064D01*
X89591000Y-67055365D01*
X90099000Y-67055365D01*
X90257237Y-67025591D01*
X90402567Y-66932073D01*
X90413324Y-66916330D01*
X90414231Y-66918521D01*
X90562478Y-67066769D01*
X90756173Y-67147000D01*
X90856250Y-67147000D01*
X90988000Y-67015250D01*
X90988000Y-65937000D01*
X91242000Y-65937000D01*
X91242000Y-67015250D01*
X91373750Y-67147000D01*
X91473827Y-67147000D01*
X91667522Y-67066769D01*
X91750000Y-66984290D01*
X91832478Y-67066769D01*
X92026173Y-67147000D01*
X92126250Y-67147000D01*
X92258000Y-67015250D01*
X92258000Y-65937000D01*
X91242000Y-65937000D01*
X90988000Y-65937000D01*
X90968000Y-65937000D01*
X90968000Y-65683000D01*
X90988000Y-65683000D01*
X90988000Y-64604750D01*
X91242000Y-64604750D01*
X91242000Y-65683000D01*
X92258000Y-65683000D01*
X92258000Y-64604750D01*
X92126250Y-64473000D01*
X92026173Y-64473000D01*
X91832478Y-64553231D01*
X91750000Y-64635710D01*
X91667522Y-64553231D01*
X91473827Y-64473000D01*
X91373750Y-64473000D01*
X91242000Y-64604750D01*
X90988000Y-64604750D01*
X90856250Y-64473000D01*
X90756173Y-64473000D01*
X90562478Y-64553231D01*
X90414285Y-64701425D01*
X90411073Y-64696433D01*
X90268381Y-64598936D01*
X90099000Y-64564635D01*
X89591000Y-64564635D01*
X89432763Y-64594409D01*
X89287433Y-64687927D01*
X89209240Y-64802367D01*
X89141073Y-64696433D01*
X88998381Y-64598936D01*
X88829000Y-64564635D01*
X88321000Y-64564635D01*
X88162763Y-64594409D01*
X88017433Y-64687927D01*
X87957780Y-64775233D01*
X87907073Y-64696433D01*
X87872488Y-64672802D01*
X88118290Y-64427000D01*
X92100000Y-64427000D01*
X92301675Y-64386885D01*
X92472645Y-64272645D01*
X93622646Y-63122645D01*
X93736885Y-62951674D01*
X93740129Y-62935365D01*
X93875000Y-62935365D01*
X94033237Y-62905591D01*
X94178567Y-62812073D01*
X94276064Y-62669381D01*
X94310365Y-62500000D01*
X94310365Y-61500000D01*
X94280591Y-61341763D01*
X94187073Y-61196433D01*
X94044381Y-61098936D01*
X93875000Y-61064635D01*
X93059925Y-61064635D01*
X92930655Y-60935365D01*
X93875000Y-60935365D01*
X94033237Y-60905591D01*
X94178567Y-60812073D01*
X94276064Y-60669381D01*
X94284152Y-60629442D01*
X94398000Y-60743290D01*
G36*
X106823016Y-69981472D02*
X106696433Y-70062927D01*
X106598936Y-70205619D01*
X106564635Y-70375000D01*
X106564635Y-71625000D01*
X106594409Y-71783237D01*
X106687927Y-71928567D01*
X106830619Y-72026064D01*
X107000000Y-72060365D01*
X108000000Y-72060365D01*
X108158237Y-72030591D01*
X108303567Y-71937073D01*
X108401064Y-71794381D01*
X108435365Y-71625000D01*
X108435365Y-70480655D01*
X108939635Y-70984925D01*
X108939635Y-71750000D01*
X108969409Y-71908237D01*
X109062927Y-72053567D01*
X109205619Y-72151064D01*
X109375000Y-72185365D01*
X110625000Y-72185365D01*
X110783237Y-72155591D01*
X110819713Y-72132119D01*
X110723118Y-72364746D01*
X110722971Y-72533000D01*
X109640000Y-72533000D01*
X109400057Y-72580728D01*
X109224059Y-72698326D01*
X109196644Y-72716644D01*
X108806644Y-73106644D01*
X108670728Y-73310057D01*
X108623000Y-73550000D01*
X108623000Y-73565011D01*
X108466763Y-73594409D01*
X108321433Y-73687927D01*
X108223936Y-73830619D01*
X108189635Y-74000000D01*
X108189635Y-74673653D01*
X107356644Y-75506644D01*
X107220728Y-75710057D01*
X107173000Y-75950000D01*
X107173000Y-76840288D01*
X105961644Y-78051644D01*
X105877106Y-78178164D01*
X105877117Y-78165927D01*
X105774267Y-77917011D01*
X105583990Y-77726402D01*
X105335254Y-77623118D01*
X105268350Y-77623060D01*
X104392000Y-76746710D01*
X104392000Y-76323376D01*
X104498767Y-76254673D01*
X104500807Y-76251688D01*
X104635419Y-76343664D01*
X104804800Y-76377965D01*
X105465200Y-76377965D01*
X105623437Y-76348191D01*
X105768767Y-76254673D01*
X105770807Y-76251688D01*
X105905419Y-76343664D01*
X106074800Y-76377965D01*
X106735200Y-76377965D01*
X106893437Y-76348191D01*
X107038767Y-76254673D01*
X107136264Y-76111981D01*
X107170565Y-75942600D01*
X107170565Y-73910600D01*
X107140791Y-73752363D01*
X107047273Y-73607033D01*
X106932000Y-73528271D01*
X106932000Y-73205000D01*
X106926407Y-73176882D01*
X106891885Y-73003325D01*
X106777645Y-72832355D01*
X106472645Y-72527355D01*
X106301675Y-72413115D01*
X106100000Y-72373000D01*
X104818290Y-72373000D01*
X104165986Y-71720696D01*
X104185365Y-71625000D01*
X104185365Y-71258750D01*
X104473000Y-71258750D01*
X104473000Y-71729827D01*
X104553231Y-71923521D01*
X104701478Y-72071769D01*
X104895173Y-72152000D01*
X105241250Y-72152000D01*
X105373000Y-72020250D01*
X105373000Y-71127000D01*
X105627000Y-71127000D01*
X105627000Y-72020250D01*
X105758750Y-72152000D01*
X106104827Y-72152000D01*
X106298522Y-72071769D01*
X106446769Y-71923521D01*
X106527000Y-71729827D01*
X106527000Y-71258750D01*
X106395250Y-71127000D01*
X105627000Y-71127000D01*
X105373000Y-71127000D01*
X104604750Y-71127000D01*
X104473000Y-71258750D01*
X104185365Y-71258750D01*
X104185365Y-70759925D01*
X104473000Y-70472291D01*
X104473000Y-70741250D01*
X104604750Y-70873000D01*
X105373000Y-70873000D01*
X105373000Y-70853000D01*
X105627000Y-70853000D01*
X105627000Y-70873000D01*
X106395250Y-70873000D01*
X106527000Y-70741250D01*
X106527000Y-70270173D01*
X106446769Y-70076479D01*
X106298522Y-69928231D01*
X106295550Y-69927000D01*
X106823064Y-69927000D01*
X106823016Y-69981472D01*
X106823016Y-69981472D01*
G37*
X106823016Y-69981472D02*
X106696433Y-70062927D01*
X106598936Y-70205619D01*
X106564635Y-70375000D01*
X106564635Y-71625000D01*
X106594409Y-71783237D01*
X106687927Y-71928567D01*
X106830619Y-72026064D01*
X107000000Y-72060365D01*
X108000000Y-72060365D01*
X108158237Y-72030591D01*
X108303567Y-71937073D01*
X108401064Y-71794381D01*
X108435365Y-71625000D01*
X108435365Y-70480655D01*
X108939635Y-70984925D01*
X108939635Y-71750000D01*
X108969409Y-71908237D01*
X109062927Y-72053567D01*
X109205619Y-72151064D01*
X109375000Y-72185365D01*
X110625000Y-72185365D01*
X110783237Y-72155591D01*
X110819713Y-72132119D01*
X110723118Y-72364746D01*
X110722971Y-72533000D01*
X109640000Y-72533000D01*
X109400057Y-72580728D01*
X109224059Y-72698326D01*
X109196644Y-72716644D01*
X108806644Y-73106644D01*
X108670728Y-73310057D01*
X108623000Y-73550000D01*
X108623000Y-73565011D01*
X108466763Y-73594409D01*
X108321433Y-73687927D01*
X108223936Y-73830619D01*
X108189635Y-74000000D01*
X108189635Y-74673653D01*
X107356644Y-75506644D01*
X107220728Y-75710057D01*
X107173000Y-75950000D01*
X107173000Y-76840288D01*
X105961644Y-78051644D01*
X105877106Y-78178164D01*
X105877117Y-78165927D01*
X105774267Y-77917011D01*
X105583990Y-77726402D01*
X105335254Y-77623118D01*
X105268350Y-77623060D01*
X104392000Y-76746710D01*
X104392000Y-76323376D01*
X104498767Y-76254673D01*
X104500807Y-76251688D01*
X104635419Y-76343664D01*
X104804800Y-76377965D01*
X105465200Y-76377965D01*
X105623437Y-76348191D01*
X105768767Y-76254673D01*
X105770807Y-76251688D01*
X105905419Y-76343664D01*
X106074800Y-76377965D01*
X106735200Y-76377965D01*
X106893437Y-76348191D01*
X107038767Y-76254673D01*
X107136264Y-76111981D01*
X107170565Y-75942600D01*
X107170565Y-73910600D01*
X107140791Y-73752363D01*
X107047273Y-73607033D01*
X106932000Y-73528271D01*
X106932000Y-73205000D01*
X106926407Y-73176882D01*
X106891885Y-73003325D01*
X106777645Y-72832355D01*
X106472645Y-72527355D01*
X106301675Y-72413115D01*
X106100000Y-72373000D01*
X104818290Y-72373000D01*
X104165986Y-71720696D01*
X104185365Y-71625000D01*
X104185365Y-71258750D01*
X104473000Y-71258750D01*
X104473000Y-71729827D01*
X104553231Y-71923521D01*
X104701478Y-72071769D01*
X104895173Y-72152000D01*
X105241250Y-72152000D01*
X105373000Y-72020250D01*
X105373000Y-71127000D01*
X105627000Y-71127000D01*
X105627000Y-72020250D01*
X105758750Y-72152000D01*
X106104827Y-72152000D01*
X106298522Y-72071769D01*
X106446769Y-71923521D01*
X106527000Y-71729827D01*
X106527000Y-71258750D01*
X106395250Y-71127000D01*
X105627000Y-71127000D01*
X105373000Y-71127000D01*
X104604750Y-71127000D01*
X104473000Y-71258750D01*
X104185365Y-71258750D01*
X104185365Y-70759925D01*
X104473000Y-70472291D01*
X104473000Y-70741250D01*
X104604750Y-70873000D01*
X105373000Y-70873000D01*
X105373000Y-70853000D01*
X105627000Y-70853000D01*
X105627000Y-70873000D01*
X106395250Y-70873000D01*
X106527000Y-70741250D01*
X106527000Y-70270173D01*
X106446769Y-70076479D01*
X106298522Y-69928231D01*
X106295550Y-69927000D01*
X106823064Y-69927000D01*
X106823016Y-69981472D01*
M02*
