M48
;DRILL file {KiCad 4.0.7-e2-6376~58~ubuntu16.04.1} date Sun Oct  7 23:01:09 2018
;FORMAT={-:-/ absolute / inch / decimal}
FMAT,2
INCH,TZ
T1C0.016
T2C0.043
T3C0.087
T4C0.126
%
G90
G05
M72
T1
X3.3425Y-2.7835
X3.4764Y-3.0669
X3.4961Y-2.8071
X3.6102Y-2.874
X3.7008Y-3.2402
X3.7047Y-3.3465
X3.7835Y-2.7756
X3.811Y-2.8071
X4.1102Y-2.7953
X4.1378Y-2.8937
X4.1417Y-3.0827
X4.2008Y-2.7008
X4.2323Y-2.7559
X4.2559Y-3.0827
X4.3858Y-2.8543
X4.5433Y-3.2008
X4.5827Y-2.9803
T2
X3.3055Y-3.8681
X3.4055Y-3.8681
X3.5055Y-3.8681
X3.8075Y-3.8681
X3.9075Y-3.8681
X4.0075Y-3.8681
X4.3094Y-3.8681
X4.4094Y-3.8681
X4.5094Y-3.8681
T3
X3.2283Y-3.5925
X3.5827Y-3.5925
X3.7303Y-3.5925
X4.0846Y-3.5925
X4.2323Y-3.5925
X4.5866Y-3.5925
T4
X3.3169Y-2.3917
X4.498Y-2.3917
T0
M30
