%TF.GenerationSoftware,KiCad,Pcbnew,4.0.7-e2-6376~58~ubuntu16.04.1*%
%TF.CreationDate,2018-10-07T23:02:28+08:00*%
%TF.ProjectId,DVDBreakOut,445644427265616B4F75742E6B696361,rev?*%
%TF.FileFunction,Profile,NP*%
%FSLAX46Y46*%
G04 Gerber Fmt 4.6, Leading zero omitted, Abs format (unit mm)*
G04 Created by KiCad (PCBNEW 4.0.7-e2-6376~58~ubuntu16.04.1) date Sun Oct  7 23:02:28 2018*
%MOMM*%
%LPD*%
G01*
G04 APERTURE LIST*
%ADD10C,0.100000*%
G04 APERTURE END LIST*
D10*
X81161290Y-46398320D02*
X81375549Y-46376820D01*
X80961970Y-46459920D02*
X81161290Y-46398320D01*
X80781789Y-46557520D02*
X80961970Y-46459920D01*
X80624948Y-46686820D02*
X80781789Y-46557520D01*
X80495649Y-46843660D02*
X80624948Y-46686820D01*
X80398089Y-47023840D02*
X80495649Y-46843660D01*
X80336479Y-47223160D02*
X80398089Y-47023840D01*
X80315009Y-47437420D02*
X80336479Y-47223160D01*
X80315009Y-54286410D02*
X80315009Y-47437420D01*
X80315009Y-61135410D02*
X80315009Y-54286410D01*
X80315009Y-67984400D02*
X80315009Y-61135410D01*
X80315009Y-74833390D02*
X80315009Y-67984400D01*
X80315009Y-81682380D02*
X80315009Y-74833390D01*
X80315009Y-88531380D02*
X80315009Y-81682380D01*
X80315009Y-95380370D02*
X80315009Y-88531380D01*
X80315009Y-102229360D02*
X80315009Y-95380370D01*
X80336479Y-102443620D02*
X80315009Y-102229360D01*
X80398089Y-102642940D02*
X80336479Y-102443620D01*
X80495649Y-102823120D02*
X80398089Y-102642940D01*
X80624948Y-102979960D02*
X80495649Y-102823120D01*
X80781789Y-103109260D02*
X80624948Y-102979960D01*
X80961970Y-103206860D02*
X80781789Y-103109260D01*
X81161290Y-103268460D02*
X80961970Y-103206860D01*
X81375549Y-103289960D02*
X81161290Y-103268460D01*
X85849542Y-103289960D02*
X81375549Y-103289960D01*
X90323535Y-103289960D02*
X85849542Y-103289960D01*
X94797528Y-103289960D02*
X90323535Y-103289960D01*
X99271520Y-103289960D02*
X94797528Y-103289960D01*
X103745513Y-103289960D02*
X99271520Y-103289960D01*
X108219506Y-103289960D02*
X103745513Y-103289960D01*
X112693499Y-103289960D02*
X108219506Y-103289960D01*
X117167492Y-103289960D02*
X112693499Y-103289960D01*
X117381751Y-103268460D02*
X117167492Y-103289960D01*
X117581071Y-103206860D02*
X117381751Y-103268460D01*
X117761252Y-103109260D02*
X117581071Y-103206860D01*
X117918092Y-102979960D02*
X117761252Y-103109260D01*
X118047392Y-102823120D02*
X117918092Y-102979960D01*
X118144952Y-102642940D02*
X118047392Y-102823120D01*
X118206572Y-102443620D02*
X118144952Y-102642940D01*
X118228042Y-102229360D02*
X118206572Y-102443620D01*
X118228042Y-95380370D02*
X118228042Y-102229360D01*
X118228042Y-88531380D02*
X118228042Y-95380370D01*
X118228042Y-81682380D02*
X118228042Y-88531380D01*
X118228042Y-74833390D02*
X118228042Y-81682380D01*
X118228042Y-67984400D02*
X118228042Y-74833390D01*
X118228042Y-61135410D02*
X118228042Y-67984400D01*
X118228042Y-54286410D02*
X118228042Y-61135410D01*
X118228042Y-47437420D02*
X118228042Y-54286410D01*
X118206572Y-47223160D02*
X118228042Y-47437420D01*
X118144952Y-47023840D02*
X118206572Y-47223160D01*
X118047392Y-46843660D02*
X118144952Y-47023840D01*
X117918092Y-46686820D02*
X118047392Y-46843660D01*
X117761252Y-46557520D02*
X117918092Y-46686820D01*
X117581071Y-46459920D02*
X117761252Y-46557520D01*
X117381751Y-46398320D02*
X117581071Y-46459920D01*
X117167492Y-46376820D02*
X117381751Y-46398320D01*
X112693499Y-46376820D02*
X117167492Y-46376820D01*
X108219506Y-46376820D02*
X112693499Y-46376820D01*
X103745513Y-46376820D02*
X108219506Y-46376820D01*
X99271520Y-46376820D02*
X103745513Y-46376820D01*
X94797528Y-46376820D02*
X99271520Y-46376820D01*
X90323535Y-46376820D02*
X94797528Y-46376820D01*
X85849542Y-46376820D02*
X90323535Y-46376820D01*
X81375549Y-46376820D02*
X85849542Y-46376820D01*
M02*
