%TF.GenerationSoftware,KiCad,Pcbnew,4.0.7-e2-6376~58~ubuntu16.04.1*%
%TF.CreationDate,2018-10-07T23:02:28+08:00*%
%TF.ProjectId,DVDBreakOut,445644427265616B4F75742E6B696361,rev?*%
%TF.FileFunction,Copper,L2,Bot,Signal*%
%FSLAX46Y46*%
G04 Gerber Fmt 4.6, Leading zero omitted, Abs format (unit mm)*
G04 Created by KiCad (PCBNEW 4.0.7-e2-6376~58~ubuntu16.04.1) date Sun Oct  7 23:02:28 2018*
%MOMM*%
%LPD*%
G01*
G04 APERTURE LIST*
%ADD10C,0.100000*%
%ADD11C,6.000000*%
%ADD12R,3.200000X3.200000*%
%ADD13O,1.676400X3.000000*%
%ADD14C,0.500000*%
%ADD15C,0.200000*%
%ADD16C,0.254000*%
G04 APERTURE END LIST*
D10*
D11*
X84250000Y-60750000D03*
X114250000Y-60750000D03*
D12*
X82000000Y-91250000D03*
X91000000Y-91250000D03*
D13*
X89040000Y-98250000D03*
X86500000Y-98250000D03*
X83960000Y-98250000D03*
X96710000Y-98250000D03*
X99250000Y-98250000D03*
X101790000Y-98250000D03*
D12*
X103750000Y-91250000D03*
X94750000Y-91250000D03*
D13*
X109460000Y-98250000D03*
X112000000Y-98250000D03*
X114540000Y-98250000D03*
D12*
X116500000Y-91250000D03*
X107500000Y-91250000D03*
D14*
X96100000Y-70500000D03*
X84900000Y-70700000D03*
X104400000Y-71000000D03*
X88300000Y-77900000D03*
X116400000Y-75700000D03*
X115400000Y-81300000D03*
X91700000Y-73000000D03*
X94000000Y-82300000D03*
X94100000Y-85000000D03*
X106700000Y-68600000D03*
X107500000Y-70000000D03*
X105100000Y-73500000D03*
X111400000Y-72500000D03*
X96800000Y-71300000D03*
X88800000Y-71300000D03*
X105200000Y-78300000D03*
X108100000Y-78300000D03*
D15*
X85100000Y-70500000D02*
X96100000Y-70500000D01*
X84900000Y-70700000D02*
X85100000Y-70500000D01*
X88200000Y-77800000D02*
X88200000Y-77600000D01*
X88300000Y-77900000D02*
X88200000Y-77800000D01*
X94000000Y-84900000D02*
X94000000Y-82300000D01*
X94100000Y-85000000D02*
X94000000Y-84900000D01*
X106700000Y-69200000D02*
X106700000Y-68600000D01*
X107500000Y-70000000D02*
X106700000Y-69200000D01*
X106000000Y-72600000D02*
X105100000Y-73500000D01*
X111300000Y-72600000D02*
X106000000Y-72600000D01*
X111400000Y-72500000D02*
X111300000Y-72600000D01*
X88800000Y-71300000D02*
X96800000Y-71300000D01*
X108100000Y-78300000D02*
X105200000Y-78300000D01*
D16*
G36*
X117286569Y-46868164D02*
X117395261Y-46901755D01*
X117493458Y-46954946D01*
X117579242Y-47025667D01*
X117649939Y-47111421D01*
X117703116Y-47209633D01*
X117736720Y-47318330D01*
X117751042Y-47461259D01*
X117751042Y-89214635D01*
X114900000Y-89214635D01*
X114741763Y-89244409D01*
X114596433Y-89337927D01*
X114498936Y-89480619D01*
X114464635Y-89650000D01*
X114464635Y-92850000D01*
X114494409Y-93008237D01*
X114587927Y-93153567D01*
X114730619Y-93251064D01*
X114900000Y-93285365D01*
X117751042Y-93285365D01*
X117751042Y-102205521D01*
X117736720Y-102348450D01*
X117703116Y-102457147D01*
X117649939Y-102555359D01*
X117579242Y-102641113D01*
X117493458Y-102711834D01*
X117395261Y-102765025D01*
X117286569Y-102798616D01*
X117143624Y-102812960D01*
X81399417Y-102812960D01*
X81256473Y-102798616D01*
X81147779Y-102765025D01*
X81049581Y-102711833D01*
X80963795Y-102641110D01*
X80893104Y-102555362D01*
X80839932Y-102457159D01*
X80806332Y-102348459D01*
X80792009Y-102205521D01*
X80792009Y-98377000D01*
X82594800Y-98377000D01*
X82594800Y-99038800D01*
X82747320Y-99551572D01*
X83084460Y-99966945D01*
X83554893Y-100221682D01*
X83621925Y-100234478D01*
X83833000Y-100138694D01*
X83833000Y-98377000D01*
X82594800Y-98377000D01*
X80792009Y-98377000D01*
X80792009Y-97461200D01*
X82594800Y-97461200D01*
X82594800Y-98123000D01*
X83833000Y-98123000D01*
X83833000Y-96361306D01*
X84087000Y-96361306D01*
X84087000Y-98123000D01*
X84107000Y-98123000D01*
X84107000Y-98377000D01*
X84087000Y-98377000D01*
X84087000Y-100138694D01*
X84298075Y-100234478D01*
X84365107Y-100221682D01*
X84835540Y-99966945D01*
X85172680Y-99551572D01*
X85281666Y-99185162D01*
X85331108Y-99433723D01*
X85605369Y-99844183D01*
X86015829Y-100118444D01*
X86500000Y-100214752D01*
X86984171Y-100118444D01*
X87394631Y-99844183D01*
X87668892Y-99433723D01*
X87765200Y-98949552D01*
X87765200Y-97550448D01*
X87774800Y-97550448D01*
X87774800Y-98949552D01*
X87871108Y-99433723D01*
X88145369Y-99844183D01*
X88555829Y-100118444D01*
X89040000Y-100214752D01*
X89524171Y-100118444D01*
X89934631Y-99844183D01*
X90208892Y-99433723D01*
X90305200Y-98949552D01*
X90305200Y-98377000D01*
X95344800Y-98377000D01*
X95344800Y-99038800D01*
X95497320Y-99551572D01*
X95834460Y-99966945D01*
X96304893Y-100221682D01*
X96371925Y-100234478D01*
X96583000Y-100138694D01*
X96583000Y-98377000D01*
X95344800Y-98377000D01*
X90305200Y-98377000D01*
X90305200Y-97550448D01*
X90287448Y-97461200D01*
X95344800Y-97461200D01*
X95344800Y-98123000D01*
X96583000Y-98123000D01*
X96583000Y-96361306D01*
X96837000Y-96361306D01*
X96837000Y-98123000D01*
X96857000Y-98123000D01*
X96857000Y-98377000D01*
X96837000Y-98377000D01*
X96837000Y-100138694D01*
X97048075Y-100234478D01*
X97115107Y-100221682D01*
X97585540Y-99966945D01*
X97922680Y-99551572D01*
X98031666Y-99185162D01*
X98081108Y-99433723D01*
X98355369Y-99844183D01*
X98765829Y-100118444D01*
X99250000Y-100214752D01*
X99734171Y-100118444D01*
X100144631Y-99844183D01*
X100418892Y-99433723D01*
X100515200Y-98949552D01*
X100515200Y-97550448D01*
X100524800Y-97550448D01*
X100524800Y-98949552D01*
X100621108Y-99433723D01*
X100895369Y-99844183D01*
X101305829Y-100118444D01*
X101790000Y-100214752D01*
X102274171Y-100118444D01*
X102684631Y-99844183D01*
X102958892Y-99433723D01*
X103055200Y-98949552D01*
X103055200Y-98377000D01*
X108094800Y-98377000D01*
X108094800Y-99038800D01*
X108247320Y-99551572D01*
X108584460Y-99966945D01*
X109054893Y-100221682D01*
X109121925Y-100234478D01*
X109333000Y-100138694D01*
X109333000Y-98377000D01*
X108094800Y-98377000D01*
X103055200Y-98377000D01*
X103055200Y-97550448D01*
X103037448Y-97461200D01*
X108094800Y-97461200D01*
X108094800Y-98123000D01*
X109333000Y-98123000D01*
X109333000Y-96361306D01*
X109587000Y-96361306D01*
X109587000Y-98123000D01*
X109607000Y-98123000D01*
X109607000Y-98377000D01*
X109587000Y-98377000D01*
X109587000Y-100138694D01*
X109798075Y-100234478D01*
X109865107Y-100221682D01*
X110335540Y-99966945D01*
X110672680Y-99551572D01*
X110781666Y-99185162D01*
X110831108Y-99433723D01*
X111105369Y-99844183D01*
X111515829Y-100118444D01*
X112000000Y-100214752D01*
X112484171Y-100118444D01*
X112894631Y-99844183D01*
X113168892Y-99433723D01*
X113265200Y-98949552D01*
X113265200Y-97550448D01*
X113274800Y-97550448D01*
X113274800Y-98949552D01*
X113371108Y-99433723D01*
X113645369Y-99844183D01*
X114055829Y-100118444D01*
X114540000Y-100214752D01*
X115024171Y-100118444D01*
X115434631Y-99844183D01*
X115708892Y-99433723D01*
X115805200Y-98949552D01*
X115805200Y-97550448D01*
X115708892Y-97066277D01*
X115434631Y-96655817D01*
X115024171Y-96381556D01*
X114540000Y-96285248D01*
X114055829Y-96381556D01*
X113645369Y-96655817D01*
X113371108Y-97066277D01*
X113274800Y-97550448D01*
X113265200Y-97550448D01*
X113168892Y-97066277D01*
X112894631Y-96655817D01*
X112484171Y-96381556D01*
X112000000Y-96285248D01*
X111515829Y-96381556D01*
X111105369Y-96655817D01*
X110831108Y-97066277D01*
X110781666Y-97314838D01*
X110672680Y-96948428D01*
X110335540Y-96533055D01*
X109865107Y-96278318D01*
X109798075Y-96265522D01*
X109587000Y-96361306D01*
X109333000Y-96361306D01*
X109121925Y-96265522D01*
X109054893Y-96278318D01*
X108584460Y-96533055D01*
X108247320Y-96948428D01*
X108094800Y-97461200D01*
X103037448Y-97461200D01*
X102958892Y-97066277D01*
X102684631Y-96655817D01*
X102274171Y-96381556D01*
X101790000Y-96285248D01*
X101305829Y-96381556D01*
X100895369Y-96655817D01*
X100621108Y-97066277D01*
X100524800Y-97550448D01*
X100515200Y-97550448D01*
X100418892Y-97066277D01*
X100144631Y-96655817D01*
X99734171Y-96381556D01*
X99250000Y-96285248D01*
X98765829Y-96381556D01*
X98355369Y-96655817D01*
X98081108Y-97066277D01*
X98031666Y-97314838D01*
X97922680Y-96948428D01*
X97585540Y-96533055D01*
X97115107Y-96278318D01*
X97048075Y-96265522D01*
X96837000Y-96361306D01*
X96583000Y-96361306D01*
X96371925Y-96265522D01*
X96304893Y-96278318D01*
X95834460Y-96533055D01*
X95497320Y-96948428D01*
X95344800Y-97461200D01*
X90287448Y-97461200D01*
X90208892Y-97066277D01*
X89934631Y-96655817D01*
X89524171Y-96381556D01*
X89040000Y-96285248D01*
X88555829Y-96381556D01*
X88145369Y-96655817D01*
X87871108Y-97066277D01*
X87774800Y-97550448D01*
X87765200Y-97550448D01*
X87668892Y-97066277D01*
X87394631Y-96655817D01*
X86984171Y-96381556D01*
X86500000Y-96285248D01*
X86015829Y-96381556D01*
X85605369Y-96655817D01*
X85331108Y-97066277D01*
X85281666Y-97314838D01*
X85172680Y-96948428D01*
X84835540Y-96533055D01*
X84365107Y-96278318D01*
X84298075Y-96265522D01*
X84087000Y-96361306D01*
X83833000Y-96361306D01*
X83621925Y-96265522D01*
X83554893Y-96278318D01*
X83084460Y-96533055D01*
X82747320Y-96948428D01*
X82594800Y-97461200D01*
X80792009Y-97461200D01*
X80792009Y-93285365D01*
X83600000Y-93285365D01*
X83758237Y-93255591D01*
X83903567Y-93162073D01*
X84001064Y-93019381D01*
X84035365Y-92850000D01*
X84035365Y-89650000D01*
X88964635Y-89650000D01*
X88964635Y-92850000D01*
X88994409Y-93008237D01*
X89087927Y-93153567D01*
X89230619Y-93251064D01*
X89400000Y-93285365D01*
X92600000Y-93285365D01*
X92758237Y-93255591D01*
X92876174Y-93179700D01*
X92980619Y-93251064D01*
X93150000Y-93285365D01*
X96350000Y-93285365D01*
X96508237Y-93255591D01*
X96653567Y-93162073D01*
X96751064Y-93019381D01*
X96785365Y-92850000D01*
X96785365Y-89650000D01*
X101714635Y-89650000D01*
X101714635Y-92850000D01*
X101744409Y-93008237D01*
X101837927Y-93153567D01*
X101980619Y-93251064D01*
X102150000Y-93285365D01*
X105350000Y-93285365D01*
X105508237Y-93255591D01*
X105626174Y-93179700D01*
X105730619Y-93251064D01*
X105900000Y-93285365D01*
X109100000Y-93285365D01*
X109258237Y-93255591D01*
X109403567Y-93162073D01*
X109501064Y-93019381D01*
X109535365Y-92850000D01*
X109535365Y-89650000D01*
X109505591Y-89491763D01*
X109412073Y-89346433D01*
X109269381Y-89248936D01*
X109100000Y-89214635D01*
X105900000Y-89214635D01*
X105741763Y-89244409D01*
X105623826Y-89320300D01*
X105519381Y-89248936D01*
X105350000Y-89214635D01*
X102150000Y-89214635D01*
X101991763Y-89244409D01*
X101846433Y-89337927D01*
X101748936Y-89480619D01*
X101714635Y-89650000D01*
X96785365Y-89650000D01*
X96755591Y-89491763D01*
X96662073Y-89346433D01*
X96519381Y-89248936D01*
X96350000Y-89214635D01*
X93150000Y-89214635D01*
X92991763Y-89244409D01*
X92873826Y-89320300D01*
X92769381Y-89248936D01*
X92600000Y-89214635D01*
X89400000Y-89214635D01*
X89241763Y-89244409D01*
X89096433Y-89337927D01*
X88998936Y-89480619D01*
X88964635Y-89650000D01*
X84035365Y-89650000D01*
X84005591Y-89491763D01*
X83912073Y-89346433D01*
X83769381Y-89248936D01*
X83600000Y-89214635D01*
X80792009Y-89214635D01*
X80792009Y-82434073D01*
X93322883Y-82434073D01*
X93425733Y-82682989D01*
X93473000Y-82730338D01*
X93473000Y-84744617D01*
X93423118Y-84864746D01*
X93422883Y-85134073D01*
X93525733Y-85382989D01*
X93716010Y-85573598D01*
X93964746Y-85676882D01*
X94234073Y-85677117D01*
X94482989Y-85574267D01*
X94673598Y-85383990D01*
X94776882Y-85135254D01*
X94777117Y-84865927D01*
X94674267Y-84617011D01*
X94527000Y-84469487D01*
X94527000Y-82730507D01*
X94573598Y-82683990D01*
X94676882Y-82435254D01*
X94677117Y-82165927D01*
X94574267Y-81917011D01*
X94383990Y-81726402D01*
X94135254Y-81623118D01*
X93865927Y-81622883D01*
X93617011Y-81725733D01*
X93426402Y-81916010D01*
X93323118Y-82164746D01*
X93322883Y-82434073D01*
X80792009Y-82434073D01*
X80792009Y-78434073D01*
X104522883Y-78434073D01*
X104625733Y-78682989D01*
X104816010Y-78873598D01*
X105064746Y-78976882D01*
X105334073Y-78977117D01*
X105582989Y-78874267D01*
X105630338Y-78827000D01*
X107669493Y-78827000D01*
X107716010Y-78873598D01*
X107964746Y-78976882D01*
X108234073Y-78977117D01*
X108482989Y-78874267D01*
X108673598Y-78683990D01*
X108776882Y-78435254D01*
X108777117Y-78165927D01*
X108674267Y-77917011D01*
X108483990Y-77726402D01*
X108235254Y-77623118D01*
X107965927Y-77622883D01*
X107717011Y-77725733D01*
X107669662Y-77773000D01*
X105630507Y-77773000D01*
X105583990Y-77726402D01*
X105335254Y-77623118D01*
X105065927Y-77622883D01*
X104817011Y-77725733D01*
X104626402Y-77916010D01*
X104523118Y-78164746D01*
X104522883Y-78434073D01*
X80792009Y-78434073D01*
X80792009Y-73634073D01*
X104422883Y-73634073D01*
X104525733Y-73882989D01*
X104716010Y-74073598D01*
X104964746Y-74176882D01*
X105234073Y-74177117D01*
X105482989Y-74074267D01*
X105673598Y-73883990D01*
X105776882Y-73635254D01*
X105776940Y-73568350D01*
X106218290Y-73127000D01*
X111144617Y-73127000D01*
X111264746Y-73176882D01*
X111534073Y-73177117D01*
X111782989Y-73074267D01*
X111973598Y-72883990D01*
X112076882Y-72635254D01*
X112077117Y-72365927D01*
X111974267Y-72117011D01*
X111783990Y-71926402D01*
X111535254Y-71823118D01*
X111265927Y-71822883D01*
X111017011Y-71925733D01*
X110869487Y-72073000D01*
X106000000Y-72073000D01*
X105831785Y-72106460D01*
X105798325Y-72113115D01*
X105627355Y-72227355D01*
X105031770Y-72822940D01*
X104965927Y-72822883D01*
X104717011Y-72925733D01*
X104526402Y-73116010D01*
X104423118Y-73364746D01*
X104422883Y-73634073D01*
X80792009Y-73634073D01*
X80792009Y-70834073D01*
X84222883Y-70834073D01*
X84325733Y-71082989D01*
X84516010Y-71273598D01*
X84764746Y-71376882D01*
X85034073Y-71377117D01*
X85282989Y-71274267D01*
X85473598Y-71083990D01*
X85497262Y-71027000D01*
X88180315Y-71027000D01*
X88123118Y-71164746D01*
X88122883Y-71434073D01*
X88225733Y-71682989D01*
X88416010Y-71873598D01*
X88664746Y-71976882D01*
X88934073Y-71977117D01*
X89182989Y-71874267D01*
X89230338Y-71827000D01*
X96369493Y-71827000D01*
X96416010Y-71873598D01*
X96664746Y-71976882D01*
X96934073Y-71977117D01*
X97182989Y-71874267D01*
X97373598Y-71683990D01*
X97476882Y-71435254D01*
X97477117Y-71165927D01*
X97374267Y-70917011D01*
X97183990Y-70726402D01*
X96935254Y-70623118D01*
X96776893Y-70622980D01*
X96777117Y-70365927D01*
X96674267Y-70117011D01*
X96483990Y-69926402D01*
X96235254Y-69823118D01*
X95965927Y-69822883D01*
X95717011Y-69925733D01*
X95669662Y-69973000D01*
X85100000Y-69973000D01*
X84898326Y-70013115D01*
X84883554Y-70022986D01*
X84765927Y-70022883D01*
X84517011Y-70125733D01*
X84326402Y-70316010D01*
X84223118Y-70564746D01*
X84222883Y-70834073D01*
X80792009Y-70834073D01*
X80792009Y-68734073D01*
X106022883Y-68734073D01*
X106125733Y-68982989D01*
X106173000Y-69030338D01*
X106173000Y-69200000D01*
X106213115Y-69401675D01*
X106327355Y-69572645D01*
X106822940Y-70068230D01*
X106822883Y-70134073D01*
X106925733Y-70382989D01*
X107116010Y-70573598D01*
X107364746Y-70676882D01*
X107634073Y-70677117D01*
X107882989Y-70574267D01*
X108073598Y-70383990D01*
X108176882Y-70135254D01*
X108177117Y-69865927D01*
X108074267Y-69617011D01*
X107883990Y-69426402D01*
X107635254Y-69323118D01*
X107568350Y-69323060D01*
X107251420Y-69006130D01*
X107273598Y-68983990D01*
X107376882Y-68735254D01*
X107377117Y-68465927D01*
X107274267Y-68217011D01*
X107083990Y-68026402D01*
X106835254Y-67923118D01*
X106565927Y-67922883D01*
X106317011Y-68025733D01*
X106126402Y-68216010D01*
X106023118Y-68464746D01*
X106022883Y-68734073D01*
X80792009Y-68734073D01*
X80792009Y-61428682D01*
X80822406Y-61428682D01*
X81343037Y-62688704D01*
X82306226Y-63653575D01*
X83565337Y-64176404D01*
X84928682Y-64177594D01*
X86188704Y-63656963D01*
X87153575Y-62693774D01*
X87676404Y-61434663D01*
X87676409Y-61428682D01*
X110822406Y-61428682D01*
X111343037Y-62688704D01*
X112306226Y-63653575D01*
X113565337Y-64176404D01*
X114928682Y-64177594D01*
X116188704Y-63656963D01*
X117153575Y-62693774D01*
X117676404Y-61434663D01*
X117677594Y-60071318D01*
X117156963Y-58811296D01*
X116193774Y-57846425D01*
X114934663Y-57323596D01*
X113571318Y-57322406D01*
X112311296Y-57843037D01*
X111346425Y-58806226D01*
X110823596Y-60065337D01*
X110822406Y-61428682D01*
X87676409Y-61428682D01*
X87677594Y-60071318D01*
X87156963Y-58811296D01*
X86193774Y-57846425D01*
X84934663Y-57323596D01*
X83571318Y-57322406D01*
X82311296Y-57843037D01*
X81346425Y-58806226D01*
X80823596Y-60065337D01*
X80822406Y-61428682D01*
X80792009Y-61428682D01*
X80792009Y-47461259D01*
X80806332Y-47318321D01*
X80839932Y-47209621D01*
X80893104Y-47111418D01*
X80963795Y-47025670D01*
X81049581Y-46954947D01*
X81147779Y-46901755D01*
X81256473Y-46868164D01*
X81399417Y-46853820D01*
X117143624Y-46853820D01*
X117286569Y-46868164D01*
X117286569Y-46868164D01*
G37*
X117286569Y-46868164D02*
X117395261Y-46901755D01*
X117493458Y-46954946D01*
X117579242Y-47025667D01*
X117649939Y-47111421D01*
X117703116Y-47209633D01*
X117736720Y-47318330D01*
X117751042Y-47461259D01*
X117751042Y-89214635D01*
X114900000Y-89214635D01*
X114741763Y-89244409D01*
X114596433Y-89337927D01*
X114498936Y-89480619D01*
X114464635Y-89650000D01*
X114464635Y-92850000D01*
X114494409Y-93008237D01*
X114587927Y-93153567D01*
X114730619Y-93251064D01*
X114900000Y-93285365D01*
X117751042Y-93285365D01*
X117751042Y-102205521D01*
X117736720Y-102348450D01*
X117703116Y-102457147D01*
X117649939Y-102555359D01*
X117579242Y-102641113D01*
X117493458Y-102711834D01*
X117395261Y-102765025D01*
X117286569Y-102798616D01*
X117143624Y-102812960D01*
X81399417Y-102812960D01*
X81256473Y-102798616D01*
X81147779Y-102765025D01*
X81049581Y-102711833D01*
X80963795Y-102641110D01*
X80893104Y-102555362D01*
X80839932Y-102457159D01*
X80806332Y-102348459D01*
X80792009Y-102205521D01*
X80792009Y-98377000D01*
X82594800Y-98377000D01*
X82594800Y-99038800D01*
X82747320Y-99551572D01*
X83084460Y-99966945D01*
X83554893Y-100221682D01*
X83621925Y-100234478D01*
X83833000Y-100138694D01*
X83833000Y-98377000D01*
X82594800Y-98377000D01*
X80792009Y-98377000D01*
X80792009Y-97461200D01*
X82594800Y-97461200D01*
X82594800Y-98123000D01*
X83833000Y-98123000D01*
X83833000Y-96361306D01*
X84087000Y-96361306D01*
X84087000Y-98123000D01*
X84107000Y-98123000D01*
X84107000Y-98377000D01*
X84087000Y-98377000D01*
X84087000Y-100138694D01*
X84298075Y-100234478D01*
X84365107Y-100221682D01*
X84835540Y-99966945D01*
X85172680Y-99551572D01*
X85281666Y-99185162D01*
X85331108Y-99433723D01*
X85605369Y-99844183D01*
X86015829Y-100118444D01*
X86500000Y-100214752D01*
X86984171Y-100118444D01*
X87394631Y-99844183D01*
X87668892Y-99433723D01*
X87765200Y-98949552D01*
X87765200Y-97550448D01*
X87774800Y-97550448D01*
X87774800Y-98949552D01*
X87871108Y-99433723D01*
X88145369Y-99844183D01*
X88555829Y-100118444D01*
X89040000Y-100214752D01*
X89524171Y-100118444D01*
X89934631Y-99844183D01*
X90208892Y-99433723D01*
X90305200Y-98949552D01*
X90305200Y-98377000D01*
X95344800Y-98377000D01*
X95344800Y-99038800D01*
X95497320Y-99551572D01*
X95834460Y-99966945D01*
X96304893Y-100221682D01*
X96371925Y-100234478D01*
X96583000Y-100138694D01*
X96583000Y-98377000D01*
X95344800Y-98377000D01*
X90305200Y-98377000D01*
X90305200Y-97550448D01*
X90287448Y-97461200D01*
X95344800Y-97461200D01*
X95344800Y-98123000D01*
X96583000Y-98123000D01*
X96583000Y-96361306D01*
X96837000Y-96361306D01*
X96837000Y-98123000D01*
X96857000Y-98123000D01*
X96857000Y-98377000D01*
X96837000Y-98377000D01*
X96837000Y-100138694D01*
X97048075Y-100234478D01*
X97115107Y-100221682D01*
X97585540Y-99966945D01*
X97922680Y-99551572D01*
X98031666Y-99185162D01*
X98081108Y-99433723D01*
X98355369Y-99844183D01*
X98765829Y-100118444D01*
X99250000Y-100214752D01*
X99734171Y-100118444D01*
X100144631Y-99844183D01*
X100418892Y-99433723D01*
X100515200Y-98949552D01*
X100515200Y-97550448D01*
X100524800Y-97550448D01*
X100524800Y-98949552D01*
X100621108Y-99433723D01*
X100895369Y-99844183D01*
X101305829Y-100118444D01*
X101790000Y-100214752D01*
X102274171Y-100118444D01*
X102684631Y-99844183D01*
X102958892Y-99433723D01*
X103055200Y-98949552D01*
X103055200Y-98377000D01*
X108094800Y-98377000D01*
X108094800Y-99038800D01*
X108247320Y-99551572D01*
X108584460Y-99966945D01*
X109054893Y-100221682D01*
X109121925Y-100234478D01*
X109333000Y-100138694D01*
X109333000Y-98377000D01*
X108094800Y-98377000D01*
X103055200Y-98377000D01*
X103055200Y-97550448D01*
X103037448Y-97461200D01*
X108094800Y-97461200D01*
X108094800Y-98123000D01*
X109333000Y-98123000D01*
X109333000Y-96361306D01*
X109587000Y-96361306D01*
X109587000Y-98123000D01*
X109607000Y-98123000D01*
X109607000Y-98377000D01*
X109587000Y-98377000D01*
X109587000Y-100138694D01*
X109798075Y-100234478D01*
X109865107Y-100221682D01*
X110335540Y-99966945D01*
X110672680Y-99551572D01*
X110781666Y-99185162D01*
X110831108Y-99433723D01*
X111105369Y-99844183D01*
X111515829Y-100118444D01*
X112000000Y-100214752D01*
X112484171Y-100118444D01*
X112894631Y-99844183D01*
X113168892Y-99433723D01*
X113265200Y-98949552D01*
X113265200Y-97550448D01*
X113274800Y-97550448D01*
X113274800Y-98949552D01*
X113371108Y-99433723D01*
X113645369Y-99844183D01*
X114055829Y-100118444D01*
X114540000Y-100214752D01*
X115024171Y-100118444D01*
X115434631Y-99844183D01*
X115708892Y-99433723D01*
X115805200Y-98949552D01*
X115805200Y-97550448D01*
X115708892Y-97066277D01*
X115434631Y-96655817D01*
X115024171Y-96381556D01*
X114540000Y-96285248D01*
X114055829Y-96381556D01*
X113645369Y-96655817D01*
X113371108Y-97066277D01*
X113274800Y-97550448D01*
X113265200Y-97550448D01*
X113168892Y-97066277D01*
X112894631Y-96655817D01*
X112484171Y-96381556D01*
X112000000Y-96285248D01*
X111515829Y-96381556D01*
X111105369Y-96655817D01*
X110831108Y-97066277D01*
X110781666Y-97314838D01*
X110672680Y-96948428D01*
X110335540Y-96533055D01*
X109865107Y-96278318D01*
X109798075Y-96265522D01*
X109587000Y-96361306D01*
X109333000Y-96361306D01*
X109121925Y-96265522D01*
X109054893Y-96278318D01*
X108584460Y-96533055D01*
X108247320Y-96948428D01*
X108094800Y-97461200D01*
X103037448Y-97461200D01*
X102958892Y-97066277D01*
X102684631Y-96655817D01*
X102274171Y-96381556D01*
X101790000Y-96285248D01*
X101305829Y-96381556D01*
X100895369Y-96655817D01*
X100621108Y-97066277D01*
X100524800Y-97550448D01*
X100515200Y-97550448D01*
X100418892Y-97066277D01*
X100144631Y-96655817D01*
X99734171Y-96381556D01*
X99250000Y-96285248D01*
X98765829Y-96381556D01*
X98355369Y-96655817D01*
X98081108Y-97066277D01*
X98031666Y-97314838D01*
X97922680Y-96948428D01*
X97585540Y-96533055D01*
X97115107Y-96278318D01*
X97048075Y-96265522D01*
X96837000Y-96361306D01*
X96583000Y-96361306D01*
X96371925Y-96265522D01*
X96304893Y-96278318D01*
X95834460Y-96533055D01*
X95497320Y-96948428D01*
X95344800Y-97461200D01*
X90287448Y-97461200D01*
X90208892Y-97066277D01*
X89934631Y-96655817D01*
X89524171Y-96381556D01*
X89040000Y-96285248D01*
X88555829Y-96381556D01*
X88145369Y-96655817D01*
X87871108Y-97066277D01*
X87774800Y-97550448D01*
X87765200Y-97550448D01*
X87668892Y-97066277D01*
X87394631Y-96655817D01*
X86984171Y-96381556D01*
X86500000Y-96285248D01*
X86015829Y-96381556D01*
X85605369Y-96655817D01*
X85331108Y-97066277D01*
X85281666Y-97314838D01*
X85172680Y-96948428D01*
X84835540Y-96533055D01*
X84365107Y-96278318D01*
X84298075Y-96265522D01*
X84087000Y-96361306D01*
X83833000Y-96361306D01*
X83621925Y-96265522D01*
X83554893Y-96278318D01*
X83084460Y-96533055D01*
X82747320Y-96948428D01*
X82594800Y-97461200D01*
X80792009Y-97461200D01*
X80792009Y-93285365D01*
X83600000Y-93285365D01*
X83758237Y-93255591D01*
X83903567Y-93162073D01*
X84001064Y-93019381D01*
X84035365Y-92850000D01*
X84035365Y-89650000D01*
X88964635Y-89650000D01*
X88964635Y-92850000D01*
X88994409Y-93008237D01*
X89087927Y-93153567D01*
X89230619Y-93251064D01*
X89400000Y-93285365D01*
X92600000Y-93285365D01*
X92758237Y-93255591D01*
X92876174Y-93179700D01*
X92980619Y-93251064D01*
X93150000Y-93285365D01*
X96350000Y-93285365D01*
X96508237Y-93255591D01*
X96653567Y-93162073D01*
X96751064Y-93019381D01*
X96785365Y-92850000D01*
X96785365Y-89650000D01*
X101714635Y-89650000D01*
X101714635Y-92850000D01*
X101744409Y-93008237D01*
X101837927Y-93153567D01*
X101980619Y-93251064D01*
X102150000Y-93285365D01*
X105350000Y-93285365D01*
X105508237Y-93255591D01*
X105626174Y-93179700D01*
X105730619Y-93251064D01*
X105900000Y-93285365D01*
X109100000Y-93285365D01*
X109258237Y-93255591D01*
X109403567Y-93162073D01*
X109501064Y-93019381D01*
X109535365Y-92850000D01*
X109535365Y-89650000D01*
X109505591Y-89491763D01*
X109412073Y-89346433D01*
X109269381Y-89248936D01*
X109100000Y-89214635D01*
X105900000Y-89214635D01*
X105741763Y-89244409D01*
X105623826Y-89320300D01*
X105519381Y-89248936D01*
X105350000Y-89214635D01*
X102150000Y-89214635D01*
X101991763Y-89244409D01*
X101846433Y-89337927D01*
X101748936Y-89480619D01*
X101714635Y-89650000D01*
X96785365Y-89650000D01*
X96755591Y-89491763D01*
X96662073Y-89346433D01*
X96519381Y-89248936D01*
X96350000Y-89214635D01*
X93150000Y-89214635D01*
X92991763Y-89244409D01*
X92873826Y-89320300D01*
X92769381Y-89248936D01*
X92600000Y-89214635D01*
X89400000Y-89214635D01*
X89241763Y-89244409D01*
X89096433Y-89337927D01*
X88998936Y-89480619D01*
X88964635Y-89650000D01*
X84035365Y-89650000D01*
X84005591Y-89491763D01*
X83912073Y-89346433D01*
X83769381Y-89248936D01*
X83600000Y-89214635D01*
X80792009Y-89214635D01*
X80792009Y-82434073D01*
X93322883Y-82434073D01*
X93425733Y-82682989D01*
X93473000Y-82730338D01*
X93473000Y-84744617D01*
X93423118Y-84864746D01*
X93422883Y-85134073D01*
X93525733Y-85382989D01*
X93716010Y-85573598D01*
X93964746Y-85676882D01*
X94234073Y-85677117D01*
X94482989Y-85574267D01*
X94673598Y-85383990D01*
X94776882Y-85135254D01*
X94777117Y-84865927D01*
X94674267Y-84617011D01*
X94527000Y-84469487D01*
X94527000Y-82730507D01*
X94573598Y-82683990D01*
X94676882Y-82435254D01*
X94677117Y-82165927D01*
X94574267Y-81917011D01*
X94383990Y-81726402D01*
X94135254Y-81623118D01*
X93865927Y-81622883D01*
X93617011Y-81725733D01*
X93426402Y-81916010D01*
X93323118Y-82164746D01*
X93322883Y-82434073D01*
X80792009Y-82434073D01*
X80792009Y-78434073D01*
X104522883Y-78434073D01*
X104625733Y-78682989D01*
X104816010Y-78873598D01*
X105064746Y-78976882D01*
X105334073Y-78977117D01*
X105582989Y-78874267D01*
X105630338Y-78827000D01*
X107669493Y-78827000D01*
X107716010Y-78873598D01*
X107964746Y-78976882D01*
X108234073Y-78977117D01*
X108482989Y-78874267D01*
X108673598Y-78683990D01*
X108776882Y-78435254D01*
X108777117Y-78165927D01*
X108674267Y-77917011D01*
X108483990Y-77726402D01*
X108235254Y-77623118D01*
X107965927Y-77622883D01*
X107717011Y-77725733D01*
X107669662Y-77773000D01*
X105630507Y-77773000D01*
X105583990Y-77726402D01*
X105335254Y-77623118D01*
X105065927Y-77622883D01*
X104817011Y-77725733D01*
X104626402Y-77916010D01*
X104523118Y-78164746D01*
X104522883Y-78434073D01*
X80792009Y-78434073D01*
X80792009Y-73634073D01*
X104422883Y-73634073D01*
X104525733Y-73882989D01*
X104716010Y-74073598D01*
X104964746Y-74176882D01*
X105234073Y-74177117D01*
X105482989Y-74074267D01*
X105673598Y-73883990D01*
X105776882Y-73635254D01*
X105776940Y-73568350D01*
X106218290Y-73127000D01*
X111144617Y-73127000D01*
X111264746Y-73176882D01*
X111534073Y-73177117D01*
X111782989Y-73074267D01*
X111973598Y-72883990D01*
X112076882Y-72635254D01*
X112077117Y-72365927D01*
X111974267Y-72117011D01*
X111783990Y-71926402D01*
X111535254Y-71823118D01*
X111265927Y-71822883D01*
X111017011Y-71925733D01*
X110869487Y-72073000D01*
X106000000Y-72073000D01*
X105831785Y-72106460D01*
X105798325Y-72113115D01*
X105627355Y-72227355D01*
X105031770Y-72822940D01*
X104965927Y-72822883D01*
X104717011Y-72925733D01*
X104526402Y-73116010D01*
X104423118Y-73364746D01*
X104422883Y-73634073D01*
X80792009Y-73634073D01*
X80792009Y-70834073D01*
X84222883Y-70834073D01*
X84325733Y-71082989D01*
X84516010Y-71273598D01*
X84764746Y-71376882D01*
X85034073Y-71377117D01*
X85282989Y-71274267D01*
X85473598Y-71083990D01*
X85497262Y-71027000D01*
X88180315Y-71027000D01*
X88123118Y-71164746D01*
X88122883Y-71434073D01*
X88225733Y-71682989D01*
X88416010Y-71873598D01*
X88664746Y-71976882D01*
X88934073Y-71977117D01*
X89182989Y-71874267D01*
X89230338Y-71827000D01*
X96369493Y-71827000D01*
X96416010Y-71873598D01*
X96664746Y-71976882D01*
X96934073Y-71977117D01*
X97182989Y-71874267D01*
X97373598Y-71683990D01*
X97476882Y-71435254D01*
X97477117Y-71165927D01*
X97374267Y-70917011D01*
X97183990Y-70726402D01*
X96935254Y-70623118D01*
X96776893Y-70622980D01*
X96777117Y-70365927D01*
X96674267Y-70117011D01*
X96483990Y-69926402D01*
X96235254Y-69823118D01*
X95965927Y-69822883D01*
X95717011Y-69925733D01*
X95669662Y-69973000D01*
X85100000Y-69973000D01*
X84898326Y-70013115D01*
X84883554Y-70022986D01*
X84765927Y-70022883D01*
X84517011Y-70125733D01*
X84326402Y-70316010D01*
X84223118Y-70564746D01*
X84222883Y-70834073D01*
X80792009Y-70834073D01*
X80792009Y-68734073D01*
X106022883Y-68734073D01*
X106125733Y-68982989D01*
X106173000Y-69030338D01*
X106173000Y-69200000D01*
X106213115Y-69401675D01*
X106327355Y-69572645D01*
X106822940Y-70068230D01*
X106822883Y-70134073D01*
X106925733Y-70382989D01*
X107116010Y-70573598D01*
X107364746Y-70676882D01*
X107634073Y-70677117D01*
X107882989Y-70574267D01*
X108073598Y-70383990D01*
X108176882Y-70135254D01*
X108177117Y-69865927D01*
X108074267Y-69617011D01*
X107883990Y-69426402D01*
X107635254Y-69323118D01*
X107568350Y-69323060D01*
X107251420Y-69006130D01*
X107273598Y-68983990D01*
X107376882Y-68735254D01*
X107377117Y-68465927D01*
X107274267Y-68217011D01*
X107083990Y-68026402D01*
X106835254Y-67923118D01*
X106565927Y-67922883D01*
X106317011Y-68025733D01*
X106126402Y-68216010D01*
X106023118Y-68464746D01*
X106022883Y-68734073D01*
X80792009Y-68734073D01*
X80792009Y-61428682D01*
X80822406Y-61428682D01*
X81343037Y-62688704D01*
X82306226Y-63653575D01*
X83565337Y-64176404D01*
X84928682Y-64177594D01*
X86188704Y-63656963D01*
X87153575Y-62693774D01*
X87676404Y-61434663D01*
X87676409Y-61428682D01*
X110822406Y-61428682D01*
X111343037Y-62688704D01*
X112306226Y-63653575D01*
X113565337Y-64176404D01*
X114928682Y-64177594D01*
X116188704Y-63656963D01*
X117153575Y-62693774D01*
X117676404Y-61434663D01*
X117677594Y-60071318D01*
X117156963Y-58811296D01*
X116193774Y-57846425D01*
X114934663Y-57323596D01*
X113571318Y-57322406D01*
X112311296Y-57843037D01*
X111346425Y-58806226D01*
X110823596Y-60065337D01*
X110822406Y-61428682D01*
X87676409Y-61428682D01*
X87677594Y-60071318D01*
X87156963Y-58811296D01*
X86193774Y-57846425D01*
X84934663Y-57323596D01*
X83571318Y-57322406D01*
X82311296Y-57843037D01*
X81346425Y-58806226D01*
X80823596Y-60065337D01*
X80822406Y-61428682D01*
X80792009Y-61428682D01*
X80792009Y-47461259D01*
X80806332Y-47318321D01*
X80839932Y-47209621D01*
X80893104Y-47111418D01*
X80963795Y-47025670D01*
X81049581Y-46954947D01*
X81147779Y-46901755D01*
X81256473Y-46868164D01*
X81399417Y-46853820D01*
X117143624Y-46853820D01*
X117286569Y-46868164D01*
M02*
