%TF.GenerationSoftware,KiCad,Pcbnew,4.0.7-e2-6376~58~ubuntu16.04.1*%
%TF.CreationDate,2018-10-07T23:02:28+08:00*%
%TF.ProjectId,DVDBreakOut,445644427265616B4F75742E6B696361,rev?*%
%TF.FileFunction,Paste,Top*%
%FSLAX46Y46*%
G04 Gerber Fmt 4.6, Leading zero omitted, Abs format (unit mm)*
G04 Created by KiCad (PCBNEW 4.0.7-e2-6376~58~ubuntu16.04.1) date Sun Oct  7 23:02:28 2018*
%MOMM*%
%LPD*%
G01*
G04 APERTURE LIST*
%ADD10C,0.100000*%
%ADD11R,0.508000X1.620000*%
%ADD12R,0.580000X1.620000*%
%ADD13R,1.651000X3.048000*%
%ADD14R,6.096000X6.096000*%
%ADD15R,0.660400X2.032000*%
%ADD16R,3.000000X3.000000*%
%ADD17R,1.250000X1.000000*%
%ADD18R,1.000000X1.250000*%
G04 APERTURE END LIST*
D10*
D11*
X87305000Y-75190000D03*
X88575000Y-75190000D03*
X89845000Y-75190000D03*
X91115000Y-75190000D03*
X92385000Y-75190000D03*
X93655000Y-75190000D03*
X94925000Y-75190000D03*
X96195000Y-75190000D03*
X96195000Y-65810000D03*
X94925000Y-65810000D03*
X93655000Y-65810000D03*
X92385000Y-65810000D03*
X91115000Y-65810000D03*
X89845000Y-65810000D03*
X88575000Y-65810000D03*
D12*
X87305000Y-65810000D03*
D13*
X102054000Y-66660000D03*
D14*
X104340000Y-60310000D03*
D13*
X106626000Y-66660000D03*
D15*
X102595000Y-81073400D03*
X103865000Y-81073400D03*
X105135000Y-81073400D03*
X106405000Y-81073400D03*
X106405000Y-74926600D03*
X105135000Y-74926600D03*
X103865000Y-74926600D03*
X102595000Y-74926600D03*
D16*
X116610000Y-73160000D03*
X97000000Y-53000000D03*
X116610000Y-78240000D03*
X91250000Y-53000000D03*
X107000000Y-53000000D03*
X91250000Y-48000000D03*
X97000000Y-48000000D03*
X107250000Y-48000000D03*
D17*
X88500000Y-81250000D03*
X88500000Y-79250000D03*
X110000000Y-71250000D03*
X110000000Y-69250000D03*
X112000000Y-76500000D03*
X112000000Y-74500000D03*
X109250000Y-74500000D03*
X109250000Y-76500000D03*
X90500000Y-62000000D03*
X90500000Y-60000000D03*
X94000000Y-79250000D03*
X94000000Y-81250000D03*
X91250000Y-81250000D03*
X91250000Y-79250000D03*
X93250000Y-60000000D03*
X93250000Y-62000000D03*
X110250000Y-81250000D03*
X110250000Y-79250000D03*
X99000000Y-81250000D03*
X99000000Y-79250000D03*
D18*
X103250000Y-71000000D03*
X101250000Y-71000000D03*
D17*
X110000000Y-64500000D03*
X110000000Y-66500000D03*
D18*
X107500000Y-71000000D03*
X105500000Y-71000000D03*
D16*
X82000000Y-75750000D03*
M02*
