%TF.GenerationSoftware,KiCad,Pcbnew,4.0.7-e2-6376~58~ubuntu16.04.1*%
%TF.CreationDate,2018-10-07T23:02:28+08:00*%
%TF.ProjectId,DVDBreakOut,445644427265616B4F75742E6B696361,rev?*%
%TF.FileFunction,Legend,Top*%
%FSLAX46Y46*%
G04 Gerber Fmt 4.6, Leading zero omitted, Abs format (unit mm)*
G04 Created by KiCad (PCBNEW 4.0.7-e2-6376~58~ubuntu16.04.1) date Sun Oct  7 23:02:28 2018*
%MOMM*%
%LPD*%
G01*
G04 APERTURE LIST*
%ADD10C,0.100000*%
%ADD11C,0.200000*%
%ADD12C,0.150000*%
%ADD13C,0.010000*%
G04 APERTURE END LIST*
D10*
D11*
X82214287Y-73842857D02*
X81814287Y-73271429D01*
X81528572Y-73842857D02*
X81528572Y-72642857D01*
X81985715Y-72642857D01*
X82100001Y-72700000D01*
X82157144Y-72757143D01*
X82214287Y-72871429D01*
X82214287Y-73042857D01*
X82157144Y-73157143D01*
X82100001Y-73214286D01*
X81985715Y-73271429D01*
X81528572Y-73271429D01*
X82728572Y-73214286D02*
X83128572Y-73214286D01*
X83300001Y-73842857D02*
X82728572Y-73842857D01*
X82728572Y-72642857D01*
X83300001Y-72642857D01*
X84214286Y-73214286D02*
X83814286Y-73214286D01*
X83814286Y-73842857D02*
X83814286Y-72642857D01*
X84385715Y-72642857D01*
X108957143Y-53085714D02*
X109871429Y-53085714D01*
X109414286Y-53542857D02*
X109414286Y-52628571D01*
X111014286Y-52342857D02*
X110442857Y-52342857D01*
X110385714Y-52914286D01*
X110442857Y-52857143D01*
X110557143Y-52800000D01*
X110842857Y-52800000D01*
X110957143Y-52857143D01*
X111014286Y-52914286D01*
X111071429Y-53028571D01*
X111071429Y-53314286D01*
X111014286Y-53428571D01*
X110957143Y-53485714D01*
X110842857Y-53542857D01*
X110557143Y-53542857D01*
X110442857Y-53485714D01*
X110385714Y-53428571D01*
X111414286Y-52342857D02*
X111814286Y-53542857D01*
X112214286Y-52342857D01*
X86914287Y-53642857D02*
X86514287Y-53071429D01*
X86228572Y-53642857D02*
X86228572Y-52442857D01*
X86685715Y-52442857D01*
X86800001Y-52500000D01*
X86857144Y-52557143D01*
X86914287Y-52671429D01*
X86914287Y-52842857D01*
X86857144Y-52957143D01*
X86800001Y-53014286D01*
X86685715Y-53071429D01*
X86228572Y-53071429D01*
X87428572Y-53014286D02*
X87828572Y-53014286D01*
X88000001Y-53642857D02*
X87428572Y-53642857D01*
X87428572Y-52442857D01*
X88000001Y-52442857D01*
X88914286Y-53014286D02*
X88514286Y-53014286D01*
X88514286Y-53642857D02*
X88514286Y-52442857D01*
X89085715Y-52442857D01*
X110142858Y-101642857D02*
X109571429Y-101642857D01*
X109571429Y-100442857D01*
X110485715Y-101300000D02*
X111057144Y-101300000D01*
X110371430Y-101642857D02*
X110771430Y-100442857D01*
X111171430Y-101642857D01*
X111514286Y-101585714D02*
X111685715Y-101642857D01*
X111971429Y-101642857D01*
X112085715Y-101585714D01*
X112142858Y-101528571D01*
X112200001Y-101414286D01*
X112200001Y-101300000D01*
X112142858Y-101185714D01*
X112085715Y-101128571D01*
X111971429Y-101071429D01*
X111742858Y-101014286D01*
X111628572Y-100957143D01*
X111571429Y-100900000D01*
X111514286Y-100785714D01*
X111514286Y-100671429D01*
X111571429Y-100557143D01*
X111628572Y-100500000D01*
X111742858Y-100442857D01*
X112028572Y-100442857D01*
X112200001Y-100500000D01*
X112714286Y-101014286D02*
X113114286Y-101014286D01*
X113285715Y-101642857D02*
X112714286Y-101642857D01*
X112714286Y-100442857D01*
X113285715Y-100442857D01*
X114485715Y-101642857D02*
X114085715Y-101071429D01*
X113800000Y-101642857D02*
X113800000Y-100442857D01*
X114257143Y-100442857D01*
X114371429Y-100500000D01*
X114428572Y-100557143D01*
X114485715Y-100671429D01*
X114485715Y-100842857D01*
X114428572Y-100957143D01*
X114371429Y-101014286D01*
X114257143Y-101071429D01*
X113800000Y-101071429D01*
X97528572Y-100442857D02*
X97757143Y-100442857D01*
X97871429Y-100500000D01*
X97985715Y-100614286D01*
X98042857Y-100842857D01*
X98042857Y-101242857D01*
X97985715Y-101471429D01*
X97871429Y-101585714D01*
X97757143Y-101642857D01*
X97528572Y-101642857D01*
X97414286Y-101585714D01*
X97300000Y-101471429D01*
X97242857Y-101242857D01*
X97242857Y-100842857D01*
X97300000Y-100614286D01*
X97414286Y-100500000D01*
X97528572Y-100442857D01*
X98557143Y-100442857D02*
X98557143Y-101414286D01*
X98614286Y-101528571D01*
X98671429Y-101585714D01*
X98785715Y-101642857D01*
X99014286Y-101642857D01*
X99128572Y-101585714D01*
X99185715Y-101528571D01*
X99242858Y-101414286D01*
X99242858Y-100442857D01*
X99642858Y-100442857D02*
X100328572Y-100442857D01*
X99985715Y-101642857D02*
X99985715Y-100442857D01*
X100671429Y-100557143D02*
X100728572Y-100500000D01*
X100842858Y-100442857D01*
X101128572Y-100442857D01*
X101242858Y-100500000D01*
X101300001Y-100557143D01*
X101357144Y-100671429D01*
X101357144Y-100785714D01*
X101300001Y-100957143D01*
X100614287Y-101642857D01*
X101357144Y-101642857D01*
X84828572Y-100442857D02*
X85057143Y-100442857D01*
X85171429Y-100500000D01*
X85285715Y-100614286D01*
X85342857Y-100842857D01*
X85342857Y-101242857D01*
X85285715Y-101471429D01*
X85171429Y-101585714D01*
X85057143Y-101642857D01*
X84828572Y-101642857D01*
X84714286Y-101585714D01*
X84600000Y-101471429D01*
X84542857Y-101242857D01*
X84542857Y-100842857D01*
X84600000Y-100614286D01*
X84714286Y-100500000D01*
X84828572Y-100442857D01*
X85857143Y-100442857D02*
X85857143Y-101414286D01*
X85914286Y-101528571D01*
X85971429Y-101585714D01*
X86085715Y-101642857D01*
X86314286Y-101642857D01*
X86428572Y-101585714D01*
X86485715Y-101528571D01*
X86542858Y-101414286D01*
X86542858Y-100442857D01*
X86942858Y-100442857D02*
X87628572Y-100442857D01*
X87285715Y-101642857D02*
X87285715Y-100442857D01*
X88657144Y-101642857D02*
X87971429Y-101642857D01*
X88314287Y-101642857D02*
X88314287Y-100442857D01*
X88200001Y-100614286D01*
X88085715Y-100728571D01*
X87971429Y-100785714D01*
X114285715Y-81700000D02*
X114171429Y-81642857D01*
X114000000Y-81642857D01*
X113828572Y-81700000D01*
X113714286Y-81814286D01*
X113657143Y-81928571D01*
X113600000Y-82157143D01*
X113600000Y-82328571D01*
X113657143Y-82557143D01*
X113714286Y-82671429D01*
X113828572Y-82785714D01*
X114000000Y-82842857D01*
X114114286Y-82842857D01*
X114285715Y-82785714D01*
X114342858Y-82728571D01*
X114342858Y-82328571D01*
X114114286Y-82328571D01*
X114857143Y-82842857D02*
X114857143Y-81642857D01*
X115542858Y-82842857D01*
X115542858Y-81642857D01*
X116114286Y-82842857D02*
X116114286Y-81642857D01*
X116400001Y-81642857D01*
X116571429Y-81700000D01*
X116685715Y-81814286D01*
X116742858Y-81928571D01*
X116800001Y-82157143D01*
X116800001Y-82328571D01*
X116742858Y-82557143D01*
X116685715Y-82671429D01*
X116571429Y-82785714D01*
X116400001Y-82842857D01*
X116114286Y-82842857D01*
X113657143Y-70085714D02*
X114571429Y-70085714D01*
X114114286Y-70542857D02*
X114114286Y-69628571D01*
X115714286Y-69342857D02*
X115142857Y-69342857D01*
X115085714Y-69914286D01*
X115142857Y-69857143D01*
X115257143Y-69800000D01*
X115542857Y-69800000D01*
X115657143Y-69857143D01*
X115714286Y-69914286D01*
X115771429Y-70028571D01*
X115771429Y-70314286D01*
X115714286Y-70428571D01*
X115657143Y-70485714D01*
X115542857Y-70542857D01*
X115257143Y-70542857D01*
X115142857Y-70485714D01*
X115085714Y-70428571D01*
X116114286Y-69342857D02*
X116514286Y-70542857D01*
X116914286Y-69342857D01*
X109942858Y-49042857D02*
X109371429Y-49042857D01*
X109371429Y-47842857D01*
X110285715Y-48700000D02*
X110857144Y-48700000D01*
X110171430Y-49042857D02*
X110571430Y-47842857D01*
X110971430Y-49042857D01*
X111314286Y-48985714D02*
X111485715Y-49042857D01*
X111771429Y-49042857D01*
X111885715Y-48985714D01*
X111942858Y-48928571D01*
X112000001Y-48814286D01*
X112000001Y-48700000D01*
X111942858Y-48585714D01*
X111885715Y-48528571D01*
X111771429Y-48471429D01*
X111542858Y-48414286D01*
X111428572Y-48357143D01*
X111371429Y-48300000D01*
X111314286Y-48185714D01*
X111314286Y-48071429D01*
X111371429Y-47957143D01*
X111428572Y-47900000D01*
X111542858Y-47842857D01*
X111828572Y-47842857D01*
X112000001Y-47900000D01*
X112514286Y-48414286D02*
X112914286Y-48414286D01*
X113085715Y-49042857D02*
X112514286Y-49042857D01*
X112514286Y-47842857D01*
X113085715Y-47842857D01*
X114285715Y-49042857D02*
X113885715Y-48471429D01*
X113600000Y-49042857D02*
X113600000Y-47842857D01*
X114057143Y-47842857D01*
X114171429Y-47900000D01*
X114228572Y-47957143D01*
X114285715Y-48071429D01*
X114285715Y-48242857D01*
X114228572Y-48357143D01*
X114171429Y-48414286D01*
X114057143Y-48471429D01*
X113600000Y-48471429D01*
X100142857Y-51871428D02*
X100142857Y-51642857D01*
X100200000Y-51528571D01*
X100314286Y-51414285D01*
X100542857Y-51357143D01*
X100942857Y-51357143D01*
X101171429Y-51414285D01*
X101285714Y-51528571D01*
X101342857Y-51642857D01*
X101342857Y-51871428D01*
X101285714Y-51985714D01*
X101171429Y-52100000D01*
X100942857Y-52157143D01*
X100542857Y-52157143D01*
X100314286Y-52100000D01*
X100200000Y-51985714D01*
X100142857Y-51871428D01*
X100142857Y-50842857D02*
X101114286Y-50842857D01*
X101228571Y-50785714D01*
X101285714Y-50728571D01*
X101342857Y-50614285D01*
X101342857Y-50385714D01*
X101285714Y-50271428D01*
X101228571Y-50214285D01*
X101114286Y-50157142D01*
X100142857Y-50157142D01*
X100142857Y-49757142D02*
X100142857Y-49071428D01*
X101342857Y-49414285D02*
X100142857Y-49414285D01*
X100257143Y-48728571D02*
X100200000Y-48671428D01*
X100142857Y-48557142D01*
X100142857Y-48271428D01*
X100200000Y-48157142D01*
X100257143Y-48099999D01*
X100371429Y-48042856D01*
X100485714Y-48042856D01*
X100657143Y-48099999D01*
X101342857Y-48785713D01*
X101342857Y-48042856D01*
X85428572Y-47742857D02*
X85657143Y-47742857D01*
X85771429Y-47800000D01*
X85885715Y-47914286D01*
X85942857Y-48142857D01*
X85942857Y-48542857D01*
X85885715Y-48771429D01*
X85771429Y-48885714D01*
X85657143Y-48942857D01*
X85428572Y-48942857D01*
X85314286Y-48885714D01*
X85200000Y-48771429D01*
X85142857Y-48542857D01*
X85142857Y-48142857D01*
X85200000Y-47914286D01*
X85314286Y-47800000D01*
X85428572Y-47742857D01*
X86457143Y-47742857D02*
X86457143Y-48714286D01*
X86514286Y-48828571D01*
X86571429Y-48885714D01*
X86685715Y-48942857D01*
X86914286Y-48942857D01*
X87028572Y-48885714D01*
X87085715Y-48828571D01*
X87142858Y-48714286D01*
X87142858Y-47742857D01*
X87542858Y-47742857D02*
X88228572Y-47742857D01*
X87885715Y-48942857D02*
X87885715Y-47742857D01*
X89257144Y-48942857D02*
X88571429Y-48942857D01*
X88914287Y-48942857D02*
X88914287Y-47742857D01*
X88800001Y-47914286D01*
X88685715Y-48028571D01*
X88571429Y-48085714D01*
D12*
X86289000Y-74437000D02*
X86289000Y-66563000D01*
X97211000Y-66563000D02*
X97211000Y-74437000D01*
X86289000Y-66563000D02*
X97211000Y-66563000D01*
X97211000Y-74437000D02*
X86289000Y-74437000D01*
X86289000Y-69992000D02*
X87051000Y-69992000D01*
X87051000Y-69992000D02*
X87051000Y-71008000D01*
X87051000Y-71008000D02*
X86289000Y-71008000D01*
X105737000Y-65136000D02*
X105737000Y-68311000D01*
X105737000Y-68311000D02*
X107515000Y-68311000D01*
X107515000Y-68311000D02*
X107515000Y-65136000D01*
X101165000Y-65136000D02*
X101165000Y-68311000D01*
X101165000Y-68311000D02*
X102943000Y-68311000D01*
X102943000Y-68311000D02*
X102943000Y-65136000D01*
X107769000Y-59040000D02*
X107769000Y-65136000D01*
X107769000Y-65136000D02*
X100911000Y-65136000D01*
X100911000Y-65136000D02*
X100911000Y-57262000D01*
X100911000Y-57135000D02*
X107769000Y-57135000D01*
X107769000Y-57262000D02*
X107769000Y-59040000D01*
X106659000Y-76730000D02*
G75*
G03X106659000Y-76730000I-254000J0D01*
G01*
X107040000Y-79955800D02*
X107040000Y-76044200D01*
X101960000Y-79955800D02*
X101960000Y-76044200D01*
X107040000Y-79955800D02*
X101960000Y-79955800D01*
X101960000Y-76044200D02*
X107040000Y-76044200D01*
X87650000Y-79750000D02*
X87650000Y-80750000D01*
X89350000Y-80750000D02*
X89350000Y-79750000D01*
X109150000Y-69750000D02*
X109150000Y-70750000D01*
X110850000Y-70750000D02*
X110850000Y-69750000D01*
X111150000Y-75000000D02*
X111150000Y-76000000D01*
X112850000Y-76000000D02*
X112850000Y-75000000D01*
X110100000Y-76000000D02*
X110100000Y-75000000D01*
X108400000Y-75000000D02*
X108400000Y-76000000D01*
X89650000Y-60500000D02*
X89650000Y-61500000D01*
X91350000Y-61500000D02*
X91350000Y-60500000D01*
X94850000Y-80750000D02*
X94850000Y-79750000D01*
X93150000Y-79750000D02*
X93150000Y-80750000D01*
X90400000Y-79750000D02*
X90400000Y-80750000D01*
X92100000Y-80750000D02*
X92100000Y-79750000D01*
X94100000Y-61500000D02*
X94100000Y-60500000D01*
X92400000Y-60500000D02*
X92400000Y-61500000D01*
X109400000Y-79750000D02*
X109400000Y-80750000D01*
X111100000Y-80750000D02*
X111100000Y-79750000D01*
X98150000Y-79750000D02*
X98150000Y-80750000D01*
X99850000Y-80750000D02*
X99850000Y-79750000D01*
X101750000Y-71850000D02*
X102750000Y-71850000D01*
X102750000Y-70150000D02*
X101750000Y-70150000D01*
X110850000Y-66000000D02*
X110850000Y-65000000D01*
X109150000Y-65000000D02*
X109150000Y-66000000D01*
X106000000Y-71850000D02*
X107000000Y-71850000D01*
X107000000Y-70150000D02*
X106000000Y-70150000D01*
D13*
G36*
X100680293Y-46380841D02*
X102078292Y-46380869D01*
X103396370Y-46380930D01*
X104636899Y-46381033D01*
X105802252Y-46381187D01*
X106894801Y-46381404D01*
X107916920Y-46381693D01*
X108870980Y-46382065D01*
X109759355Y-46382530D01*
X110584417Y-46383097D01*
X111348539Y-46383778D01*
X112054093Y-46384582D01*
X112703452Y-46385519D01*
X113298989Y-46386601D01*
X113843077Y-46387836D01*
X114338087Y-46389235D01*
X114786393Y-46390808D01*
X115190368Y-46392566D01*
X115552383Y-46394518D01*
X115874812Y-46396675D01*
X116160027Y-46399047D01*
X116410401Y-46401644D01*
X116628306Y-46404476D01*
X116816116Y-46407554D01*
X116976203Y-46410888D01*
X117110939Y-46414487D01*
X117222697Y-46418362D01*
X117313849Y-46422524D01*
X117386770Y-46426981D01*
X117443830Y-46431746D01*
X117487403Y-46436827D01*
X117519861Y-46442235D01*
X117543577Y-46447980D01*
X117560924Y-46454072D01*
X117572667Y-46459656D01*
X117801011Y-46618520D01*
X117997929Y-46825788D01*
X118094960Y-46973500D01*
X118186500Y-47142833D01*
X118186500Y-102557167D01*
X118094960Y-102726500D01*
X117936248Y-102948431D01*
X117725002Y-103142724D01*
X117572667Y-103240344D01*
X117558887Y-103246758D01*
X117540757Y-103252816D01*
X117515901Y-103258531D01*
X117481941Y-103263912D01*
X117436502Y-103268971D01*
X117377206Y-103273720D01*
X117301676Y-103278169D01*
X117207537Y-103282329D01*
X117092410Y-103286212D01*
X116953919Y-103289829D01*
X116789688Y-103293191D01*
X116597340Y-103296308D01*
X116374497Y-103299194D01*
X116118784Y-103301857D01*
X115827823Y-103304310D01*
X115499237Y-103306564D01*
X115130651Y-103308629D01*
X114719686Y-103310517D01*
X114263967Y-103312240D01*
X113761116Y-103313808D01*
X113208757Y-103315232D01*
X112604513Y-103316523D01*
X111946007Y-103317694D01*
X111230863Y-103318754D01*
X110456703Y-103319715D01*
X109621151Y-103320589D01*
X108721830Y-103321385D01*
X107756364Y-103322116D01*
X106722375Y-103322793D01*
X105617487Y-103323426D01*
X104439323Y-103324028D01*
X103185506Y-103324608D01*
X101853660Y-103325178D01*
X100441407Y-103325750D01*
X99263500Y-103326211D01*
X98027154Y-103326616D01*
X96811910Y-103326866D01*
X95620525Y-103326966D01*
X94455757Y-103326918D01*
X93320364Y-103326727D01*
X92217103Y-103326397D01*
X91148733Y-103325932D01*
X90118011Y-103325334D01*
X89127694Y-103324609D01*
X88180541Y-103323760D01*
X87279308Y-103322791D01*
X86426755Y-103321705D01*
X85625637Y-103320507D01*
X84878714Y-103319200D01*
X84188743Y-103317788D01*
X83558482Y-103316275D01*
X82990688Y-103314664D01*
X82488119Y-103312961D01*
X82053532Y-103311167D01*
X81689686Y-103309288D01*
X81399339Y-103307327D01*
X81185247Y-103305288D01*
X81050169Y-103303175D01*
X80996862Y-103300991D01*
X80996393Y-103300880D01*
X80726265Y-103175715D01*
X80491055Y-102981398D01*
X80306502Y-102731243D01*
X80292323Y-102705333D01*
X80287103Y-102693965D01*
X80282119Y-102678652D01*
X80277365Y-102657475D01*
X80272836Y-102628517D01*
X80268526Y-102589857D01*
X80264429Y-102539578D01*
X80260541Y-102475759D01*
X80256856Y-102396482D01*
X80253368Y-102299828D01*
X80250072Y-102183878D01*
X80246963Y-102046712D01*
X80244035Y-101886413D01*
X80241283Y-101701061D01*
X80238701Y-101488737D01*
X80236284Y-101247523D01*
X80234026Y-100975498D01*
X80231922Y-100670745D01*
X80229967Y-100331343D01*
X80228155Y-99955375D01*
X80226481Y-99540922D01*
X80224939Y-99086064D01*
X80223525Y-98588882D01*
X80222943Y-98345000D01*
X81250667Y-98345000D01*
X81250667Y-102282000D01*
X117149334Y-102282000D01*
X117149334Y-98345000D01*
X106312000Y-98345000D01*
X106312000Y-91804500D01*
X106311889Y-90909365D01*
X106311535Y-90095418D01*
X106310911Y-89359183D01*
X106309986Y-88697181D01*
X106308733Y-88105934D01*
X106307121Y-87581965D01*
X106305122Y-87121795D01*
X106302706Y-86721948D01*
X106299846Y-86378946D01*
X106296511Y-86089310D01*
X106292674Y-85849564D01*
X106288304Y-85656228D01*
X106283372Y-85505826D01*
X106277851Y-85394880D01*
X106271710Y-85319913D01*
X106264920Y-85277445D01*
X106257454Y-85264000D01*
X106257425Y-85264000D01*
X106218013Y-85229081D01*
X106146747Y-85133097D01*
X106052506Y-84989205D01*
X105944169Y-84810563D01*
X105900311Y-84734833D01*
X105597771Y-84205667D01*
X105774969Y-84206300D01*
X105864465Y-84215814D01*
X105973845Y-84247410D01*
X106116376Y-84306571D01*
X106305326Y-84398779D01*
X106543304Y-84523800D01*
X107134441Y-84840667D01*
X108746167Y-84838471D01*
X108174667Y-84532652D01*
X107959175Y-84416425D01*
X107810913Y-84333282D01*
X107721926Y-84277376D01*
X107684260Y-84242856D01*
X107689961Y-84223874D01*
X107731074Y-84214580D01*
X107740750Y-84213568D01*
X107878334Y-84200302D01*
X107878334Y-83800818D01*
X107880532Y-83628631D01*
X107886439Y-83493705D01*
X107895021Y-83414489D01*
X107900707Y-83401333D01*
X107947068Y-83419032D01*
X108046982Y-83465408D01*
X108177457Y-83529742D01*
X108349032Y-83631537D01*
X108451655Y-83727006D01*
X108471536Y-83762575D01*
X108517833Y-83835962D01*
X108600251Y-83864356D01*
X108662524Y-83867000D01*
X108737127Y-83879047D01*
X108848610Y-83917525D01*
X109004576Y-83985941D01*
X109212631Y-84087799D01*
X109480380Y-84226606D01*
X109720675Y-84354772D01*
X110627540Y-84842544D01*
X111416515Y-84831022D01*
X112205489Y-84819500D01*
X111335094Y-84353833D01*
X110464698Y-83888167D01*
X111169926Y-83867000D01*
X111429289Y-83858745D01*
X111616371Y-83850688D01*
X111743527Y-83840911D01*
X111823115Y-83827496D01*
X111867494Y-83808526D01*
X111889021Y-83782084D01*
X111898160Y-83753995D01*
X111908878Y-83729888D01*
X111931689Y-83718543D01*
X111974603Y-83723501D01*
X112045630Y-83748305D01*
X112152779Y-83796500D01*
X112304060Y-83871626D01*
X112507483Y-83977227D01*
X112771058Y-84116845D01*
X113024922Y-84252373D01*
X114128677Y-84842590D01*
X115702915Y-84819500D01*
X114574041Y-84216602D01*
X113445167Y-83613703D01*
X114386464Y-83613352D01*
X115327761Y-83613000D01*
X116185631Y-84074416D01*
X116459657Y-84222076D01*
X116668219Y-84336080D01*
X116820432Y-84422854D01*
X116925411Y-84488820D01*
X116992271Y-84540403D01*
X117030128Y-84584027D01*
X117048096Y-84626114D01*
X117055291Y-84673090D01*
X117056639Y-84688249D01*
X117074976Y-84787919D01*
X117103416Y-84838929D01*
X117109556Y-84840667D01*
X117124499Y-84800423D01*
X117136612Y-84688000D01*
X117145085Y-84515864D01*
X117149113Y-84296477D01*
X117149334Y-84226833D01*
X117149334Y-83613000D01*
X117403334Y-83613000D01*
X117403334Y-81078624D01*
X117286917Y-81065228D01*
X117170500Y-81051833D01*
X117159741Y-76109417D01*
X117148982Y-71167000D01*
X117403334Y-71167000D01*
X117403334Y-68632624D01*
X117286917Y-68619228D01*
X117170500Y-68605833D01*
X117159834Y-58011916D01*
X117149167Y-47418000D01*
X115202000Y-47418000D01*
X115202000Y-54614667D01*
X112323334Y-54614667D01*
X112323334Y-54762833D01*
X112319522Y-54860836D01*
X112310153Y-54909745D01*
X112308185Y-54911000D01*
X112266138Y-54892858D01*
X112168714Y-54844869D01*
X112035420Y-54776687D01*
X112008775Y-54762833D01*
X111724515Y-54614666D01*
X110955007Y-54616013D01*
X110683339Y-54617057D01*
X110486527Y-54619719D01*
X110354763Y-54624932D01*
X110278240Y-54633629D01*
X110247151Y-54646745D01*
X110251686Y-54665211D01*
X110269985Y-54681202D01*
X110329925Y-54718378D01*
X110453366Y-54788846D01*
X110628953Y-54886340D01*
X110845331Y-55004597D01*
X111091142Y-55137351D01*
X111277925Y-55237298D01*
X112201379Y-55729551D01*
X111546035Y-56388761D01*
X111204434Y-56202841D01*
X111084710Y-56138063D01*
X110901914Y-56039662D01*
X110667670Y-55913872D01*
X110393604Y-55766927D01*
X110091341Y-55605062D01*
X109772507Y-55434511D01*
X109550500Y-55315866D01*
X108238167Y-54614811D01*
X107457117Y-54614739D01*
X107197201Y-54616616D01*
X106983482Y-54621967D01*
X106825909Y-54630289D01*
X106734431Y-54641083D01*
X106716283Y-54652030D01*
X106760174Y-54678457D01*
X106871892Y-54740978D01*
X107044552Y-54835857D01*
X107271266Y-54959360D01*
X107545150Y-55107754D01*
X107859316Y-55277304D01*
X108206877Y-55464276D01*
X108580948Y-55664935D01*
X108830834Y-55798681D01*
X109217880Y-56005889D01*
X109582553Y-56201559D01*
X109918005Y-56381988D01*
X110217391Y-56543472D01*
X110473865Y-56682309D01*
X110680581Y-56794796D01*
X110830694Y-56877228D01*
X110917357Y-56925904D01*
X110936386Y-56937654D01*
X110921261Y-56977596D01*
X110855966Y-57062416D01*
X110751673Y-57178627D01*
X110652520Y-57280323D01*
X110509962Y-57419868D01*
X110411972Y-57507576D01*
X110344259Y-57552471D01*
X110292531Y-57563577D01*
X110242500Y-57549920D01*
X110232570Y-57545527D01*
X110178633Y-57517934D01*
X110056382Y-57453506D01*
X109872037Y-57355573D01*
X109631821Y-57227462D01*
X109341954Y-57072502D01*
X109008657Y-56894021D01*
X108638152Y-56695346D01*
X108236658Y-56479806D01*
X107810398Y-56250730D01*
X107468437Y-56066791D01*
X104809167Y-54635833D01*
X104011307Y-54622642D01*
X103721756Y-54619870D01*
X103494356Y-54621944D01*
X103335211Y-54628651D01*
X103250427Y-54639779D01*
X103238285Y-54649640D01*
X103281598Y-54680773D01*
X103388422Y-54744798D01*
X103547315Y-54835233D01*
X103746832Y-54945598D01*
X103975529Y-55069412D01*
X104046470Y-55107331D01*
X104829817Y-55524833D01*
X103003511Y-55547669D01*
X102461659Y-55262187D01*
X101919806Y-54976705D01*
X101893704Y-54700436D01*
X101889669Y-54615741D01*
X101885817Y-54453283D01*
X101882197Y-54219962D01*
X101878857Y-53922683D01*
X101878622Y-53895000D01*
X107453411Y-53895000D01*
X112663590Y-53895000D01*
X112652212Y-52931917D01*
X112640834Y-51968833D01*
X107476167Y-51968833D01*
X107464789Y-52931917D01*
X107453411Y-53895000D01*
X101878622Y-53895000D01*
X101875845Y-53568346D01*
X101873209Y-53163855D01*
X101870998Y-52716112D01*
X101869260Y-52232020D01*
X101868043Y-51718480D01*
X101867396Y-51182395D01*
X101867301Y-50921083D01*
X101867008Y-47502667D01*
X108344000Y-47502667D01*
X108344000Y-49407667D01*
X114694000Y-49407667D01*
X114694000Y-47502667D01*
X108344000Y-47502667D01*
X101867008Y-47502667D01*
X101867000Y-47418000D01*
X99750334Y-47418000D01*
X99745385Y-50984583D01*
X99744312Y-51533635D01*
X99742675Y-52063249D01*
X99740530Y-52566613D01*
X99737934Y-53036915D01*
X99734943Y-53467342D01*
X99731613Y-53851082D01*
X99728000Y-54181321D01*
X99724162Y-54451247D01*
X99720154Y-54654048D01*
X99716033Y-54782910D01*
X99713635Y-54820869D01*
X99686834Y-55090572D01*
X98353334Y-55860414D01*
X97019834Y-56630257D01*
X97008958Y-59485568D01*
X96998082Y-62340878D01*
X97696874Y-63038708D01*
X98395667Y-63736537D01*
X98395667Y-73638354D01*
X101020334Y-78180987D01*
X101350143Y-78751973D01*
X101667983Y-79302566D01*
X101971302Y-79828331D01*
X102257552Y-80324836D01*
X102524181Y-80787645D01*
X102768640Y-81212325D01*
X102988380Y-81594441D01*
X103180849Y-81929559D01*
X103343498Y-82213245D01*
X103473777Y-82441065D01*
X103569137Y-82608584D01*
X103627026Y-82711370D01*
X103645000Y-82744976D01*
X103604337Y-82750163D01*
X103489026Y-82754895D01*
X103309088Y-82759015D01*
X103074540Y-82762364D01*
X102795401Y-82764785D01*
X102481692Y-82766119D01*
X102290334Y-82766333D01*
X100935667Y-82766333D01*
X100935667Y-84205667D01*
X102724250Y-84206580D01*
X104512834Y-84207493D01*
X104692750Y-84529971D01*
X104872667Y-84852448D01*
X104872667Y-98345000D01*
X81250667Y-98345000D01*
X80222943Y-98345000D01*
X80222231Y-98047457D01*
X80221053Y-97459871D01*
X80219987Y-96824204D01*
X80219025Y-96138538D01*
X80218163Y-95400953D01*
X80217395Y-94609531D01*
X80216716Y-93762353D01*
X80216120Y-92857499D01*
X80215603Y-91893051D01*
X80215158Y-90867089D01*
X80214780Y-89777696D01*
X80214464Y-88622951D01*
X80214204Y-87400936D01*
X80213995Y-86109731D01*
X80213832Y-84747419D01*
X80213708Y-83312079D01*
X80213619Y-81801793D01*
X80213559Y-80214643D01*
X80213523Y-78548708D01*
X80213505Y-76802070D01*
X80213500Y-74972811D01*
X80213500Y-74850000D01*
X80213505Y-73015259D01*
X80213522Y-71263265D01*
X80213556Y-69592100D01*
X80213614Y-67999845D01*
X80213701Y-66484581D01*
X80213823Y-65044388D01*
X80213983Y-63677349D01*
X80214189Y-62381543D01*
X80214445Y-61155053D01*
X80214758Y-59995958D01*
X80215131Y-58902340D01*
X80215572Y-57872280D01*
X80216084Y-56903860D01*
X80216674Y-55995159D01*
X80217348Y-55144260D01*
X80218110Y-54349242D01*
X80218965Y-53608188D01*
X80219920Y-52919178D01*
X80220980Y-52280294D01*
X80222150Y-51689616D01*
X80223436Y-51145225D01*
X80224843Y-50645202D01*
X80226376Y-50187629D01*
X80228042Y-49770586D01*
X80229844Y-49392155D01*
X80231790Y-49050416D01*
X80233883Y-48743451D01*
X80236131Y-48469340D01*
X80238537Y-48226165D01*
X80241108Y-48012006D01*
X80243849Y-47824945D01*
X80246766Y-47663063D01*
X80249863Y-47524441D01*
X80252842Y-47418000D01*
X81250667Y-47418000D01*
X81250667Y-83916207D01*
X81386047Y-83783294D01*
X97295000Y-83783294D01*
X98998917Y-83772230D01*
X100702834Y-83761167D01*
X100702834Y-82321833D01*
X98998917Y-82310770D01*
X97295000Y-82299706D01*
X97295000Y-83783294D01*
X81386047Y-83783294D01*
X82853075Y-82343000D01*
X87177334Y-82343000D01*
X87177334Y-83782333D01*
X95601667Y-83782333D01*
X95601667Y-82343000D01*
X87177334Y-82343000D01*
X82853075Y-82343000D01*
X82878894Y-82317652D01*
X83187466Y-82014035D01*
X83477752Y-81727115D01*
X83744120Y-81462551D01*
X83980936Y-81225998D01*
X84182568Y-81023114D01*
X84343381Y-80859554D01*
X84457742Y-80740977D01*
X84520019Y-80673038D01*
X84529894Y-80659753D01*
X84532631Y-80611004D01*
X84535273Y-80482517D01*
X84537803Y-80279220D01*
X84540200Y-80006042D01*
X84542445Y-79667912D01*
X84544518Y-79269757D01*
X84546402Y-78816506D01*
X84546922Y-78660000D01*
X96109667Y-78660000D01*
X96109667Y-82046667D01*
X97549000Y-82046667D01*
X97549000Y-78660000D01*
X96109667Y-78660000D01*
X84546922Y-78660000D01*
X84548075Y-78313089D01*
X84549519Y-77764432D01*
X84550715Y-77175465D01*
X84551644Y-76551116D01*
X84552285Y-75896314D01*
X84552620Y-75215987D01*
X84552667Y-74846537D01*
X84552667Y-69092667D01*
X85400333Y-69092667D01*
X86247999Y-69092666D01*
X86236416Y-68362417D01*
X86224834Y-67632167D01*
X85388750Y-67620688D01*
X84552667Y-67609210D01*
X84552939Y-67155022D01*
X84553212Y-66700833D01*
X86326113Y-65092167D01*
X86654375Y-64793379D01*
X86963699Y-64510024D01*
X87248380Y-64247447D01*
X87502715Y-64010994D01*
X87721001Y-63806014D01*
X87897536Y-63637853D01*
X88026615Y-63511857D01*
X88102535Y-63433374D01*
X88121044Y-63409417D01*
X88140307Y-63376694D01*
X88184821Y-63355176D01*
X88269532Y-63342612D01*
X88409385Y-63336748D01*
X88612704Y-63335333D01*
X89082334Y-63335333D01*
X89082334Y-63250667D01*
X94670334Y-63250667D01*
X96110450Y-63250667D01*
X96088500Y-58996167D01*
X94670334Y-58972953D01*
X94670334Y-63250667D01*
X89082334Y-63250667D01*
X89082334Y-59059667D01*
X88108667Y-59059667D01*
X88108667Y-58921905D01*
X88104590Y-58889680D01*
X88089487Y-58850512D01*
X88059050Y-58799780D01*
X88008971Y-58732861D01*
X87934943Y-58645134D01*
X87832658Y-58531975D01*
X87697807Y-58388764D01*
X87526083Y-58210878D01*
X87313179Y-57993696D01*
X87054785Y-57732594D01*
X86746595Y-57422951D01*
X86384301Y-57060145D01*
X86224834Y-56900667D01*
X84341000Y-55017190D01*
X84341000Y-52074667D01*
X85865000Y-52074667D01*
X85865000Y-54022863D01*
X87780584Y-54011848D01*
X89696167Y-54000833D01*
X89718923Y-52074667D01*
X85865000Y-52074667D01*
X84341000Y-52074667D01*
X84341000Y-47418000D01*
X84595000Y-47418000D01*
X84595000Y-49365333D01*
X89759667Y-49365333D01*
X89759667Y-47418000D01*
X84595000Y-47418000D01*
X84341000Y-47418000D01*
X81250667Y-47418000D01*
X80252842Y-47418000D01*
X80253146Y-47407159D01*
X80256621Y-47309299D01*
X80260293Y-47228942D01*
X80264168Y-47164169D01*
X80268251Y-47113061D01*
X80272547Y-47073698D01*
X80277062Y-47044163D01*
X80281801Y-47022535D01*
X80286770Y-47006897D01*
X80291973Y-46995329D01*
X80292323Y-46994667D01*
X80451187Y-46766323D01*
X80658455Y-46569404D01*
X80806167Y-46472374D01*
X80975500Y-46380833D01*
X99200000Y-46380833D01*
X100680293Y-46380841D01*
X100680293Y-46380841D01*
G37*
X100680293Y-46380841D02*
X102078292Y-46380869D01*
X103396370Y-46380930D01*
X104636899Y-46381033D01*
X105802252Y-46381187D01*
X106894801Y-46381404D01*
X107916920Y-46381693D01*
X108870980Y-46382065D01*
X109759355Y-46382530D01*
X110584417Y-46383097D01*
X111348539Y-46383778D01*
X112054093Y-46384582D01*
X112703452Y-46385519D01*
X113298989Y-46386601D01*
X113843077Y-46387836D01*
X114338087Y-46389235D01*
X114786393Y-46390808D01*
X115190368Y-46392566D01*
X115552383Y-46394518D01*
X115874812Y-46396675D01*
X116160027Y-46399047D01*
X116410401Y-46401644D01*
X116628306Y-46404476D01*
X116816116Y-46407554D01*
X116976203Y-46410888D01*
X117110939Y-46414487D01*
X117222697Y-46418362D01*
X117313849Y-46422524D01*
X117386770Y-46426981D01*
X117443830Y-46431746D01*
X117487403Y-46436827D01*
X117519861Y-46442235D01*
X117543577Y-46447980D01*
X117560924Y-46454072D01*
X117572667Y-46459656D01*
X117801011Y-46618520D01*
X117997929Y-46825788D01*
X118094960Y-46973500D01*
X118186500Y-47142833D01*
X118186500Y-102557167D01*
X118094960Y-102726500D01*
X117936248Y-102948431D01*
X117725002Y-103142724D01*
X117572667Y-103240344D01*
X117558887Y-103246758D01*
X117540757Y-103252816D01*
X117515901Y-103258531D01*
X117481941Y-103263912D01*
X117436502Y-103268971D01*
X117377206Y-103273720D01*
X117301676Y-103278169D01*
X117207537Y-103282329D01*
X117092410Y-103286212D01*
X116953919Y-103289829D01*
X116789688Y-103293191D01*
X116597340Y-103296308D01*
X116374497Y-103299194D01*
X116118784Y-103301857D01*
X115827823Y-103304310D01*
X115499237Y-103306564D01*
X115130651Y-103308629D01*
X114719686Y-103310517D01*
X114263967Y-103312240D01*
X113761116Y-103313808D01*
X113208757Y-103315232D01*
X112604513Y-103316523D01*
X111946007Y-103317694D01*
X111230863Y-103318754D01*
X110456703Y-103319715D01*
X109621151Y-103320589D01*
X108721830Y-103321385D01*
X107756364Y-103322116D01*
X106722375Y-103322793D01*
X105617487Y-103323426D01*
X104439323Y-103324028D01*
X103185506Y-103324608D01*
X101853660Y-103325178D01*
X100441407Y-103325750D01*
X99263500Y-103326211D01*
X98027154Y-103326616D01*
X96811910Y-103326866D01*
X95620525Y-103326966D01*
X94455757Y-103326918D01*
X93320364Y-103326727D01*
X92217103Y-103326397D01*
X91148733Y-103325932D01*
X90118011Y-103325334D01*
X89127694Y-103324609D01*
X88180541Y-103323760D01*
X87279308Y-103322791D01*
X86426755Y-103321705D01*
X85625637Y-103320507D01*
X84878714Y-103319200D01*
X84188743Y-103317788D01*
X83558482Y-103316275D01*
X82990688Y-103314664D01*
X82488119Y-103312961D01*
X82053532Y-103311167D01*
X81689686Y-103309288D01*
X81399339Y-103307327D01*
X81185247Y-103305288D01*
X81050169Y-103303175D01*
X80996862Y-103300991D01*
X80996393Y-103300880D01*
X80726265Y-103175715D01*
X80491055Y-102981398D01*
X80306502Y-102731243D01*
X80292323Y-102705333D01*
X80287103Y-102693965D01*
X80282119Y-102678652D01*
X80277365Y-102657475D01*
X80272836Y-102628517D01*
X80268526Y-102589857D01*
X80264429Y-102539578D01*
X80260541Y-102475759D01*
X80256856Y-102396482D01*
X80253368Y-102299828D01*
X80250072Y-102183878D01*
X80246963Y-102046712D01*
X80244035Y-101886413D01*
X80241283Y-101701061D01*
X80238701Y-101488737D01*
X80236284Y-101247523D01*
X80234026Y-100975498D01*
X80231922Y-100670745D01*
X80229967Y-100331343D01*
X80228155Y-99955375D01*
X80226481Y-99540922D01*
X80224939Y-99086064D01*
X80223525Y-98588882D01*
X80222943Y-98345000D01*
X81250667Y-98345000D01*
X81250667Y-102282000D01*
X117149334Y-102282000D01*
X117149334Y-98345000D01*
X106312000Y-98345000D01*
X106312000Y-91804500D01*
X106311889Y-90909365D01*
X106311535Y-90095418D01*
X106310911Y-89359183D01*
X106309986Y-88697181D01*
X106308733Y-88105934D01*
X106307121Y-87581965D01*
X106305122Y-87121795D01*
X106302706Y-86721948D01*
X106299846Y-86378946D01*
X106296511Y-86089310D01*
X106292674Y-85849564D01*
X106288304Y-85656228D01*
X106283372Y-85505826D01*
X106277851Y-85394880D01*
X106271710Y-85319913D01*
X106264920Y-85277445D01*
X106257454Y-85264000D01*
X106257425Y-85264000D01*
X106218013Y-85229081D01*
X106146747Y-85133097D01*
X106052506Y-84989205D01*
X105944169Y-84810563D01*
X105900311Y-84734833D01*
X105597771Y-84205667D01*
X105774969Y-84206300D01*
X105864465Y-84215814D01*
X105973845Y-84247410D01*
X106116376Y-84306571D01*
X106305326Y-84398779D01*
X106543304Y-84523800D01*
X107134441Y-84840667D01*
X108746167Y-84838471D01*
X108174667Y-84532652D01*
X107959175Y-84416425D01*
X107810913Y-84333282D01*
X107721926Y-84277376D01*
X107684260Y-84242856D01*
X107689961Y-84223874D01*
X107731074Y-84214580D01*
X107740750Y-84213568D01*
X107878334Y-84200302D01*
X107878334Y-83800818D01*
X107880532Y-83628631D01*
X107886439Y-83493705D01*
X107895021Y-83414489D01*
X107900707Y-83401333D01*
X107947068Y-83419032D01*
X108046982Y-83465408D01*
X108177457Y-83529742D01*
X108349032Y-83631537D01*
X108451655Y-83727006D01*
X108471536Y-83762575D01*
X108517833Y-83835962D01*
X108600251Y-83864356D01*
X108662524Y-83867000D01*
X108737127Y-83879047D01*
X108848610Y-83917525D01*
X109004576Y-83985941D01*
X109212631Y-84087799D01*
X109480380Y-84226606D01*
X109720675Y-84354772D01*
X110627540Y-84842544D01*
X111416515Y-84831022D01*
X112205489Y-84819500D01*
X111335094Y-84353833D01*
X110464698Y-83888167D01*
X111169926Y-83867000D01*
X111429289Y-83858745D01*
X111616371Y-83850688D01*
X111743527Y-83840911D01*
X111823115Y-83827496D01*
X111867494Y-83808526D01*
X111889021Y-83782084D01*
X111898160Y-83753995D01*
X111908878Y-83729888D01*
X111931689Y-83718543D01*
X111974603Y-83723501D01*
X112045630Y-83748305D01*
X112152779Y-83796500D01*
X112304060Y-83871626D01*
X112507483Y-83977227D01*
X112771058Y-84116845D01*
X113024922Y-84252373D01*
X114128677Y-84842590D01*
X115702915Y-84819500D01*
X114574041Y-84216602D01*
X113445167Y-83613703D01*
X114386464Y-83613352D01*
X115327761Y-83613000D01*
X116185631Y-84074416D01*
X116459657Y-84222076D01*
X116668219Y-84336080D01*
X116820432Y-84422854D01*
X116925411Y-84488820D01*
X116992271Y-84540403D01*
X117030128Y-84584027D01*
X117048096Y-84626114D01*
X117055291Y-84673090D01*
X117056639Y-84688249D01*
X117074976Y-84787919D01*
X117103416Y-84838929D01*
X117109556Y-84840667D01*
X117124499Y-84800423D01*
X117136612Y-84688000D01*
X117145085Y-84515864D01*
X117149113Y-84296477D01*
X117149334Y-84226833D01*
X117149334Y-83613000D01*
X117403334Y-83613000D01*
X117403334Y-81078624D01*
X117286917Y-81065228D01*
X117170500Y-81051833D01*
X117159741Y-76109417D01*
X117148982Y-71167000D01*
X117403334Y-71167000D01*
X117403334Y-68632624D01*
X117286917Y-68619228D01*
X117170500Y-68605833D01*
X117159834Y-58011916D01*
X117149167Y-47418000D01*
X115202000Y-47418000D01*
X115202000Y-54614667D01*
X112323334Y-54614667D01*
X112323334Y-54762833D01*
X112319522Y-54860836D01*
X112310153Y-54909745D01*
X112308185Y-54911000D01*
X112266138Y-54892858D01*
X112168714Y-54844869D01*
X112035420Y-54776687D01*
X112008775Y-54762833D01*
X111724515Y-54614666D01*
X110955007Y-54616013D01*
X110683339Y-54617057D01*
X110486527Y-54619719D01*
X110354763Y-54624932D01*
X110278240Y-54633629D01*
X110247151Y-54646745D01*
X110251686Y-54665211D01*
X110269985Y-54681202D01*
X110329925Y-54718378D01*
X110453366Y-54788846D01*
X110628953Y-54886340D01*
X110845331Y-55004597D01*
X111091142Y-55137351D01*
X111277925Y-55237298D01*
X112201379Y-55729551D01*
X111546035Y-56388761D01*
X111204434Y-56202841D01*
X111084710Y-56138063D01*
X110901914Y-56039662D01*
X110667670Y-55913872D01*
X110393604Y-55766927D01*
X110091341Y-55605062D01*
X109772507Y-55434511D01*
X109550500Y-55315866D01*
X108238167Y-54614811D01*
X107457117Y-54614739D01*
X107197201Y-54616616D01*
X106983482Y-54621967D01*
X106825909Y-54630289D01*
X106734431Y-54641083D01*
X106716283Y-54652030D01*
X106760174Y-54678457D01*
X106871892Y-54740978D01*
X107044552Y-54835857D01*
X107271266Y-54959360D01*
X107545150Y-55107754D01*
X107859316Y-55277304D01*
X108206877Y-55464276D01*
X108580948Y-55664935D01*
X108830834Y-55798681D01*
X109217880Y-56005889D01*
X109582553Y-56201559D01*
X109918005Y-56381988D01*
X110217391Y-56543472D01*
X110473865Y-56682309D01*
X110680581Y-56794796D01*
X110830694Y-56877228D01*
X110917357Y-56925904D01*
X110936386Y-56937654D01*
X110921261Y-56977596D01*
X110855966Y-57062416D01*
X110751673Y-57178627D01*
X110652520Y-57280323D01*
X110509962Y-57419868D01*
X110411972Y-57507576D01*
X110344259Y-57552471D01*
X110292531Y-57563577D01*
X110242500Y-57549920D01*
X110232570Y-57545527D01*
X110178633Y-57517934D01*
X110056382Y-57453506D01*
X109872037Y-57355573D01*
X109631821Y-57227462D01*
X109341954Y-57072502D01*
X109008657Y-56894021D01*
X108638152Y-56695346D01*
X108236658Y-56479806D01*
X107810398Y-56250730D01*
X107468437Y-56066791D01*
X104809167Y-54635833D01*
X104011307Y-54622642D01*
X103721756Y-54619870D01*
X103494356Y-54621944D01*
X103335211Y-54628651D01*
X103250427Y-54639779D01*
X103238285Y-54649640D01*
X103281598Y-54680773D01*
X103388422Y-54744798D01*
X103547315Y-54835233D01*
X103746832Y-54945598D01*
X103975529Y-55069412D01*
X104046470Y-55107331D01*
X104829817Y-55524833D01*
X103003511Y-55547669D01*
X102461659Y-55262187D01*
X101919806Y-54976705D01*
X101893704Y-54700436D01*
X101889669Y-54615741D01*
X101885817Y-54453283D01*
X101882197Y-54219962D01*
X101878857Y-53922683D01*
X101878622Y-53895000D01*
X107453411Y-53895000D01*
X112663590Y-53895000D01*
X112652212Y-52931917D01*
X112640834Y-51968833D01*
X107476167Y-51968833D01*
X107464789Y-52931917D01*
X107453411Y-53895000D01*
X101878622Y-53895000D01*
X101875845Y-53568346D01*
X101873209Y-53163855D01*
X101870998Y-52716112D01*
X101869260Y-52232020D01*
X101868043Y-51718480D01*
X101867396Y-51182395D01*
X101867301Y-50921083D01*
X101867008Y-47502667D01*
X108344000Y-47502667D01*
X108344000Y-49407667D01*
X114694000Y-49407667D01*
X114694000Y-47502667D01*
X108344000Y-47502667D01*
X101867008Y-47502667D01*
X101867000Y-47418000D01*
X99750334Y-47418000D01*
X99745385Y-50984583D01*
X99744312Y-51533635D01*
X99742675Y-52063249D01*
X99740530Y-52566613D01*
X99737934Y-53036915D01*
X99734943Y-53467342D01*
X99731613Y-53851082D01*
X99728000Y-54181321D01*
X99724162Y-54451247D01*
X99720154Y-54654048D01*
X99716033Y-54782910D01*
X99713635Y-54820869D01*
X99686834Y-55090572D01*
X98353334Y-55860414D01*
X97019834Y-56630257D01*
X97008958Y-59485568D01*
X96998082Y-62340878D01*
X97696874Y-63038708D01*
X98395667Y-63736537D01*
X98395667Y-73638354D01*
X101020334Y-78180987D01*
X101350143Y-78751973D01*
X101667983Y-79302566D01*
X101971302Y-79828331D01*
X102257552Y-80324836D01*
X102524181Y-80787645D01*
X102768640Y-81212325D01*
X102988380Y-81594441D01*
X103180849Y-81929559D01*
X103343498Y-82213245D01*
X103473777Y-82441065D01*
X103569137Y-82608584D01*
X103627026Y-82711370D01*
X103645000Y-82744976D01*
X103604337Y-82750163D01*
X103489026Y-82754895D01*
X103309088Y-82759015D01*
X103074540Y-82762364D01*
X102795401Y-82764785D01*
X102481692Y-82766119D01*
X102290334Y-82766333D01*
X100935667Y-82766333D01*
X100935667Y-84205667D01*
X102724250Y-84206580D01*
X104512834Y-84207493D01*
X104692750Y-84529971D01*
X104872667Y-84852448D01*
X104872667Y-98345000D01*
X81250667Y-98345000D01*
X80222943Y-98345000D01*
X80222231Y-98047457D01*
X80221053Y-97459871D01*
X80219987Y-96824204D01*
X80219025Y-96138538D01*
X80218163Y-95400953D01*
X80217395Y-94609531D01*
X80216716Y-93762353D01*
X80216120Y-92857499D01*
X80215603Y-91893051D01*
X80215158Y-90867089D01*
X80214780Y-89777696D01*
X80214464Y-88622951D01*
X80214204Y-87400936D01*
X80213995Y-86109731D01*
X80213832Y-84747419D01*
X80213708Y-83312079D01*
X80213619Y-81801793D01*
X80213559Y-80214643D01*
X80213523Y-78548708D01*
X80213505Y-76802070D01*
X80213500Y-74972811D01*
X80213500Y-74850000D01*
X80213505Y-73015259D01*
X80213522Y-71263265D01*
X80213556Y-69592100D01*
X80213614Y-67999845D01*
X80213701Y-66484581D01*
X80213823Y-65044388D01*
X80213983Y-63677349D01*
X80214189Y-62381543D01*
X80214445Y-61155053D01*
X80214758Y-59995958D01*
X80215131Y-58902340D01*
X80215572Y-57872280D01*
X80216084Y-56903860D01*
X80216674Y-55995159D01*
X80217348Y-55144260D01*
X80218110Y-54349242D01*
X80218965Y-53608188D01*
X80219920Y-52919178D01*
X80220980Y-52280294D01*
X80222150Y-51689616D01*
X80223436Y-51145225D01*
X80224843Y-50645202D01*
X80226376Y-50187629D01*
X80228042Y-49770586D01*
X80229844Y-49392155D01*
X80231790Y-49050416D01*
X80233883Y-48743451D01*
X80236131Y-48469340D01*
X80238537Y-48226165D01*
X80241108Y-48012006D01*
X80243849Y-47824945D01*
X80246766Y-47663063D01*
X80249863Y-47524441D01*
X80252842Y-47418000D01*
X81250667Y-47418000D01*
X81250667Y-83916207D01*
X81386047Y-83783294D01*
X97295000Y-83783294D01*
X98998917Y-83772230D01*
X100702834Y-83761167D01*
X100702834Y-82321833D01*
X98998917Y-82310770D01*
X97295000Y-82299706D01*
X97295000Y-83783294D01*
X81386047Y-83783294D01*
X82853075Y-82343000D01*
X87177334Y-82343000D01*
X87177334Y-83782333D01*
X95601667Y-83782333D01*
X95601667Y-82343000D01*
X87177334Y-82343000D01*
X82853075Y-82343000D01*
X82878894Y-82317652D01*
X83187466Y-82014035D01*
X83477752Y-81727115D01*
X83744120Y-81462551D01*
X83980936Y-81225998D01*
X84182568Y-81023114D01*
X84343381Y-80859554D01*
X84457742Y-80740977D01*
X84520019Y-80673038D01*
X84529894Y-80659753D01*
X84532631Y-80611004D01*
X84535273Y-80482517D01*
X84537803Y-80279220D01*
X84540200Y-80006042D01*
X84542445Y-79667912D01*
X84544518Y-79269757D01*
X84546402Y-78816506D01*
X84546922Y-78660000D01*
X96109667Y-78660000D01*
X96109667Y-82046667D01*
X97549000Y-82046667D01*
X97549000Y-78660000D01*
X96109667Y-78660000D01*
X84546922Y-78660000D01*
X84548075Y-78313089D01*
X84549519Y-77764432D01*
X84550715Y-77175465D01*
X84551644Y-76551116D01*
X84552285Y-75896314D01*
X84552620Y-75215987D01*
X84552667Y-74846537D01*
X84552667Y-69092667D01*
X85400333Y-69092667D01*
X86247999Y-69092666D01*
X86236416Y-68362417D01*
X86224834Y-67632167D01*
X85388750Y-67620688D01*
X84552667Y-67609210D01*
X84552939Y-67155022D01*
X84553212Y-66700833D01*
X86326113Y-65092167D01*
X86654375Y-64793379D01*
X86963699Y-64510024D01*
X87248380Y-64247447D01*
X87502715Y-64010994D01*
X87721001Y-63806014D01*
X87897536Y-63637853D01*
X88026615Y-63511857D01*
X88102535Y-63433374D01*
X88121044Y-63409417D01*
X88140307Y-63376694D01*
X88184821Y-63355176D01*
X88269532Y-63342612D01*
X88409385Y-63336748D01*
X88612704Y-63335333D01*
X89082334Y-63335333D01*
X89082334Y-63250667D01*
X94670334Y-63250667D01*
X96110450Y-63250667D01*
X96088500Y-58996167D01*
X94670334Y-58972953D01*
X94670334Y-63250667D01*
X89082334Y-63250667D01*
X89082334Y-59059667D01*
X88108667Y-59059667D01*
X88108667Y-58921905D01*
X88104590Y-58889680D01*
X88089487Y-58850512D01*
X88059050Y-58799780D01*
X88008971Y-58732861D01*
X87934943Y-58645134D01*
X87832658Y-58531975D01*
X87697807Y-58388764D01*
X87526083Y-58210878D01*
X87313179Y-57993696D01*
X87054785Y-57732594D01*
X86746595Y-57422951D01*
X86384301Y-57060145D01*
X86224834Y-56900667D01*
X84341000Y-55017190D01*
X84341000Y-52074667D01*
X85865000Y-52074667D01*
X85865000Y-54022863D01*
X87780584Y-54011848D01*
X89696167Y-54000833D01*
X89718923Y-52074667D01*
X85865000Y-52074667D01*
X84341000Y-52074667D01*
X84341000Y-47418000D01*
X84595000Y-47418000D01*
X84595000Y-49365333D01*
X89759667Y-49365333D01*
X89759667Y-47418000D01*
X84595000Y-47418000D01*
X84341000Y-47418000D01*
X81250667Y-47418000D01*
X80252842Y-47418000D01*
X80253146Y-47407159D01*
X80256621Y-47309299D01*
X80260293Y-47228942D01*
X80264168Y-47164169D01*
X80268251Y-47113061D01*
X80272547Y-47073698D01*
X80277062Y-47044163D01*
X80281801Y-47022535D01*
X80286770Y-47006897D01*
X80291973Y-46995329D01*
X80292323Y-46994667D01*
X80451187Y-46766323D01*
X80658455Y-46569404D01*
X80806167Y-46472374D01*
X80975500Y-46380833D01*
X99200000Y-46380833D01*
X100680293Y-46380841D01*
G36*
X117050556Y-83627111D02*
X117044745Y-83652278D01*
X117022334Y-83655333D01*
X116987488Y-83639844D01*
X116994111Y-83627111D01*
X117044351Y-83622044D01*
X117050556Y-83627111D01*
X117050556Y-83627111D01*
G37*
X117050556Y-83627111D02*
X117044745Y-83652278D01*
X117022334Y-83655333D01*
X116987488Y-83639844D01*
X116994111Y-83627111D01*
X117044351Y-83622044D01*
X117050556Y-83627111D01*
G36*
X100785348Y-75843036D02*
X100807660Y-75851723D01*
X100844972Y-75868797D01*
X100900681Y-75896060D01*
X100978183Y-75935313D01*
X101080876Y-75988356D01*
X101212155Y-76056992D01*
X101375418Y-76143022D01*
X101574061Y-76248246D01*
X101811480Y-76374467D01*
X102091073Y-76523486D01*
X102416236Y-76697103D01*
X102790366Y-76897120D01*
X103216859Y-77125340D01*
X103699112Y-77383561D01*
X104240522Y-77673588D01*
X104844485Y-77997219D01*
X105514398Y-78356257D01*
X106253658Y-78752504D01*
X106693000Y-78988002D01*
X111497834Y-81563530D01*
X111510005Y-81953265D01*
X111522177Y-82343000D01*
X112250839Y-82343158D01*
X112521149Y-82344115D01*
X112720995Y-82347768D01*
X112864569Y-82355494D01*
X112966062Y-82368671D01*
X113039667Y-82388675D01*
X113099575Y-82416883D01*
X113117084Y-82427203D01*
X113254667Y-82511089D01*
X113254667Y-82998544D01*
X113252093Y-83190101D01*
X113245097Y-83345908D01*
X113234764Y-83449356D01*
X113222917Y-83484012D01*
X113176963Y-83464211D01*
X113069374Y-83410557D01*
X112912904Y-83329631D01*
X112720307Y-83228013D01*
X112546038Y-83134762D01*
X111900909Y-82787500D01*
X111900454Y-82589321D01*
X111900000Y-82391143D01*
X111116834Y-82364167D01*
X101576656Y-77252887D01*
X101185897Y-76570027D01*
X101061155Y-76351949D01*
X100950623Y-76158543D01*
X100861302Y-76002076D01*
X100800196Y-75894815D01*
X100774447Y-75849284D01*
X100772139Y-75843617D01*
X100774640Y-75840934D01*
X100785348Y-75843036D01*
X100785348Y-75843036D01*
G37*
X100785348Y-75843036D02*
X100807660Y-75851723D01*
X100844972Y-75868797D01*
X100900681Y-75896060D01*
X100978183Y-75935313D01*
X101080876Y-75988356D01*
X101212155Y-76056992D01*
X101375418Y-76143022D01*
X101574061Y-76248246D01*
X101811480Y-76374467D01*
X102091073Y-76523486D01*
X102416236Y-76697103D01*
X102790366Y-76897120D01*
X103216859Y-77125340D01*
X103699112Y-77383561D01*
X104240522Y-77673588D01*
X104844485Y-77997219D01*
X105514398Y-78356257D01*
X106253658Y-78752504D01*
X106693000Y-78988002D01*
X111497834Y-81563530D01*
X111510005Y-81953265D01*
X111522177Y-82343000D01*
X112250839Y-82343158D01*
X112521149Y-82344115D01*
X112720995Y-82347768D01*
X112864569Y-82355494D01*
X112966062Y-82368671D01*
X113039667Y-82388675D01*
X113099575Y-82416883D01*
X113117084Y-82427203D01*
X113254667Y-82511089D01*
X113254667Y-82998544D01*
X113252093Y-83190101D01*
X113245097Y-83345908D01*
X113234764Y-83449356D01*
X113222917Y-83484012D01*
X113176963Y-83464211D01*
X113069374Y-83410557D01*
X112912904Y-83329631D01*
X112720307Y-83228013D01*
X112546038Y-83134762D01*
X111900909Y-82787500D01*
X111900454Y-82589321D01*
X111900000Y-82391143D01*
X111116834Y-82364167D01*
X101576656Y-77252887D01*
X101185897Y-76570027D01*
X101061155Y-76351949D01*
X100950623Y-76158543D01*
X100861302Y-76002076D01*
X100800196Y-75894815D01*
X100774447Y-75849284D01*
X100772139Y-75843617D01*
X100774640Y-75840934D01*
X100785348Y-75843036D01*
G36*
X102631422Y-78686184D02*
X102716009Y-78731571D01*
X102869200Y-78813686D01*
X103084958Y-78929295D01*
X103357244Y-79075165D01*
X103680020Y-79248061D01*
X104047249Y-79444748D01*
X104452891Y-79661995D01*
X104890910Y-79896565D01*
X105355266Y-80145226D01*
X105839923Y-80404743D01*
X106222982Y-80609847D01*
X109499463Y-82364167D01*
X108987399Y-82376035D01*
X108475336Y-82387904D01*
X108462585Y-82597153D01*
X108449834Y-82806403D01*
X105804000Y-81390812D01*
X103158167Y-79975222D01*
X102901426Y-79539861D01*
X102779480Y-79331662D01*
X102653842Y-79114804D01*
X102541880Y-78919376D01*
X102480514Y-78810670D01*
X102316343Y-78516840D01*
X102631422Y-78686184D01*
X102631422Y-78686184D01*
G37*
X102631422Y-78686184D02*
X102716009Y-78731571D01*
X102869200Y-78813686D01*
X103084958Y-78929295D01*
X103357244Y-79075165D01*
X103680020Y-79248061D01*
X104047249Y-79444748D01*
X104452891Y-79661995D01*
X104890910Y-79896565D01*
X105355266Y-80145226D01*
X105839923Y-80404743D01*
X106222982Y-80609847D01*
X109499463Y-82364167D01*
X108987399Y-82376035D01*
X108475336Y-82387904D01*
X108462585Y-82597153D01*
X108449834Y-82806403D01*
X105804000Y-81390812D01*
X103158167Y-79975222D01*
X102901426Y-79539861D01*
X102779480Y-79331662D01*
X102653842Y-79114804D01*
X102541880Y-78919376D01*
X102480514Y-78810670D01*
X102316343Y-78516840D01*
X102631422Y-78686184D01*
G36*
X103948309Y-81276508D02*
X104053248Y-81329050D01*
X104216383Y-81413154D01*
X104429531Y-81524543D01*
X104684513Y-81658937D01*
X104973148Y-81812058D01*
X105287254Y-81979628D01*
X105338867Y-82007247D01*
X106756500Y-82766171D01*
X105801508Y-82766252D01*
X105459503Y-82764785D01*
X105194882Y-82760070D01*
X105000412Y-82751735D01*
X104868858Y-82739409D01*
X104792986Y-82722718D01*
X104774717Y-82713417D01*
X104736830Y-82666217D01*
X104667013Y-82561940D01*
X104573225Y-82413962D01*
X104463427Y-82235660D01*
X104345578Y-82040412D01*
X104227640Y-81841594D01*
X104117572Y-81652584D01*
X104023333Y-81486760D01*
X103952886Y-81357497D01*
X103914188Y-81278175D01*
X103909747Y-81259809D01*
X103948309Y-81276508D01*
X103948309Y-81276508D01*
G37*
X103948309Y-81276508D02*
X104053248Y-81329050D01*
X104216383Y-81413154D01*
X104429531Y-81524543D01*
X104684513Y-81658937D01*
X104973148Y-81812058D01*
X105287254Y-81979628D01*
X105338867Y-82007247D01*
X106756500Y-82766171D01*
X105801508Y-82766252D01*
X105459503Y-82764785D01*
X105194882Y-82760070D01*
X105000412Y-82751735D01*
X104868858Y-82739409D01*
X104792986Y-82722718D01*
X104774717Y-82713417D01*
X104736830Y-82666217D01*
X104667013Y-82561940D01*
X104573225Y-82413962D01*
X104463427Y-82235660D01*
X104345578Y-82040412D01*
X104227640Y-81841594D01*
X104117572Y-81652584D01*
X104023333Y-81486760D01*
X103952886Y-81357497D01*
X103914188Y-81278175D01*
X103909747Y-81259809D01*
X103948309Y-81276508D01*
G36*
X113455750Y-80737487D02*
X113643601Y-80837836D01*
X113805312Y-80926261D01*
X113925554Y-80994231D01*
X113988993Y-81033215D01*
X113993384Y-81036662D01*
X113972863Y-81052751D01*
X113882441Y-81065040D01*
X113736851Y-81071998D01*
X113644134Y-81073000D01*
X113254667Y-81073000D01*
X113254667Y-81348167D01*
X113250224Y-81487570D01*
X113238598Y-81585232D01*
X113222917Y-81619463D01*
X113167569Y-81596729D01*
X113077818Y-81547181D01*
X113074826Y-81545379D01*
X112958485Y-81475167D01*
X112958409Y-80974908D01*
X112958334Y-80474649D01*
X113455750Y-80737487D01*
X113455750Y-80737487D01*
G37*
X113455750Y-80737487D02*
X113643601Y-80837836D01*
X113805312Y-80926261D01*
X113925554Y-80994231D01*
X113988993Y-81033215D01*
X113993384Y-81036662D01*
X113972863Y-81052751D01*
X113882441Y-81065040D01*
X113736851Y-81071998D01*
X113644134Y-81073000D01*
X113254667Y-81073000D01*
X113254667Y-81348167D01*
X113250224Y-81487570D01*
X113238598Y-81585232D01*
X113222917Y-81619463D01*
X113167569Y-81596729D01*
X113077818Y-81547181D01*
X113074826Y-81545379D01*
X112958485Y-81475167D01*
X112958409Y-80974908D01*
X112958334Y-80474649D01*
X113455750Y-80737487D01*
G36*
X112993970Y-78624722D02*
X113037023Y-78646828D01*
X113147750Y-78705213D01*
X113319193Y-78796171D01*
X113544398Y-78915995D01*
X113816408Y-79060979D01*
X114128267Y-79227416D01*
X114473018Y-79411601D01*
X114843706Y-79609826D01*
X115046481Y-79718333D01*
X117063354Y-80797833D01*
X117064011Y-80935417D01*
X117064667Y-81073000D01*
X116376750Y-81071980D01*
X115688834Y-81070961D01*
X114324410Y-80341730D01*
X112959986Y-79612500D01*
X112959160Y-79111555D01*
X112961638Y-78918589D01*
X112968999Y-78762547D01*
X112980107Y-78659288D01*
X112993829Y-78624670D01*
X112993970Y-78624722D01*
X112993970Y-78624722D01*
G37*
X112993970Y-78624722D02*
X113037023Y-78646828D01*
X113147750Y-78705213D01*
X113319193Y-78796171D01*
X113544398Y-78915995D01*
X113816408Y-79060979D01*
X114128267Y-79227416D01*
X114473018Y-79411601D01*
X114843706Y-79609826D01*
X115046481Y-79718333D01*
X117063354Y-80797833D01*
X117064011Y-80935417D01*
X117064667Y-81073000D01*
X116376750Y-81071980D01*
X115688834Y-81070961D01*
X114324410Y-80341730D01*
X112959986Y-79612500D01*
X112959160Y-79111555D01*
X112961638Y-78918589D01*
X112968999Y-78762547D01*
X112980107Y-78659288D01*
X112993829Y-78624670D01*
X112993970Y-78624722D01*
G36*
X105496173Y-76472925D02*
X111517180Y-79697167D01*
X111518090Y-80194583D01*
X111515923Y-80387991D01*
X111509350Y-80545575D01*
X111499393Y-80650985D01*
X111487250Y-80687902D01*
X111447000Y-80667748D01*
X111336234Y-80609673D01*
X111159012Y-80515847D01*
X110919391Y-80388441D01*
X110621429Y-80229626D01*
X110269184Y-80041571D01*
X109866715Y-79826448D01*
X109418078Y-79586426D01*
X108927333Y-79323677D01*
X108398538Y-79040371D01*
X107835749Y-78738677D01*
X107243026Y-78420768D01*
X106624426Y-78088812D01*
X105984008Y-77744982D01*
X105729233Y-77608152D01*
X100002966Y-74532500D01*
X99726232Y-74052501D01*
X99608356Y-73843493D01*
X99529539Y-73690118D01*
X99483304Y-73576629D01*
X99463179Y-73487277D01*
X99462333Y-73410592D01*
X99475167Y-73248683D01*
X105496173Y-76472925D01*
X105496173Y-76472925D01*
G37*
X105496173Y-76472925D02*
X111517180Y-79697167D01*
X111518090Y-80194583D01*
X111515923Y-80387991D01*
X111509350Y-80545575D01*
X111499393Y-80650985D01*
X111487250Y-80687902D01*
X111447000Y-80667748D01*
X111336234Y-80609673D01*
X111159012Y-80515847D01*
X110919391Y-80388441D01*
X110621429Y-80229626D01*
X110269184Y-80041571D01*
X109866715Y-79826448D01*
X109418078Y-79586426D01*
X108927333Y-79323677D01*
X108398538Y-79040371D01*
X107835749Y-78738677D01*
X107243026Y-78420768D01*
X106624426Y-78088812D01*
X105984008Y-77744982D01*
X105729233Y-77608152D01*
X100002966Y-74532500D01*
X99726232Y-74052501D01*
X99608356Y-73843493D01*
X99529539Y-73690118D01*
X99483304Y-73576629D01*
X99463179Y-73487277D01*
X99462333Y-73410592D01*
X99475167Y-73248683D01*
X105496173Y-76472925D01*
G36*
X110306264Y-75308971D02*
X110847902Y-75599255D01*
X111405088Y-75897880D01*
X111968111Y-76199643D01*
X112527262Y-76499338D01*
X113072832Y-76791762D01*
X113595111Y-77071709D01*
X114084389Y-77333976D01*
X114530957Y-77573357D01*
X114925106Y-77784650D01*
X115257124Y-77962648D01*
X115339584Y-78006858D01*
X117064667Y-78931766D01*
X117064667Y-79430883D01*
X117063828Y-79624981D01*
X117061545Y-79783595D01*
X117058167Y-79890281D01*
X117054084Y-79928604D01*
X117016247Y-79908794D01*
X116907764Y-79851092D01*
X116732604Y-79757623D01*
X116494735Y-79630512D01*
X116198124Y-79471884D01*
X115846740Y-79283863D01*
X115444550Y-79068574D01*
X114995523Y-78828141D01*
X114503626Y-78564690D01*
X113972828Y-78280343D01*
X113407097Y-77977227D01*
X112810401Y-77657466D01*
X112186707Y-77323183D01*
X111539984Y-76976505D01*
X111104477Y-76743021D01*
X105165454Y-73558833D01*
X106081741Y-73547412D01*
X106998029Y-73535991D01*
X110306264Y-75308971D01*
X110306264Y-75308971D01*
G37*
X110306264Y-75308971D02*
X110847902Y-75599255D01*
X111405088Y-75897880D01*
X111968111Y-76199643D01*
X112527262Y-76499338D01*
X113072832Y-76791762D01*
X113595111Y-77071709D01*
X114084389Y-77333976D01*
X114530957Y-77573357D01*
X114925106Y-77784650D01*
X115257124Y-77962648D01*
X115339584Y-78006858D01*
X117064667Y-78931766D01*
X117064667Y-79430883D01*
X117063828Y-79624981D01*
X117061545Y-79783595D01*
X117058167Y-79890281D01*
X117054084Y-79928604D01*
X117016247Y-79908794D01*
X116907764Y-79851092D01*
X116732604Y-79757623D01*
X116494735Y-79630512D01*
X116198124Y-79471884D01*
X115846740Y-79283863D01*
X115444550Y-79068574D01*
X114995523Y-78828141D01*
X114503626Y-78564690D01*
X113972828Y-78280343D01*
X113407097Y-77977227D01*
X112810401Y-77657466D01*
X112186707Y-77323183D01*
X111539984Y-76976505D01*
X111104477Y-76743021D01*
X105165454Y-73558833D01*
X106081741Y-73547412D01*
X106998029Y-73535991D01*
X110306264Y-75308971D01*
G36*
X104561179Y-74101694D02*
X104884407Y-74275346D01*
X105260068Y-74477029D01*
X105665944Y-74694824D01*
X106079819Y-74916812D01*
X106479475Y-75131073D01*
X106841167Y-75324871D01*
X107189623Y-75511545D01*
X107591864Y-75727093D01*
X108027069Y-75960356D01*
X108474420Y-76200172D01*
X108913098Y-76435382D01*
X109322282Y-76654824D01*
X109487000Y-76743179D01*
X109830885Y-76927613D01*
X110173335Y-77111206D01*
X110501891Y-77287285D01*
X110804097Y-77449175D01*
X111067493Y-77590204D01*
X111279623Y-77703697D01*
X111413167Y-77775050D01*
X111921167Y-78046167D01*
X111721642Y-78059006D01*
X111522118Y-78071845D01*
X111509976Y-78448264D01*
X111497834Y-78824684D01*
X106584741Y-76191758D01*
X101671648Y-73558833D01*
X103508858Y-73536071D01*
X104561179Y-74101694D01*
X104561179Y-74101694D01*
G37*
X104561179Y-74101694D02*
X104884407Y-74275346D01*
X105260068Y-74477029D01*
X105665944Y-74694824D01*
X106079819Y-74916812D01*
X106479475Y-75131073D01*
X106841167Y-75324871D01*
X107189623Y-75511545D01*
X107591864Y-75727093D01*
X108027069Y-75960356D01*
X108474420Y-76200172D01*
X108913098Y-76435382D01*
X109322282Y-76654824D01*
X109487000Y-76743179D01*
X109830885Y-76927613D01*
X110173335Y-77111206D01*
X110501891Y-77287285D01*
X110804097Y-77449175D01*
X111067493Y-77590204D01*
X111279623Y-77703697D01*
X111413167Y-77775050D01*
X111921167Y-78046167D01*
X111721642Y-78059006D01*
X111522118Y-78071845D01*
X111509976Y-78448264D01*
X111497834Y-78824684D01*
X106584741Y-76191758D01*
X101671648Y-73558833D01*
X103508858Y-73536071D01*
X104561179Y-74101694D01*
G36*
X113983752Y-75404995D02*
X114452147Y-75655834D01*
X114899087Y-75895466D01*
X115318929Y-76120849D01*
X115706032Y-76328942D01*
X116054754Y-76516702D01*
X116359451Y-76681086D01*
X116614482Y-76819054D01*
X116814204Y-76927562D01*
X116952975Y-77003568D01*
X117025152Y-77044031D01*
X117034321Y-77049755D01*
X117046474Y-77101601D01*
X117054469Y-77219949D01*
X117057565Y-77386704D01*
X117055488Y-77565716D01*
X117043500Y-78051889D01*
X113088951Y-75932361D01*
X109134403Y-73812833D01*
X110050370Y-73801427D01*
X110966338Y-73790022D01*
X113983752Y-75404995D01*
X113983752Y-75404995D01*
G37*
X113983752Y-75404995D02*
X114452147Y-75655834D01*
X114899087Y-75895466D01*
X115318929Y-76120849D01*
X115706032Y-76328942D01*
X116054754Y-76516702D01*
X116359451Y-76681086D01*
X116614482Y-76819054D01*
X116814204Y-76927562D01*
X116952975Y-77003568D01*
X117025152Y-77044031D01*
X117034321Y-77049755D01*
X117046474Y-77101601D01*
X117054469Y-77219949D01*
X117057565Y-77386704D01*
X117055488Y-77565716D01*
X117043500Y-78051889D01*
X113088951Y-75932361D01*
X109134403Y-73812833D01*
X110050370Y-73801427D01*
X110966338Y-73790022D01*
X113983752Y-75404995D01*
G36*
X117043500Y-75175052D02*
X117055427Y-75668693D01*
X117057441Y-75861565D01*
X117054043Y-76018886D01*
X117045943Y-76124144D01*
X117034260Y-76160880D01*
X116991943Y-76141139D01*
X116881712Y-76084800D01*
X116710217Y-75995380D01*
X116484105Y-75876395D01*
X116210023Y-75731362D01*
X115894620Y-75563798D01*
X115544542Y-75377220D01*
X115166439Y-75175145D01*
X114813638Y-74986130D01*
X114354929Y-74739903D01*
X113965854Y-74530463D01*
X113641309Y-74354815D01*
X113376186Y-74209968D01*
X113165382Y-74092926D01*
X113003791Y-74000696D01*
X112886308Y-73930285D01*
X112807827Y-73878698D01*
X112763243Y-73842942D01*
X112747452Y-73820024D01*
X112755347Y-73806949D01*
X112781824Y-73800724D01*
X112790716Y-73799889D01*
X112955324Y-73786945D01*
X112967412Y-73391551D01*
X112979500Y-72996156D01*
X117043500Y-75175052D01*
X117043500Y-75175052D01*
G37*
X117043500Y-75175052D02*
X117055427Y-75668693D01*
X117057441Y-75861565D01*
X117054043Y-76018886D01*
X117045943Y-76124144D01*
X117034260Y-76160880D01*
X116991943Y-76141139D01*
X116881712Y-76084800D01*
X116710217Y-75995380D01*
X116484105Y-75876395D01*
X116210023Y-75731362D01*
X115894620Y-75563798D01*
X115544542Y-75377220D01*
X115166439Y-75175145D01*
X114813638Y-74986130D01*
X114354929Y-74739903D01*
X113965854Y-74530463D01*
X113641309Y-74354815D01*
X113376186Y-74209968D01*
X113165382Y-74092926D01*
X113003791Y-74000696D01*
X112886308Y-73930285D01*
X112807827Y-73878698D01*
X112763243Y-73842942D01*
X112747452Y-73820024D01*
X112755347Y-73806949D01*
X112781824Y-73800724D01*
X112790716Y-73799889D01*
X112955324Y-73786945D01*
X112967412Y-73391551D01*
X112979500Y-72996156D01*
X117043500Y-75175052D01*
G36*
X107137500Y-67995811D02*
X107905988Y-68407658D01*
X108664518Y-68814119D01*
X109408885Y-69212942D01*
X110134882Y-69601874D01*
X110838304Y-69978666D01*
X111514946Y-70341064D01*
X112160602Y-70686818D01*
X112771067Y-71013676D01*
X113342135Y-71319386D01*
X113869600Y-71601698D01*
X114349258Y-71858360D01*
X114776901Y-72087120D01*
X115148326Y-72285726D01*
X115459327Y-72451928D01*
X115705697Y-72583473D01*
X115883232Y-72678111D01*
X115931243Y-72703648D01*
X117062653Y-73304833D01*
X117063660Y-73802250D01*
X117061530Y-73995747D01*
X117054986Y-74153508D01*
X117045047Y-74259149D01*
X117032917Y-74296317D01*
X116993218Y-74276280D01*
X116882191Y-74217958D01*
X116703109Y-74123101D01*
X116459247Y-73993460D01*
X116153878Y-73830786D01*
X115790276Y-73636830D01*
X115371715Y-73413342D01*
X114901469Y-73162073D01*
X114382813Y-72884775D01*
X113819019Y-72583197D01*
X113213363Y-72259090D01*
X112569117Y-71914206D01*
X111889557Y-71550295D01*
X111177955Y-71169108D01*
X110437586Y-70772395D01*
X109671724Y-70361908D01*
X108883643Y-69939397D01*
X108238167Y-69593257D01*
X107434844Y-69162404D01*
X106651272Y-68742102D01*
X105890714Y-68334104D01*
X105156436Y-67940163D01*
X104451704Y-67562033D01*
X103779781Y-67201465D01*
X103143934Y-66860214D01*
X102547427Y-66540031D01*
X101993526Y-66242671D01*
X101485496Y-65969886D01*
X101026601Y-65723429D01*
X100620107Y-65505052D01*
X100269279Y-65316510D01*
X99977382Y-65159555D01*
X99747682Y-65035940D01*
X99583442Y-64947418D01*
X99487930Y-64895742D01*
X99463191Y-64882103D01*
X99459453Y-64837864D01*
X99458252Y-64726152D01*
X99459588Y-64564123D01*
X99463191Y-64379909D01*
X99475167Y-63889159D01*
X107137500Y-67995811D01*
X107137500Y-67995811D01*
G37*
X107137500Y-67995811D02*
X107905988Y-68407658D01*
X108664518Y-68814119D01*
X109408885Y-69212942D01*
X110134882Y-69601874D01*
X110838304Y-69978666D01*
X111514946Y-70341064D01*
X112160602Y-70686818D01*
X112771067Y-71013676D01*
X113342135Y-71319386D01*
X113869600Y-71601698D01*
X114349258Y-71858360D01*
X114776901Y-72087120D01*
X115148326Y-72285726D01*
X115459327Y-72451928D01*
X115705697Y-72583473D01*
X115883232Y-72678111D01*
X115931243Y-72703648D01*
X117062653Y-73304833D01*
X117063660Y-73802250D01*
X117061530Y-73995747D01*
X117054986Y-74153508D01*
X117045047Y-74259149D01*
X117032917Y-74296317D01*
X116993218Y-74276280D01*
X116882191Y-74217958D01*
X116703109Y-74123101D01*
X116459247Y-73993460D01*
X116153878Y-73830786D01*
X115790276Y-73636830D01*
X115371715Y-73413342D01*
X114901469Y-73162073D01*
X114382813Y-72884775D01*
X113819019Y-72583197D01*
X113213363Y-72259090D01*
X112569117Y-71914206D01*
X111889557Y-71550295D01*
X111177955Y-71169108D01*
X110437586Y-70772395D01*
X109671724Y-70361908D01*
X108883643Y-69939397D01*
X108238167Y-69593257D01*
X107434844Y-69162404D01*
X106651272Y-68742102D01*
X105890714Y-68334104D01*
X105156436Y-67940163D01*
X104451704Y-67562033D01*
X103779781Y-67201465D01*
X103143934Y-66860214D01*
X102547427Y-66540031D01*
X101993526Y-66242671D01*
X101485496Y-65969886D01*
X101026601Y-65723429D01*
X100620107Y-65505052D01*
X100269279Y-65316510D01*
X99977382Y-65159555D01*
X99747682Y-65035940D01*
X99583442Y-64947418D01*
X99487930Y-64895742D01*
X99463191Y-64882103D01*
X99459453Y-64837864D01*
X99458252Y-64726152D01*
X99459588Y-64564123D01*
X99463191Y-64379909D01*
X99475167Y-63889159D01*
X107137500Y-67995811D01*
G36*
X100036084Y-71677914D02*
X100299203Y-71816571D01*
X100493783Y-71920802D01*
X100626260Y-71995520D01*
X100703066Y-72045638D01*
X100730638Y-72076066D01*
X100715410Y-72091716D01*
X100663817Y-72097501D01*
X100586842Y-72098333D01*
X100388511Y-72098333D01*
X100364167Y-72856267D01*
X99909186Y-72614884D01*
X99454204Y-72373500D01*
X99454102Y-71872666D01*
X99454000Y-71371833D01*
X100036084Y-71677914D01*
X100036084Y-71677914D01*
G37*
X100036084Y-71677914D02*
X100299203Y-71816571D01*
X100493783Y-71920802D01*
X100626260Y-71995520D01*
X100703066Y-72045638D01*
X100730638Y-72076066D01*
X100715410Y-72091716D01*
X100663817Y-72097501D01*
X100586842Y-72098333D01*
X100388511Y-72098333D01*
X100364167Y-72856267D01*
X99909186Y-72614884D01*
X99454204Y-72373500D01*
X99454102Y-71872666D01*
X99454000Y-71371833D01*
X100036084Y-71677914D01*
G36*
X117064554Y-71442167D02*
X117064610Y-71939583D01*
X117063791Y-72133397D01*
X117061518Y-72291770D01*
X117058141Y-72398204D01*
X117054084Y-72436216D01*
X117015597Y-72416801D01*
X116911554Y-72362161D01*
X116751004Y-72277105D01*
X116542994Y-72166444D01*
X116296573Y-72034985D01*
X116020788Y-71887539D01*
X115879334Y-71811799D01*
X114715167Y-71188167D01*
X115625334Y-71174893D01*
X116535500Y-71161619D01*
X117064554Y-71442167D01*
X117064554Y-71442167D01*
G37*
X117064554Y-71442167D02*
X117064610Y-71939583D01*
X117063791Y-72133397D01*
X117061518Y-72291770D01*
X117058141Y-72398204D01*
X117054084Y-72436216D01*
X117015597Y-72416801D01*
X116911554Y-72362161D01*
X116751004Y-72277105D01*
X116542994Y-72166444D01*
X116296573Y-72034985D01*
X116020788Y-71887539D01*
X115879334Y-71811799D01*
X114715167Y-71188167D01*
X115625334Y-71174893D01*
X116535500Y-71161619D01*
X117064554Y-71442167D01*
G36*
X99676250Y-65866569D02*
X99767014Y-65916463D01*
X99921771Y-66000483D01*
X100129831Y-66112868D01*
X100380504Y-66247860D01*
X100663099Y-66399699D01*
X100966927Y-66562626D01*
X101168500Y-66670548D01*
X101848055Y-67034203D01*
X102535477Y-67402167D01*
X103226728Y-67772273D01*
X103917768Y-68142354D01*
X104604559Y-68510244D01*
X105283062Y-68873774D01*
X105949237Y-69230780D01*
X106599046Y-69579093D01*
X107228449Y-69916548D01*
X107833408Y-70240977D01*
X108409883Y-70550213D01*
X108953835Y-70842091D01*
X109461226Y-71114442D01*
X109928016Y-71365101D01*
X110350166Y-71591900D01*
X110723637Y-71792672D01*
X111044390Y-71965252D01*
X111308386Y-72107472D01*
X111511586Y-72217165D01*
X111649951Y-72292164D01*
X111719442Y-72330303D01*
X111727139Y-72334828D01*
X111692113Y-72339848D01*
X111584222Y-72344172D01*
X111415268Y-72347591D01*
X111197052Y-72349899D01*
X110941375Y-72350888D01*
X110816972Y-72350846D01*
X109889167Y-72349359D01*
X104671584Y-69552365D01*
X99454000Y-66755371D01*
X99454000Y-65742119D01*
X99676250Y-65866569D01*
X99676250Y-65866569D01*
G37*
X99676250Y-65866569D02*
X99767014Y-65916463D01*
X99921771Y-66000483D01*
X100129831Y-66112868D01*
X100380504Y-66247860D01*
X100663099Y-66399699D01*
X100966927Y-66562626D01*
X101168500Y-66670548D01*
X101848055Y-67034203D01*
X102535477Y-67402167D01*
X103226728Y-67772273D01*
X103917768Y-68142354D01*
X104604559Y-68510244D01*
X105283062Y-68873774D01*
X105949237Y-69230780D01*
X106599046Y-69579093D01*
X107228449Y-69916548D01*
X107833408Y-70240977D01*
X108409883Y-70550213D01*
X108953835Y-70842091D01*
X109461226Y-71114442D01*
X109928016Y-71365101D01*
X110350166Y-71591900D01*
X110723637Y-71792672D01*
X111044390Y-71965252D01*
X111308386Y-72107472D01*
X111511586Y-72217165D01*
X111649951Y-72292164D01*
X111719442Y-72330303D01*
X111727139Y-72334828D01*
X111692113Y-72339848D01*
X111584222Y-72344172D01*
X111415268Y-72347591D01*
X111197052Y-72349899D01*
X110941375Y-72350888D01*
X110816972Y-72350846D01*
X109889167Y-72349359D01*
X104671584Y-69552365D01*
X99454000Y-66755371D01*
X99454000Y-65742119D01*
X99676250Y-65866569D01*
G36*
X99518846Y-69535331D02*
X99626206Y-69590050D01*
X99789384Y-69675249D01*
X99999059Y-69786017D01*
X100245910Y-69917445D01*
X100520615Y-70064624D01*
X100631553Y-70124299D01*
X100975443Y-70309296D01*
X101370976Y-70521762D01*
X101795088Y-70749328D01*
X102224714Y-70979622D01*
X102636789Y-71200277D01*
X103008248Y-71398921D01*
X103010000Y-71399858D01*
X103307937Y-71559225D01*
X103581464Y-71705879D01*
X103821770Y-71835068D01*
X104020040Y-71942038D01*
X104167462Y-72022039D01*
X104255223Y-72070319D01*
X104276472Y-72082725D01*
X104241446Y-72087238D01*
X104133554Y-72091195D01*
X103964599Y-72094401D01*
X103746382Y-72096660D01*
X103490703Y-72097775D01*
X103366306Y-72097851D01*
X102438500Y-72097370D01*
X100956834Y-71304101D01*
X99475167Y-70510833D01*
X99463240Y-70013417D01*
X99460605Y-69819564D01*
X99462282Y-69661032D01*
X99467827Y-69554342D01*
X99476627Y-69516000D01*
X99518846Y-69535331D01*
X99518846Y-69535331D01*
G37*
X99518846Y-69535331D02*
X99626206Y-69590050D01*
X99789384Y-69675249D01*
X99999059Y-69786017D01*
X100245910Y-69917445D01*
X100520615Y-70064624D01*
X100631553Y-70124299D01*
X100975443Y-70309296D01*
X101370976Y-70521762D01*
X101795088Y-70749328D01*
X102224714Y-70979622D01*
X102636789Y-71200277D01*
X103008248Y-71398921D01*
X103010000Y-71399858D01*
X103307937Y-71559225D01*
X103581464Y-71705879D01*
X103821770Y-71835068D01*
X104020040Y-71942038D01*
X104167462Y-72022039D01*
X104255223Y-72070319D01*
X104276472Y-72082725D01*
X104241446Y-72087238D01*
X104133554Y-72091195D01*
X103964599Y-72094401D01*
X103746382Y-72096660D01*
X103490703Y-72097775D01*
X103366306Y-72097851D01*
X102438500Y-72097370D01*
X100956834Y-71304101D01*
X99475167Y-70510833D01*
X99463240Y-70013417D01*
X99460605Y-69819564D01*
X99462282Y-69661032D01*
X99467827Y-69554342D01*
X99476627Y-69516000D01*
X99518846Y-69535331D01*
G36*
X99526696Y-67671995D02*
X99579339Y-67697706D01*
X99698278Y-67759155D01*
X99875247Y-67851968D01*
X100101982Y-67971774D01*
X100370216Y-68114198D01*
X100671684Y-68274869D01*
X100998119Y-68449413D01*
X101147334Y-68529375D01*
X101471507Y-68703134D01*
X101858012Y-68910172D01*
X102294495Y-69143877D01*
X102768605Y-69397641D01*
X103267991Y-69664854D01*
X103780301Y-69938908D01*
X104293182Y-70213192D01*
X104794283Y-70481097D01*
X105190167Y-70692684D01*
X105615951Y-70920420D01*
X106020032Y-71136944D01*
X106396161Y-71338882D01*
X106738090Y-71522860D01*
X107039571Y-71685505D01*
X107294356Y-71823443D01*
X107496195Y-71933302D01*
X107638841Y-72011707D01*
X107716046Y-72055286D01*
X107728050Y-72062866D01*
X107699895Y-72073234D01*
X107598588Y-72082407D01*
X107435645Y-72089916D01*
X107222576Y-72095289D01*
X106970896Y-72098059D01*
X106858201Y-72098333D01*
X105948134Y-72098333D01*
X105547984Y-71889064D01*
X105445613Y-71835029D01*
X105275494Y-71744622D01*
X105044482Y-71621508D01*
X104759431Y-71469351D01*
X104427198Y-71291815D01*
X104054635Y-71092566D01*
X103648599Y-70875267D01*
X103215943Y-70643584D01*
X102763523Y-70401180D01*
X102311500Y-70158856D01*
X99475167Y-68637917D01*
X99463196Y-68140564D01*
X99458981Y-67929299D01*
X99459630Y-67789445D01*
X99466930Y-67707802D01*
X99482671Y-67671169D01*
X99508643Y-67666347D01*
X99526696Y-67671995D01*
X99526696Y-67671995D01*
G37*
X99526696Y-67671995D02*
X99579339Y-67697706D01*
X99698278Y-67759155D01*
X99875247Y-67851968D01*
X100101982Y-67971774D01*
X100370216Y-68114198D01*
X100671684Y-68274869D01*
X100998119Y-68449413D01*
X101147334Y-68529375D01*
X101471507Y-68703134D01*
X101858012Y-68910172D01*
X102294495Y-69143877D01*
X102768605Y-69397641D01*
X103267991Y-69664854D01*
X103780301Y-69938908D01*
X104293182Y-70213192D01*
X104794283Y-70481097D01*
X105190167Y-70692684D01*
X105615951Y-70920420D01*
X106020032Y-71136944D01*
X106396161Y-71338882D01*
X106738090Y-71522860D01*
X107039571Y-71685505D01*
X107294356Y-71823443D01*
X107496195Y-71933302D01*
X107638841Y-72011707D01*
X107716046Y-72055286D01*
X107728050Y-72062866D01*
X107699895Y-72073234D01*
X107598588Y-72082407D01*
X107435645Y-72089916D01*
X107222576Y-72095289D01*
X106970896Y-72098059D01*
X106858201Y-72098333D01*
X105948134Y-72098333D01*
X105547984Y-71889064D01*
X105445613Y-71835029D01*
X105275494Y-71744622D01*
X105044482Y-71621508D01*
X104759431Y-71469351D01*
X104427198Y-71291815D01*
X104054635Y-71092566D01*
X103648599Y-70875267D01*
X103215943Y-70643584D01*
X102763523Y-70401180D01*
X102311500Y-70158856D01*
X99475167Y-68637917D01*
X99463196Y-68140564D01*
X99458981Y-67929299D01*
X99459630Y-67789445D01*
X99466930Y-67707802D01*
X99482671Y-67671169D01*
X99508643Y-67666347D01*
X99526696Y-67671995D01*
G36*
X99491566Y-62030055D02*
X99532193Y-62051204D01*
X99643732Y-62110370D01*
X99822472Y-62205569D01*
X100064702Y-62334815D01*
X100366713Y-62496123D01*
X100724794Y-62687510D01*
X101135236Y-62906989D01*
X101594329Y-63152576D01*
X102098363Y-63422286D01*
X102643627Y-63714135D01*
X103226411Y-64026137D01*
X103843006Y-64356307D01*
X104489701Y-64702661D01*
X105162787Y-65063214D01*
X105858553Y-65435980D01*
X106391899Y-65721770D01*
X113254667Y-69399373D01*
X113254667Y-69902186D01*
X113253834Y-70096944D01*
X113251567Y-70256168D01*
X113248211Y-70363516D01*
X113244112Y-70402645D01*
X113244084Y-70402640D01*
X113206279Y-70382724D01*
X113097535Y-70324785D01*
X112921534Y-70230793D01*
X112681962Y-70102723D01*
X112382501Y-69942546D01*
X112026837Y-69752235D01*
X111618652Y-69533762D01*
X111161632Y-69289099D01*
X110659459Y-69020219D01*
X110115819Y-68729094D01*
X109534395Y-68417697D01*
X108918871Y-68087999D01*
X108272931Y-67741974D01*
X107600260Y-67381592D01*
X106904541Y-67008828D01*
X106345100Y-66709057D01*
X99456700Y-63017833D01*
X99455350Y-62516889D01*
X99457777Y-62323926D01*
X99465384Y-62167885D01*
X99476990Y-62064625D01*
X99491415Y-62030003D01*
X99491566Y-62030055D01*
X99491566Y-62030055D01*
G37*
X99491566Y-62030055D02*
X99532193Y-62051204D01*
X99643732Y-62110370D01*
X99822472Y-62205569D01*
X100064702Y-62334815D01*
X100366713Y-62496123D01*
X100724794Y-62687510D01*
X101135236Y-62906989D01*
X101594329Y-63152576D01*
X102098363Y-63422286D01*
X102643627Y-63714135D01*
X103226411Y-64026137D01*
X103843006Y-64356307D01*
X104489701Y-64702661D01*
X105162787Y-65063214D01*
X105858553Y-65435980D01*
X106391899Y-65721770D01*
X113254667Y-69399373D01*
X113254667Y-69902186D01*
X113253834Y-70096944D01*
X113251567Y-70256168D01*
X113248211Y-70363516D01*
X113244112Y-70402645D01*
X113244084Y-70402640D01*
X113206279Y-70382724D01*
X113097535Y-70324785D01*
X112921534Y-70230793D01*
X112681962Y-70102723D01*
X112382501Y-69942546D01*
X112026837Y-69752235D01*
X111618652Y-69533762D01*
X111161632Y-69289099D01*
X110659459Y-69020219D01*
X110115819Y-68729094D01*
X109534395Y-68417697D01*
X108918871Y-68087999D01*
X108272931Y-67741974D01*
X107600260Y-67381592D01*
X106904541Y-67008828D01*
X106345100Y-66709057D01*
X99456700Y-63017833D01*
X99455350Y-62516889D01*
X99457777Y-62323926D01*
X99465384Y-62167885D01*
X99476990Y-62064625D01*
X99491415Y-62030003D01*
X99491566Y-62030055D01*
G36*
X113695219Y-67768893D02*
X114131962Y-67997119D01*
X114493312Y-68188204D01*
X114779817Y-68342447D01*
X114992022Y-68460148D01*
X115130473Y-68541606D01*
X115195717Y-68587122D01*
X115201439Y-68595250D01*
X115161348Y-68604710D01*
X115048994Y-68613048D01*
X114876778Y-68619816D01*
X114657100Y-68624569D01*
X114402361Y-68626859D01*
X114319305Y-68627000D01*
X114023916Y-68626690D01*
X113799901Y-68624866D01*
X113633969Y-68620191D01*
X113512829Y-68611322D01*
X113423188Y-68596922D01*
X113351756Y-68575651D01*
X113285240Y-68546169D01*
X113229222Y-68517142D01*
X113127272Y-68462886D01*
X112966158Y-68376841D01*
X112761314Y-68267264D01*
X112528173Y-68142411D01*
X112282168Y-68010538D01*
X112259834Y-67998558D01*
X111497834Y-67589833D01*
X112402427Y-67578393D01*
X113307021Y-67566954D01*
X113695219Y-67768893D01*
X113695219Y-67768893D01*
G37*
X113695219Y-67768893D02*
X114131962Y-67997119D01*
X114493312Y-68188204D01*
X114779817Y-68342447D01*
X114992022Y-68460148D01*
X115130473Y-68541606D01*
X115195717Y-68587122D01*
X115201439Y-68595250D01*
X115161348Y-68604710D01*
X115048994Y-68613048D01*
X114876778Y-68619816D01*
X114657100Y-68624569D01*
X114402361Y-68626859D01*
X114319305Y-68627000D01*
X114023916Y-68626690D01*
X113799901Y-68624866D01*
X113633969Y-68620191D01*
X113512829Y-68611322D01*
X113423188Y-68596922D01*
X113351756Y-68575651D01*
X113285240Y-68546169D01*
X113229222Y-68517142D01*
X113127272Y-68462886D01*
X112966158Y-68376841D01*
X112761314Y-68267264D01*
X112528173Y-68142411D01*
X112282168Y-68010538D01*
X112259834Y-67998558D01*
X111497834Y-67589833D01*
X112402427Y-67578393D01*
X113307021Y-67566954D01*
X113695219Y-67768893D01*
G36*
X115545490Y-65782299D02*
X115609446Y-65863339D01*
X115681021Y-65994240D01*
X115710559Y-66054509D01*
X115798776Y-66217589D01*
X115921511Y-66418365D01*
X116060676Y-66628189D01*
X116165084Y-66774441D01*
X116283590Y-66937418D01*
X116380836Y-67077283D01*
X116446931Y-67179374D01*
X116471985Y-67229028D01*
X116472000Y-67229458D01*
X116462024Y-67254103D01*
X116424381Y-67274654D01*
X116347499Y-67293282D01*
X116219806Y-67312159D01*
X116029730Y-67333457D01*
X115794667Y-67356594D01*
X115582806Y-67377620D01*
X115386161Y-67398625D01*
X115229391Y-67416892D01*
X115149084Y-67427736D01*
X115040679Y-67434525D01*
X114991452Y-67415277D01*
X114990334Y-67409681D01*
X115004545Y-67379366D01*
X115054294Y-67353721D01*
X115150253Y-67330561D01*
X115303093Y-67307700D01*
X115523486Y-67282953D01*
X115688834Y-67266648D01*
X115893009Y-67245610D01*
X116070408Y-67224493D01*
X116201648Y-67205790D01*
X116266533Y-67192309D01*
X116290035Y-67169167D01*
X116279954Y-67120487D01*
X116230399Y-67034817D01*
X116135476Y-66900699D01*
X116074401Y-66818849D01*
X115941006Y-66630229D01*
X115809145Y-66424437D01*
X115700463Y-66235904D01*
X115668106Y-66172575D01*
X115595043Y-66034097D01*
X115530419Y-65933808D01*
X115485824Y-65889130D01*
X115479238Y-65888665D01*
X115431168Y-65938934D01*
X115357035Y-66063623D01*
X115259495Y-66257510D01*
X115141205Y-66515368D01*
X115030492Y-66771110D01*
X114923129Y-67005583D01*
X114827254Y-67177282D01*
X114746577Y-67280819D01*
X114684809Y-67310806D01*
X114665778Y-67300555D01*
X114668653Y-67252291D01*
X114704756Y-67198509D01*
X114745434Y-67133706D01*
X114810867Y-67007397D01*
X114892951Y-66836106D01*
X114983586Y-66636360D01*
X115011025Y-66573833D01*
X115145794Y-66269196D01*
X115254887Y-66039138D01*
X115343853Y-65879539D01*
X115418243Y-65786279D01*
X115483606Y-65755239D01*
X115545490Y-65782299D01*
X115545490Y-65782299D01*
G37*
X115545490Y-65782299D02*
X115609446Y-65863339D01*
X115681021Y-65994240D01*
X115710559Y-66054509D01*
X115798776Y-66217589D01*
X115921511Y-66418365D01*
X116060676Y-66628189D01*
X116165084Y-66774441D01*
X116283590Y-66937418D01*
X116380836Y-67077283D01*
X116446931Y-67179374D01*
X116471985Y-67229028D01*
X116472000Y-67229458D01*
X116462024Y-67254103D01*
X116424381Y-67274654D01*
X116347499Y-67293282D01*
X116219806Y-67312159D01*
X116029730Y-67333457D01*
X115794667Y-67356594D01*
X115582806Y-67377620D01*
X115386161Y-67398625D01*
X115229391Y-67416892D01*
X115149084Y-67427736D01*
X115040679Y-67434525D01*
X114991452Y-67415277D01*
X114990334Y-67409681D01*
X115004545Y-67379366D01*
X115054294Y-67353721D01*
X115150253Y-67330561D01*
X115303093Y-67307700D01*
X115523486Y-67282953D01*
X115688834Y-67266648D01*
X115893009Y-67245610D01*
X116070408Y-67224493D01*
X116201648Y-67205790D01*
X116266533Y-67192309D01*
X116290035Y-67169167D01*
X116279954Y-67120487D01*
X116230399Y-67034817D01*
X116135476Y-66900699D01*
X116074401Y-66818849D01*
X115941006Y-66630229D01*
X115809145Y-66424437D01*
X115700463Y-66235904D01*
X115668106Y-66172575D01*
X115595043Y-66034097D01*
X115530419Y-65933808D01*
X115485824Y-65889130D01*
X115479238Y-65888665D01*
X115431168Y-65938934D01*
X115357035Y-66063623D01*
X115259495Y-66257510D01*
X115141205Y-66515368D01*
X115030492Y-66771110D01*
X114923129Y-67005583D01*
X114827254Y-67177282D01*
X114746577Y-67280819D01*
X114684809Y-67310806D01*
X114665778Y-67300555D01*
X114668653Y-67252291D01*
X114704756Y-67198509D01*
X114745434Y-67133706D01*
X114810867Y-67007397D01*
X114892951Y-66836106D01*
X114983586Y-66636360D01*
X115011025Y-66573833D01*
X115145794Y-66269196D01*
X115254887Y-66039138D01*
X115343853Y-65879539D01*
X115418243Y-65786279D01*
X115483606Y-65755239D01*
X115545490Y-65782299D01*
G36*
X99513539Y-60174122D02*
X99557716Y-60196664D01*
X99672148Y-60256908D01*
X99852479Y-60352527D01*
X100094358Y-60481196D01*
X100393429Y-60640589D01*
X100745341Y-60828380D01*
X101145739Y-61042243D01*
X101590269Y-61279853D01*
X102074579Y-61538884D01*
X102594314Y-61817009D01*
X103145121Y-62111904D01*
X103722647Y-62421241D01*
X104322538Y-62742696D01*
X104647843Y-62917069D01*
X105270258Y-63250723D01*
X105880485Y-63577814D01*
X106473469Y-63895633D01*
X107044156Y-64201473D01*
X107587492Y-64492626D01*
X108098421Y-64766384D01*
X108571890Y-65020039D01*
X109002843Y-65250884D01*
X109386226Y-65456210D01*
X109716985Y-65633309D01*
X109990064Y-65779475D01*
X110200410Y-65891998D01*
X110342967Y-65968171D01*
X110376000Y-65985790D01*
X111032167Y-66335476D01*
X111044094Y-66825071D01*
X111047285Y-67044989D01*
X111043533Y-67191556D01*
X111031869Y-67275877D01*
X111011325Y-67309058D01*
X111001760Y-67310638D01*
X110958935Y-67290491D01*
X110845612Y-67232421D01*
X110665869Y-67138597D01*
X110423780Y-67011189D01*
X110123422Y-66852366D01*
X109768869Y-66664298D01*
X109364197Y-66449154D01*
X108913483Y-66209104D01*
X108420800Y-65946317D01*
X107890226Y-65662964D01*
X107325835Y-65361212D01*
X106731703Y-65043234D01*
X106111905Y-64711196D01*
X105470518Y-64367270D01*
X105211334Y-64228200D01*
X99475167Y-61149791D01*
X99463196Y-60650000D01*
X99459424Y-60435799D01*
X99461176Y-60293623D01*
X99469780Y-60210933D01*
X99486561Y-60175191D01*
X99512846Y-60173860D01*
X99513539Y-60174122D01*
X99513539Y-60174122D01*
G37*
X99513539Y-60174122D02*
X99557716Y-60196664D01*
X99672148Y-60256908D01*
X99852479Y-60352527D01*
X100094358Y-60481196D01*
X100393429Y-60640589D01*
X100745341Y-60828380D01*
X101145739Y-61042243D01*
X101590269Y-61279853D01*
X102074579Y-61538884D01*
X102594314Y-61817009D01*
X103145121Y-62111904D01*
X103722647Y-62421241D01*
X104322538Y-62742696D01*
X104647843Y-62917069D01*
X105270258Y-63250723D01*
X105880485Y-63577814D01*
X106473469Y-63895633D01*
X107044156Y-64201473D01*
X107587492Y-64492626D01*
X108098421Y-64766384D01*
X108571890Y-65020039D01*
X109002843Y-65250884D01*
X109386226Y-65456210D01*
X109716985Y-65633309D01*
X109990064Y-65779475D01*
X110200410Y-65891998D01*
X110342967Y-65968171D01*
X110376000Y-65985790D01*
X111032167Y-66335476D01*
X111044094Y-66825071D01*
X111047285Y-67044989D01*
X111043533Y-67191556D01*
X111031869Y-67275877D01*
X111011325Y-67309058D01*
X111001760Y-67310638D01*
X110958935Y-67290491D01*
X110845612Y-67232421D01*
X110665869Y-67138597D01*
X110423780Y-67011189D01*
X110123422Y-66852366D01*
X109768869Y-66664298D01*
X109364197Y-66449154D01*
X108913483Y-66209104D01*
X108420800Y-65946317D01*
X107890226Y-65662964D01*
X107325835Y-65361212D01*
X106731703Y-65043234D01*
X106111905Y-64711196D01*
X105470518Y-64367270D01*
X105211334Y-64228200D01*
X99475167Y-61149791D01*
X99463196Y-60650000D01*
X99459424Y-60435799D01*
X99461176Y-60293623D01*
X99469780Y-60210933D01*
X99486561Y-60175191D01*
X99512846Y-60173860D01*
X99513539Y-60174122D01*
G36*
X115616309Y-66921274D02*
X115621437Y-66989520D01*
X115587620Y-67063706D01*
X115543450Y-67101510D01*
X115459921Y-67139764D01*
X115415627Y-67132439D01*
X115390852Y-67100332D01*
X115395494Y-67039286D01*
X115446809Y-66964489D01*
X115519120Y-66906168D01*
X115568395Y-66891333D01*
X115616309Y-66921274D01*
X115616309Y-66921274D01*
G37*
X115616309Y-66921274D02*
X115621437Y-66989520D01*
X115587620Y-67063706D01*
X115543450Y-67101510D01*
X115459921Y-67139764D01*
X115415627Y-67132439D01*
X115390852Y-67100332D01*
X115395494Y-67039286D01*
X115446809Y-66964489D01*
X115519120Y-66906168D01*
X115568395Y-66891333D01*
X115616309Y-66921274D01*
G36*
X115474766Y-66278993D02*
X115494270Y-66357447D01*
X115498334Y-66468000D01*
X115489276Y-66611662D01*
X115461005Y-66675564D01*
X115411868Y-66662772D01*
X115399556Y-66651444D01*
X115382204Y-66595064D01*
X115372255Y-66487137D01*
X115371334Y-66439778D01*
X115380278Y-66316791D01*
X115410467Y-66262372D01*
X115434834Y-66256333D01*
X115474766Y-66278993D01*
X115474766Y-66278993D01*
G37*
X115474766Y-66278993D02*
X115494270Y-66357447D01*
X115498334Y-66468000D01*
X115489276Y-66611662D01*
X115461005Y-66675564D01*
X115411868Y-66662772D01*
X115399556Y-66651444D01*
X115382204Y-66595064D01*
X115372255Y-66487137D01*
X115371334Y-66439778D01*
X115380278Y-66316791D01*
X115410467Y-66262372D01*
X115434834Y-66256333D01*
X115474766Y-66278993D01*
G36*
X99633917Y-58354394D02*
X99722039Y-58403344D01*
X99871884Y-58485125D01*
X100070476Y-58592715D01*
X100304835Y-58719096D01*
X100561983Y-58857246D01*
X100724000Y-58944037D01*
X100949672Y-59064801D01*
X101191918Y-59194456D01*
X101454686Y-59335118D01*
X101741926Y-59488901D01*
X102057587Y-59657922D01*
X102405618Y-59844295D01*
X102789969Y-60050135D01*
X103214588Y-60277559D01*
X103683426Y-60528680D01*
X104200431Y-60805614D01*
X104769552Y-61110477D01*
X105394739Y-61445384D01*
X106079941Y-61812449D01*
X106829107Y-62213789D01*
X107646187Y-62651517D01*
X108261152Y-62980972D01*
X112009470Y-64989065D01*
X113144788Y-66129333D01*
X112259834Y-66128569D01*
X107476167Y-63565308D01*
X106848676Y-63229068D01*
X106218442Y-62891344D01*
X105592107Y-62555695D01*
X104976311Y-62225680D01*
X104377695Y-61904858D01*
X103802900Y-61596790D01*
X103258566Y-61305034D01*
X102751334Y-61033150D01*
X102287846Y-60784697D01*
X101874742Y-60563234D01*
X101518662Y-60372322D01*
X101226248Y-60215518D01*
X101073250Y-60133457D01*
X99454000Y-59264866D01*
X99454000Y-58251764D01*
X99633917Y-58354394D01*
X99633917Y-58354394D01*
G37*
X99633917Y-58354394D02*
X99722039Y-58403344D01*
X99871884Y-58485125D01*
X100070476Y-58592715D01*
X100304835Y-58719096D01*
X100561983Y-58857246D01*
X100724000Y-58944037D01*
X100949672Y-59064801D01*
X101191918Y-59194456D01*
X101454686Y-59335118D01*
X101741926Y-59488901D01*
X102057587Y-59657922D01*
X102405618Y-59844295D01*
X102789969Y-60050135D01*
X103214588Y-60277559D01*
X103683426Y-60528680D01*
X104200431Y-60805614D01*
X104769552Y-61110477D01*
X105394739Y-61445384D01*
X106079941Y-61812449D01*
X106829107Y-62213789D01*
X107646187Y-62651517D01*
X108261152Y-62980972D01*
X112009470Y-64989065D01*
X113144788Y-66129333D01*
X112259834Y-66128569D01*
X107476167Y-63565308D01*
X106848676Y-63229068D01*
X106218442Y-62891344D01*
X105592107Y-62555695D01*
X104976311Y-62225680D01*
X104377695Y-61904858D01*
X103802900Y-61596790D01*
X103258566Y-61305034D01*
X102751334Y-61033150D01*
X102287846Y-60784697D01*
X101874742Y-60563234D01*
X101518662Y-60372322D01*
X101226248Y-60215518D01*
X101073250Y-60133457D01*
X99454000Y-59264866D01*
X99454000Y-58251764D01*
X99633917Y-58354394D01*
G36*
X114007206Y-64158501D02*
X113997858Y-64201744D01*
X113936975Y-64271861D01*
X113910834Y-64294886D01*
X113679481Y-64490821D01*
X113460991Y-64682218D01*
X113265586Y-64859574D01*
X113103485Y-65013388D01*
X112984913Y-65134156D01*
X112920089Y-65212378D01*
X112915444Y-65220206D01*
X112879200Y-65303709D01*
X112891618Y-65350495D01*
X112917957Y-65371563D01*
X113018358Y-65400523D01*
X113149471Y-65390251D01*
X113288087Y-65349735D01*
X113410993Y-65287967D01*
X113494978Y-65213934D01*
X113517394Y-65139404D01*
X113536766Y-65085380D01*
X113594910Y-65072064D01*
X113652676Y-65107049D01*
X113656293Y-65112458D01*
X113664077Y-65192251D01*
X113605331Y-65275163D01*
X113497573Y-65354091D01*
X113358321Y-65421931D01*
X113205093Y-65471580D01*
X113055407Y-65495936D01*
X112926779Y-65487894D01*
X112839800Y-65443533D01*
X112789297Y-65368137D01*
X112786930Y-65281700D01*
X112837478Y-65174918D01*
X112945721Y-65038487D01*
X113116438Y-64863103D01*
X113159059Y-64821997D01*
X113380503Y-64615703D01*
X113580990Y-64439785D01*
X113752405Y-64300588D01*
X113886634Y-64204462D01*
X113975563Y-64157754D01*
X114007206Y-64158501D01*
X114007206Y-64158501D01*
G37*
X114007206Y-64158501D02*
X113997858Y-64201744D01*
X113936975Y-64271861D01*
X113910834Y-64294886D01*
X113679481Y-64490821D01*
X113460991Y-64682218D01*
X113265586Y-64859574D01*
X113103485Y-65013388D01*
X112984913Y-65134156D01*
X112920089Y-65212378D01*
X112915444Y-65220206D01*
X112879200Y-65303709D01*
X112891618Y-65350495D01*
X112917957Y-65371563D01*
X113018358Y-65400523D01*
X113149471Y-65390251D01*
X113288087Y-65349735D01*
X113410993Y-65287967D01*
X113494978Y-65213934D01*
X113517394Y-65139404D01*
X113536766Y-65085380D01*
X113594910Y-65072064D01*
X113652676Y-65107049D01*
X113656293Y-65112458D01*
X113664077Y-65192251D01*
X113605331Y-65275163D01*
X113497573Y-65354091D01*
X113358321Y-65421931D01*
X113205093Y-65471580D01*
X113055407Y-65495936D01*
X112926779Y-65487894D01*
X112839800Y-65443533D01*
X112789297Y-65368137D01*
X112786930Y-65281700D01*
X112837478Y-65174918D01*
X112945721Y-65038487D01*
X113116438Y-64863103D01*
X113159059Y-64821997D01*
X113380503Y-64615703D01*
X113580990Y-64439785D01*
X113752405Y-64300588D01*
X113886634Y-64204462D01*
X113975563Y-64157754D01*
X114007206Y-64158501D01*
G36*
X116468064Y-64298612D02*
X116458970Y-64396487D01*
X116406868Y-64563350D01*
X116391401Y-64604879D01*
X116347909Y-64729980D01*
X116338458Y-64794955D01*
X116361387Y-64816452D01*
X116370234Y-64817000D01*
X116415085Y-64852996D01*
X116428326Y-64948201D01*
X116410349Y-65083439D01*
X116361570Y-65239476D01*
X116308060Y-65347422D01*
X116258815Y-65405822D01*
X116225538Y-65404485D01*
X116218000Y-65364550D01*
X116235932Y-65290691D01*
X116254477Y-65248133D01*
X116290935Y-65154811D01*
X116320954Y-65049833D01*
X116350954Y-64922833D01*
X116183513Y-65085420D01*
X116088266Y-65167471D01*
X116017043Y-65209682D01*
X115991272Y-65207878D01*
X115999090Y-65154028D01*
X116043378Y-65051282D01*
X116114573Y-64921803D01*
X116115192Y-64920773D01*
X116205849Y-64755481D01*
X116287161Y-64582294D01*
X116330496Y-64470232D01*
X116375231Y-64354077D01*
X116416575Y-64280375D01*
X116434540Y-64266667D01*
X116468064Y-64298612D01*
X116468064Y-64298612D01*
G37*
X116468064Y-64298612D02*
X116458970Y-64396487D01*
X116406868Y-64563350D01*
X116391401Y-64604879D01*
X116347909Y-64729980D01*
X116338458Y-64794955D01*
X116361387Y-64816452D01*
X116370234Y-64817000D01*
X116415085Y-64852996D01*
X116428326Y-64948201D01*
X116410349Y-65083439D01*
X116361570Y-65239476D01*
X116308060Y-65347422D01*
X116258815Y-65405822D01*
X116225538Y-65404485D01*
X116218000Y-65364550D01*
X116235932Y-65290691D01*
X116254477Y-65248133D01*
X116290935Y-65154811D01*
X116320954Y-65049833D01*
X116350954Y-64922833D01*
X116183513Y-65085420D01*
X116088266Y-65167471D01*
X116017043Y-65209682D01*
X115991272Y-65207878D01*
X115999090Y-65154028D01*
X116043378Y-65051282D01*
X116114573Y-64921803D01*
X116115192Y-64920773D01*
X116205849Y-64755481D01*
X116287161Y-64582294D01*
X116330496Y-64470232D01*
X116375231Y-64354077D01*
X116416575Y-64280375D01*
X116434540Y-64266667D01*
X116468064Y-64298612D01*
G36*
X115922374Y-64619128D02*
X115903323Y-64656435D01*
X115818214Y-64711145D01*
X115691615Y-64769771D01*
X115514125Y-64852054D01*
X115417246Y-64919490D01*
X115398743Y-64974704D01*
X115456382Y-65020318D01*
X115472566Y-65026917D01*
X115561984Y-65078578D01*
X115569785Y-65135740D01*
X115495150Y-65199900D01*
X115337913Y-65272299D01*
X115164871Y-65335177D01*
X115056784Y-65362747D01*
X115002507Y-65356806D01*
X114990334Y-65328402D01*
X115027052Y-65294654D01*
X115121553Y-65249128D01*
X115208442Y-65217027D01*
X115426551Y-65144583D01*
X115328834Y-65070875D01*
X115258381Y-64987023D01*
X115258112Y-64926822D01*
X115306752Y-64877971D01*
X115409500Y-64810149D01*
X115541995Y-64736180D01*
X115679874Y-64668891D01*
X115798776Y-64621104D01*
X115868750Y-64605367D01*
X115922374Y-64619128D01*
X115922374Y-64619128D01*
G37*
X115922374Y-64619128D02*
X115903323Y-64656435D01*
X115818214Y-64711145D01*
X115691615Y-64769771D01*
X115514125Y-64852054D01*
X115417246Y-64919490D01*
X115398743Y-64974704D01*
X115456382Y-65020318D01*
X115472566Y-65026917D01*
X115561984Y-65078578D01*
X115569785Y-65135740D01*
X115495150Y-65199900D01*
X115337913Y-65272299D01*
X115164871Y-65335177D01*
X115056784Y-65362747D01*
X115002507Y-65356806D01*
X114990334Y-65328402D01*
X115027052Y-65294654D01*
X115121553Y-65249128D01*
X115208442Y-65217027D01*
X115426551Y-65144583D01*
X115328834Y-65070875D01*
X115258381Y-64987023D01*
X115258112Y-64926822D01*
X115306752Y-64877971D01*
X115409500Y-64810149D01*
X115541995Y-64736180D01*
X115679874Y-64668891D01*
X115798776Y-64621104D01*
X115868750Y-64605367D01*
X115922374Y-64619128D01*
G36*
X114553375Y-64553691D02*
X114545834Y-64605333D01*
X114539773Y-64665408D01*
X114587967Y-64687770D01*
X114643631Y-64690000D01*
X114772991Y-64713695D01*
X114834515Y-64778991D01*
X114822158Y-64877205D01*
X114800657Y-64915634D01*
X114705475Y-65023934D01*
X114572834Y-65129706D01*
X114425441Y-65219651D01*
X114286001Y-65280470D01*
X114177220Y-65298866D01*
X114154250Y-65294227D01*
X114112653Y-65239886D01*
X114106979Y-65172648D01*
X114186000Y-65172648D01*
X114217413Y-65197884D01*
X114295485Y-65181943D01*
X114395966Y-65129911D01*
X114398831Y-65128008D01*
X114511604Y-65044092D01*
X114619058Y-64950497D01*
X114700719Y-64866569D01*
X114736114Y-64811654D01*
X114736334Y-64809080D01*
X114700706Y-64778595D01*
X114604674Y-64783078D01*
X114464513Y-64821601D01*
X114454540Y-64825160D01*
X114348391Y-64894152D01*
X114252956Y-65004533D01*
X114193896Y-65123104D01*
X114186000Y-65172648D01*
X114106979Y-65172648D01*
X114104066Y-65138140D01*
X114128966Y-65019750D01*
X114149263Y-64972967D01*
X114210968Y-64873561D01*
X114296932Y-64757989D01*
X114389705Y-64646963D01*
X114471836Y-64561194D01*
X114525875Y-64521392D01*
X114530354Y-64520667D01*
X114553375Y-64553691D01*
X114553375Y-64553691D01*
G37*
X114553375Y-64553691D02*
X114545834Y-64605333D01*
X114539773Y-64665408D01*
X114587967Y-64687770D01*
X114643631Y-64690000D01*
X114772991Y-64713695D01*
X114834515Y-64778991D01*
X114822158Y-64877205D01*
X114800657Y-64915634D01*
X114705475Y-65023934D01*
X114572834Y-65129706D01*
X114425441Y-65219651D01*
X114286001Y-65280470D01*
X114177220Y-65298866D01*
X114154250Y-65294227D01*
X114112653Y-65239886D01*
X114106979Y-65172648D01*
X114186000Y-65172648D01*
X114217413Y-65197884D01*
X114295485Y-65181943D01*
X114395966Y-65129911D01*
X114398831Y-65128008D01*
X114511604Y-65044092D01*
X114619058Y-64950497D01*
X114700719Y-64866569D01*
X114736114Y-64811654D01*
X114736334Y-64809080D01*
X114700706Y-64778595D01*
X114604674Y-64783078D01*
X114464513Y-64821601D01*
X114454540Y-64825160D01*
X114348391Y-64894152D01*
X114252956Y-65004533D01*
X114193896Y-65123104D01*
X114186000Y-65172648D01*
X114106979Y-65172648D01*
X114104066Y-65138140D01*
X114128966Y-65019750D01*
X114149263Y-64972967D01*
X114210968Y-64873561D01*
X114296932Y-64757989D01*
X114389705Y-64646963D01*
X114471836Y-64561194D01*
X114525875Y-64521392D01*
X114530354Y-64520667D01*
X114553375Y-64553691D01*
G36*
X100277695Y-56830366D02*
X100346682Y-56867623D01*
X100485545Y-56942294D01*
X100689523Y-57051823D01*
X100953850Y-57193658D01*
X101273764Y-57365245D01*
X101644501Y-57564031D01*
X102061299Y-57787463D01*
X102519393Y-58032986D01*
X103014020Y-58298047D01*
X103540417Y-58580093D01*
X104093821Y-58876570D01*
X104669468Y-59184925D01*
X105262595Y-59502605D01*
X105264250Y-59503491D01*
X109995000Y-62037131D01*
X109995000Y-62538065D01*
X109994164Y-62732510D01*
X109991889Y-62891467D01*
X109988521Y-62998536D01*
X109984417Y-63037315D01*
X109946550Y-63017476D01*
X109838293Y-62959867D01*
X109663862Y-62866747D01*
X109427472Y-62740373D01*
X109133341Y-62583005D01*
X108785684Y-62396900D01*
X108388719Y-62184316D01*
X107946661Y-61947512D01*
X107463727Y-61688746D01*
X106944133Y-61410277D01*
X106392095Y-61114362D01*
X105811830Y-60803259D01*
X105207555Y-60479228D01*
X104711953Y-60213430D01*
X99450073Y-57391231D01*
X99462620Y-57199737D01*
X99472538Y-57099818D01*
X99497228Y-57030528D01*
X99553056Y-56971821D01*
X99656391Y-56903650D01*
X99748528Y-56849561D01*
X100021889Y-56690880D01*
X100277695Y-56830366D01*
X100277695Y-56830366D01*
G37*
X100277695Y-56830366D02*
X100346682Y-56867623D01*
X100485545Y-56942294D01*
X100689523Y-57051823D01*
X100953850Y-57193658D01*
X101273764Y-57365245D01*
X101644501Y-57564031D01*
X102061299Y-57787463D01*
X102519393Y-58032986D01*
X103014020Y-58298047D01*
X103540417Y-58580093D01*
X104093821Y-58876570D01*
X104669468Y-59184925D01*
X105262595Y-59502605D01*
X105264250Y-59503491D01*
X109995000Y-62037131D01*
X109995000Y-62538065D01*
X109994164Y-62732510D01*
X109991889Y-62891467D01*
X109988521Y-62998536D01*
X109984417Y-63037315D01*
X109946550Y-63017476D01*
X109838293Y-62959867D01*
X109663862Y-62866747D01*
X109427472Y-62740373D01*
X109133341Y-62583005D01*
X108785684Y-62396900D01*
X108388719Y-62184316D01*
X107946661Y-61947512D01*
X107463727Y-61688746D01*
X106944133Y-61410277D01*
X106392095Y-61114362D01*
X105811830Y-60803259D01*
X105207555Y-60479228D01*
X104711953Y-60213430D01*
X99450073Y-57391231D01*
X99462620Y-57199737D01*
X99472538Y-57099818D01*
X99497228Y-57030528D01*
X99553056Y-56971821D01*
X99656391Y-56903650D01*
X99748528Y-56849561D01*
X100021889Y-56690880D01*
X100277695Y-56830366D01*
G36*
X102058890Y-55912578D02*
X102259847Y-56019967D01*
X102475367Y-56135906D01*
X102665219Y-56238737D01*
X102699876Y-56257630D01*
X102988834Y-56415414D01*
X103001271Y-56721540D01*
X103013709Y-57027667D01*
X104130924Y-57027667D01*
X105909379Y-57978240D01*
X106320450Y-58197986D01*
X106753161Y-58429357D01*
X107192517Y-58664331D01*
X107623526Y-58894888D01*
X108031196Y-59113008D01*
X108400535Y-59310672D01*
X108716550Y-59479858D01*
X108830834Y-59541066D01*
X109973834Y-60153318D01*
X109985760Y-60643659D01*
X109988957Y-60863662D01*
X109985237Y-61010307D01*
X109973632Y-61094695D01*
X109953176Y-61127924D01*
X109943427Y-61129498D01*
X109899830Y-61109256D01*
X109786349Y-61051363D01*
X109607653Y-60958300D01*
X109368409Y-60832548D01*
X109073285Y-60676587D01*
X108726949Y-60492900D01*
X108334067Y-60283966D01*
X107899309Y-60052268D01*
X107427341Y-59800287D01*
X106922832Y-59530502D01*
X106390448Y-59245396D01*
X105834858Y-58947450D01*
X105486500Y-58760433D01*
X104916914Y-58454487D01*
X104366408Y-58158721D01*
X103839776Y-57875716D01*
X103341814Y-57608049D01*
X102877315Y-57358302D01*
X102451076Y-57129053D01*
X102067890Y-56922882D01*
X101732554Y-56742369D01*
X101449860Y-56590093D01*
X101224605Y-56468634D01*
X101061583Y-56380572D01*
X100965589Y-56328486D01*
X100942543Y-56315793D01*
X100801252Y-56235717D01*
X101254056Y-55980513D01*
X101706861Y-55725309D01*
X102058890Y-55912578D01*
X102058890Y-55912578D01*
G37*
X102058890Y-55912578D02*
X102259847Y-56019967D01*
X102475367Y-56135906D01*
X102665219Y-56238737D01*
X102699876Y-56257630D01*
X102988834Y-56415414D01*
X103001271Y-56721540D01*
X103013709Y-57027667D01*
X104130924Y-57027667D01*
X105909379Y-57978240D01*
X106320450Y-58197986D01*
X106753161Y-58429357D01*
X107192517Y-58664331D01*
X107623526Y-58894888D01*
X108031196Y-59113008D01*
X108400535Y-59310672D01*
X108716550Y-59479858D01*
X108830834Y-59541066D01*
X109973834Y-60153318D01*
X109985760Y-60643659D01*
X109988957Y-60863662D01*
X109985237Y-61010307D01*
X109973632Y-61094695D01*
X109953176Y-61127924D01*
X109943427Y-61129498D01*
X109899830Y-61109256D01*
X109786349Y-61051363D01*
X109607653Y-60958300D01*
X109368409Y-60832548D01*
X109073285Y-60676587D01*
X108726949Y-60492900D01*
X108334067Y-60283966D01*
X107899309Y-60052268D01*
X107427341Y-59800287D01*
X106922832Y-59530502D01*
X106390448Y-59245396D01*
X105834858Y-58947450D01*
X105486500Y-58760433D01*
X104916914Y-58454487D01*
X104366408Y-58158721D01*
X103839776Y-57875716D01*
X103341814Y-57608049D01*
X102877315Y-57358302D01*
X102451076Y-57129053D01*
X102067890Y-56922882D01*
X101732554Y-56742369D01*
X101449860Y-56590093D01*
X101224605Y-56468634D01*
X101061583Y-56380572D01*
X100965589Y-56328486D01*
X100942543Y-56315793D01*
X100801252Y-56235717D01*
X101254056Y-55980513D01*
X101706861Y-55725309D01*
X102058890Y-55912578D01*
G36*
X105665103Y-55988804D02*
X105775355Y-56044792D01*
X105946798Y-56133787D01*
X106172736Y-56252258D01*
X106446473Y-56396672D01*
X106761312Y-56563500D01*
X107110556Y-56749208D01*
X107487509Y-56950268D01*
X107814834Y-57125314D01*
X109973834Y-58281254D01*
X109985760Y-58776293D01*
X109987775Y-58969467D01*
X109984393Y-59127120D01*
X109976319Y-59232759D01*
X109964594Y-59269931D01*
X109922256Y-59250178D01*
X109812073Y-59193808D01*
X109640735Y-59104363D01*
X109414931Y-58985386D01*
X109141352Y-58840421D01*
X108826686Y-58673012D01*
X108477625Y-58486702D01*
X108100858Y-58285034D01*
X107772500Y-58108851D01*
X105613500Y-56949174D01*
X105601573Y-56459253D01*
X105599563Y-56266996D01*
X105603006Y-56110181D01*
X105611183Y-56005451D01*
X105622740Y-55969354D01*
X105665103Y-55988804D01*
X105665103Y-55988804D01*
G37*
X105665103Y-55988804D02*
X105775355Y-56044792D01*
X105946798Y-56133787D01*
X106172736Y-56252258D01*
X106446473Y-56396672D01*
X106761312Y-56563500D01*
X107110556Y-56749208D01*
X107487509Y-56950268D01*
X107814834Y-57125314D01*
X109973834Y-58281254D01*
X109985760Y-58776293D01*
X109987775Y-58969467D01*
X109984393Y-59127120D01*
X109976319Y-59232759D01*
X109964594Y-59269931D01*
X109922256Y-59250178D01*
X109812073Y-59193808D01*
X109640735Y-59104363D01*
X109414931Y-58985386D01*
X109141352Y-58840421D01*
X108826686Y-58673012D01*
X108477625Y-58486702D01*
X108100858Y-58285034D01*
X107772500Y-58108851D01*
X105613500Y-56949174D01*
X105601573Y-56459253D01*
X105599563Y-56266996D01*
X105603006Y-56110181D01*
X105611183Y-56005451D01*
X105622740Y-55969354D01*
X105665103Y-55988804D01*
G36*
X82374737Y-71895959D02*
X82380775Y-71951583D01*
X82355941Y-72041763D01*
X82314549Y-72130200D01*
X82270917Y-72180597D01*
X82261531Y-72183000D01*
X82230294Y-72147874D01*
X82224334Y-72106424D01*
X82243686Y-72023264D01*
X82288897Y-71943619D01*
X82340697Y-71894453D01*
X82374737Y-71895959D01*
X82374737Y-71895959D01*
G37*
X82374737Y-71895959D02*
X82380775Y-71951583D01*
X82355941Y-72041763D01*
X82314549Y-72130200D01*
X82270917Y-72180597D01*
X82261531Y-72183000D01*
X82230294Y-72147874D01*
X82224334Y-72106424D01*
X82243686Y-72023264D01*
X82288897Y-71943619D01*
X82340697Y-71894453D01*
X82374737Y-71895959D01*
G36*
X83145806Y-71198303D02*
X83155667Y-71231909D01*
X83119539Y-71286221D01*
X83048846Y-71319197D01*
X82951750Y-71369632D01*
X82864989Y-71453981D01*
X82818742Y-71541237D01*
X82817000Y-71557419D01*
X82854425Y-71578740D01*
X82947213Y-71590328D01*
X82975750Y-71590981D01*
X83135871Y-71609177D01*
X83219078Y-71659546D01*
X83225053Y-71738194D01*
X83153483Y-71841224D01*
X83005919Y-71963426D01*
X82887707Y-72045553D01*
X82819924Y-72085711D01*
X82783973Y-72090958D01*
X82761257Y-72068356D01*
X82755127Y-72058633D01*
X82773289Y-72015154D01*
X82845886Y-71944654D01*
X82922834Y-71886667D01*
X83042121Y-71791528D01*
X83081953Y-71725129D01*
X83042374Y-71687748D01*
X82923428Y-71679663D01*
X82889951Y-71681598D01*
X82765113Y-71679425D01*
X82708074Y-71642062D01*
X82712783Y-71558058D01*
X82761880Y-71439216D01*
X82853192Y-71306946D01*
X82985988Y-71229643D01*
X82996917Y-71225793D01*
X83099873Y-71195084D01*
X83145806Y-71198303D01*
X83145806Y-71198303D01*
G37*
X83145806Y-71198303D02*
X83155667Y-71231909D01*
X83119539Y-71286221D01*
X83048846Y-71319197D01*
X82951750Y-71369632D01*
X82864989Y-71453981D01*
X82818742Y-71541237D01*
X82817000Y-71557419D01*
X82854425Y-71578740D01*
X82947213Y-71590328D01*
X82975750Y-71590981D01*
X83135871Y-71609177D01*
X83219078Y-71659546D01*
X83225053Y-71738194D01*
X83153483Y-71841224D01*
X83005919Y-71963426D01*
X82887707Y-72045553D01*
X82819924Y-72085711D01*
X82783973Y-72090958D01*
X82761257Y-72068356D01*
X82755127Y-72058633D01*
X82773289Y-72015154D01*
X82845886Y-71944654D01*
X82922834Y-71886667D01*
X83042121Y-71791528D01*
X83081953Y-71725129D01*
X83042374Y-71687748D01*
X82923428Y-71679663D01*
X82889951Y-71681598D01*
X82765113Y-71679425D01*
X82708074Y-71642062D01*
X82712783Y-71558058D01*
X82761880Y-71439216D01*
X82853192Y-71306946D01*
X82985988Y-71229643D01*
X82996917Y-71225793D01*
X83099873Y-71195084D01*
X83145806Y-71198303D01*
G36*
X84167519Y-71257828D02*
X84168837Y-71297927D01*
X84131846Y-71390457D01*
X84066708Y-71518431D01*
X83983584Y-71664861D01*
X83892639Y-71812761D01*
X83804034Y-71945143D01*
X83727931Y-72045020D01*
X83674494Y-72095405D01*
X83664694Y-72098333D01*
X83632668Y-72061403D01*
X83589542Y-71966235D01*
X83558311Y-71876083D01*
X83515716Y-71742148D01*
X83480798Y-71637945D01*
X83467113Y-71600917D01*
X83479569Y-71554714D01*
X83506836Y-71548000D01*
X83565489Y-71586306D01*
X83622161Y-71686241D01*
X83665118Y-71825333D01*
X83672650Y-71865500D01*
X83691106Y-71890411D01*
X83732392Y-71852870D01*
X83801755Y-71747040D01*
X83843858Y-71675000D01*
X83958492Y-71480183D01*
X84042749Y-71351676D01*
X84103986Y-71279996D01*
X84149560Y-71255658D01*
X84167519Y-71257828D01*
X84167519Y-71257828D01*
G37*
X84167519Y-71257828D02*
X84168837Y-71297927D01*
X84131846Y-71390457D01*
X84066708Y-71518431D01*
X83983584Y-71664861D01*
X83892639Y-71812761D01*
X83804034Y-71945143D01*
X83727931Y-72045020D01*
X83674494Y-72095405D01*
X83664694Y-72098333D01*
X83632668Y-72061403D01*
X83589542Y-71966235D01*
X83558311Y-71876083D01*
X83515716Y-71742148D01*
X83480798Y-71637945D01*
X83467113Y-71600917D01*
X83479569Y-71554714D01*
X83506836Y-71548000D01*
X83565489Y-71586306D01*
X83622161Y-71686241D01*
X83665118Y-71825333D01*
X83672650Y-71865500D01*
X83691106Y-71890411D01*
X83732392Y-71852870D01*
X83801755Y-71747040D01*
X83843858Y-71675000D01*
X83958492Y-71480183D01*
X84042749Y-71351676D01*
X84103986Y-71279996D01*
X84149560Y-71255658D01*
X84167519Y-71257828D01*
G36*
X82163349Y-71136386D02*
X82174764Y-71178019D01*
X82145191Y-71259278D01*
X82071261Y-71389875D01*
X81964315Y-71557167D01*
X81872257Y-71703002D01*
X81804524Y-71821245D01*
X81770278Y-71895285D01*
X81769041Y-71911152D01*
X81815584Y-71905610D01*
X81903917Y-71864218D01*
X81933809Y-71846773D01*
X82051152Y-71781114D01*
X82114693Y-71764208D01*
X82138285Y-71793898D01*
X82139667Y-71814731D01*
X82104445Y-71861111D01*
X82016428Y-71922832D01*
X81902085Y-71985483D01*
X81787886Y-72034652D01*
X81700303Y-72055925D01*
X81696533Y-72056000D01*
X81625479Y-72030560D01*
X81611269Y-72014910D01*
X81613254Y-71944381D01*
X81665669Y-71821055D01*
X81763052Y-71655735D01*
X81875044Y-71493094D01*
X81950621Y-71382408D01*
X81996751Y-71301319D01*
X82004118Y-71271340D01*
X81962096Y-71282241D01*
X81879227Y-71331986D01*
X81844567Y-71356590D01*
X81742458Y-71417859D01*
X81673154Y-71434913D01*
X81650448Y-71409746D01*
X81688136Y-71344356D01*
X81696258Y-71335128D01*
X81793567Y-71256651D01*
X81925009Y-71183482D01*
X82052996Y-71134542D01*
X82114315Y-71124667D01*
X82163349Y-71136386D01*
X82163349Y-71136386D01*
G37*
X82163349Y-71136386D02*
X82174764Y-71178019D01*
X82145191Y-71259278D01*
X82071261Y-71389875D01*
X81964315Y-71557167D01*
X81872257Y-71703002D01*
X81804524Y-71821245D01*
X81770278Y-71895285D01*
X81769041Y-71911152D01*
X81815584Y-71905610D01*
X81903917Y-71864218D01*
X81933809Y-71846773D01*
X82051152Y-71781114D01*
X82114693Y-71764208D01*
X82138285Y-71793898D01*
X82139667Y-71814731D01*
X82104445Y-71861111D01*
X82016428Y-71922832D01*
X81902085Y-71985483D01*
X81787886Y-72034652D01*
X81700303Y-72055925D01*
X81696533Y-72056000D01*
X81625479Y-72030560D01*
X81611269Y-72014910D01*
X81613254Y-71944381D01*
X81665669Y-71821055D01*
X81763052Y-71655735D01*
X81875044Y-71493094D01*
X81950621Y-71382408D01*
X81996751Y-71301319D01*
X82004118Y-71271340D01*
X81962096Y-71282241D01*
X81879227Y-71331986D01*
X81844567Y-71356590D01*
X81742458Y-71417859D01*
X81673154Y-71434913D01*
X81650448Y-71409746D01*
X81688136Y-71344356D01*
X81696258Y-71335128D01*
X81793567Y-71256651D01*
X81925009Y-71183482D01*
X82052996Y-71134542D01*
X82114315Y-71124667D01*
X82163349Y-71136386D01*
G36*
X83354124Y-49133246D02*
X83341988Y-49280879D01*
X83305349Y-49508538D01*
X83290490Y-49587808D01*
X83217177Y-50003534D01*
X83143827Y-50482739D01*
X83073184Y-51004284D01*
X83007993Y-51547027D01*
X82950998Y-52089829D01*
X82916793Y-52466250D01*
X82886754Y-52798619D01*
X82859453Y-53049476D01*
X82834452Y-53221915D01*
X82811315Y-53319030D01*
X82792724Y-53344667D01*
X82760487Y-53305032D01*
X82756679Y-53187339D01*
X82758434Y-53164750D01*
X82767188Y-53063786D01*
X82781652Y-52896271D01*
X82800289Y-52680010D01*
X82821566Y-52432807D01*
X82839620Y-52222833D01*
X82868482Y-51917329D01*
X82904473Y-51584477D01*
X82946033Y-51234832D01*
X82991602Y-50878949D01*
X83039618Y-50527384D01*
X83088522Y-50190691D01*
X83136753Y-49879425D01*
X83182752Y-49604142D01*
X83224957Y-49375397D01*
X83261808Y-49203745D01*
X83291745Y-49099741D01*
X83304976Y-49074913D01*
X83341779Y-49064853D01*
X83354124Y-49133246D01*
X83354124Y-49133246D01*
G37*
X83354124Y-49133246D02*
X83341988Y-49280879D01*
X83305349Y-49508538D01*
X83290490Y-49587808D01*
X83217177Y-50003534D01*
X83143827Y-50482739D01*
X83073184Y-51004284D01*
X83007993Y-51547027D01*
X82950998Y-52089829D01*
X82916793Y-52466250D01*
X82886754Y-52798619D01*
X82859453Y-53049476D01*
X82834452Y-53221915D01*
X82811315Y-53319030D01*
X82792724Y-53344667D01*
X82760487Y-53305032D01*
X82756679Y-53187339D01*
X82758434Y-53164750D01*
X82767188Y-53063786D01*
X82781652Y-52896271D01*
X82800289Y-52680010D01*
X82821566Y-52432807D01*
X82839620Y-52222833D01*
X82868482Y-51917329D01*
X82904473Y-51584477D01*
X82946033Y-51234832D01*
X82991602Y-50878949D01*
X83039618Y-50527384D01*
X83088522Y-50190691D01*
X83136753Y-49879425D01*
X83182752Y-49604142D01*
X83224957Y-49375397D01*
X83261808Y-49203745D01*
X83291745Y-49099741D01*
X83304976Y-49074913D01*
X83341779Y-49064853D01*
X83354124Y-49133246D01*
G36*
X83548430Y-47810753D02*
X83569633Y-47838121D01*
X83584983Y-47899329D01*
X83594823Y-48002233D01*
X83599496Y-48154688D01*
X83599345Y-48364551D01*
X83594712Y-48639677D01*
X83585940Y-48987922D01*
X83580610Y-49174833D01*
X83571816Y-49483984D01*
X83564263Y-49765706D01*
X83558215Y-50008846D01*
X83553933Y-50202251D01*
X83551679Y-50334766D01*
X83551715Y-50395238D01*
X83551899Y-50397208D01*
X83524177Y-50442291D01*
X83498057Y-50455939D01*
X83480757Y-50452104D01*
X83467735Y-50420860D01*
X83458762Y-50353841D01*
X83453607Y-50242681D01*
X83452043Y-50079013D01*
X83453840Y-49854473D01*
X83458768Y-49560693D01*
X83465151Y-49254731D01*
X83492021Y-48031833D01*
X83386353Y-48233270D01*
X83336724Y-48334832D01*
X83261036Y-48498484D01*
X83166408Y-48708423D01*
X83059955Y-48948843D01*
X82948795Y-49203939D01*
X82938360Y-49228103D01*
X82777892Y-49594756D01*
X82645110Y-49886209D01*
X82537934Y-50106523D01*
X82454281Y-50259759D01*
X82392072Y-50349979D01*
X82349224Y-50381243D01*
X82347311Y-50381333D01*
X82313002Y-50350448D01*
X82317569Y-50283965D01*
X82349940Y-50230326D01*
X82396666Y-50160618D01*
X82471428Y-50019408D01*
X82570855Y-49813819D01*
X82691573Y-49550976D01*
X82830211Y-49238003D01*
X82939784Y-48984333D01*
X83107452Y-48598362D01*
X83246820Y-48290573D01*
X83358566Y-48059599D01*
X83443367Y-47904068D01*
X83501900Y-47822610D01*
X83521031Y-47809370D01*
X83548430Y-47810753D01*
X83548430Y-47810753D01*
G37*
X83548430Y-47810753D02*
X83569633Y-47838121D01*
X83584983Y-47899329D01*
X83594823Y-48002233D01*
X83599496Y-48154688D01*
X83599345Y-48364551D01*
X83594712Y-48639677D01*
X83585940Y-48987922D01*
X83580610Y-49174833D01*
X83571816Y-49483984D01*
X83564263Y-49765706D01*
X83558215Y-50008846D01*
X83553933Y-50202251D01*
X83551679Y-50334766D01*
X83551715Y-50395238D01*
X83551899Y-50397208D01*
X83524177Y-50442291D01*
X83498057Y-50455939D01*
X83480757Y-50452104D01*
X83467735Y-50420860D01*
X83458762Y-50353841D01*
X83453607Y-50242681D01*
X83452043Y-50079013D01*
X83453840Y-49854473D01*
X83458768Y-49560693D01*
X83465151Y-49254731D01*
X83492021Y-48031833D01*
X83386353Y-48233270D01*
X83336724Y-48334832D01*
X83261036Y-48498484D01*
X83166408Y-48708423D01*
X83059955Y-48948843D01*
X82948795Y-49203939D01*
X82938360Y-49228103D01*
X82777892Y-49594756D01*
X82645110Y-49886209D01*
X82537934Y-50106523D01*
X82454281Y-50259759D01*
X82392072Y-50349979D01*
X82349224Y-50381243D01*
X82347311Y-50381333D01*
X82313002Y-50350448D01*
X82317569Y-50283965D01*
X82349940Y-50230326D01*
X82396666Y-50160618D01*
X82471428Y-50019408D01*
X82570855Y-49813819D01*
X82691573Y-49550976D01*
X82830211Y-49238003D01*
X82939784Y-48984333D01*
X83107452Y-48598362D01*
X83246820Y-48290573D01*
X83358566Y-48059599D01*
X83443367Y-47904068D01*
X83501900Y-47822610D01*
X83521031Y-47809370D01*
X83548430Y-47810753D01*
D12*
X84338095Y-67852381D02*
X84338095Y-68661905D01*
X84385714Y-68757143D01*
X84433333Y-68804762D01*
X84528571Y-68852381D01*
X84719048Y-68852381D01*
X84814286Y-68804762D01*
X84861905Y-68757143D01*
X84909524Y-68661905D01*
X84909524Y-67852381D01*
X85909524Y-68852381D02*
X85338095Y-68852381D01*
X85623809Y-68852381D02*
X85623809Y-67852381D01*
X85528571Y-67995238D01*
X85433333Y-68090476D01*
X85338095Y-68138095D01*
X104244762Y-56793619D02*
X104149524Y-56746000D01*
X104054286Y-56650762D01*
X103911429Y-56507905D01*
X103816190Y-56460286D01*
X103720952Y-56460286D01*
X103768571Y-56698381D02*
X103673333Y-56650762D01*
X103578095Y-56555524D01*
X103530476Y-56365048D01*
X103530476Y-56031714D01*
X103578095Y-55841238D01*
X103673333Y-55746000D01*
X103768571Y-55698381D01*
X103959048Y-55698381D01*
X104054286Y-55746000D01*
X104149524Y-55841238D01*
X104197143Y-56031714D01*
X104197143Y-56365048D01*
X104149524Y-56555524D01*
X104054286Y-56650762D01*
X103959048Y-56698381D01*
X103768571Y-56698381D01*
X105149524Y-56698381D02*
X104578095Y-56698381D01*
X104863809Y-56698381D02*
X104863809Y-55698381D01*
X104768571Y-55841238D01*
X104673333Y-55936476D01*
X104578095Y-55984095D01*
X103538095Y-82952381D02*
X103538095Y-83761905D01*
X103585714Y-83857143D01*
X103633333Y-83904762D01*
X103728571Y-83952381D01*
X103919048Y-83952381D01*
X104014286Y-83904762D01*
X104061905Y-83857143D01*
X104109524Y-83761905D01*
X104109524Y-82952381D01*
X104538095Y-83047619D02*
X104585714Y-83000000D01*
X104680952Y-82952381D01*
X104919048Y-82952381D01*
X105014286Y-83000000D01*
X105061905Y-83047619D01*
X105109524Y-83142857D01*
X105109524Y-83238095D01*
X105061905Y-83380952D01*
X104490476Y-83952381D01*
X105109524Y-83952381D01*
X88333334Y-83457143D02*
X88285715Y-83504762D01*
X88142858Y-83552381D01*
X88047620Y-83552381D01*
X87904762Y-83504762D01*
X87809524Y-83409524D01*
X87761905Y-83314286D01*
X87714286Y-83123810D01*
X87714286Y-82980952D01*
X87761905Y-82790476D01*
X87809524Y-82695238D01*
X87904762Y-82600000D01*
X88047620Y-82552381D01*
X88142858Y-82552381D01*
X88285715Y-82600000D01*
X88333334Y-82647619D01*
X89285715Y-83552381D02*
X88714286Y-83552381D01*
X89000000Y-83552381D02*
X89000000Y-82552381D01*
X88904762Y-82695238D01*
X88809524Y-82790476D01*
X88714286Y-82838095D01*
X111833334Y-70607143D02*
X111785715Y-70654762D01*
X111642858Y-70702381D01*
X111547620Y-70702381D01*
X111404762Y-70654762D01*
X111309524Y-70559524D01*
X111261905Y-70464286D01*
X111214286Y-70273810D01*
X111214286Y-70130952D01*
X111261905Y-69940476D01*
X111309524Y-69845238D01*
X111404762Y-69750000D01*
X111547620Y-69702381D01*
X111642858Y-69702381D01*
X111785715Y-69750000D01*
X111833334Y-69797619D01*
X112166667Y-69702381D02*
X112785715Y-69702381D01*
X112452381Y-70083333D01*
X112595239Y-70083333D01*
X112690477Y-70130952D01*
X112738096Y-70178571D01*
X112785715Y-70273810D01*
X112785715Y-70511905D01*
X112738096Y-70607143D01*
X112690477Y-70654762D01*
X112595239Y-70702381D01*
X112309524Y-70702381D01*
X112214286Y-70654762D01*
X112166667Y-70607143D01*
X111261905Y-73452381D02*
X111261905Y-72452381D01*
X111500000Y-72452381D01*
X111642858Y-72500000D01*
X111738096Y-72595238D01*
X111785715Y-72690476D01*
X111833334Y-72880952D01*
X111833334Y-73023810D01*
X111785715Y-73214286D01*
X111738096Y-73309524D01*
X111642858Y-73404762D01*
X111500000Y-73452381D01*
X111261905Y-73452381D01*
X112785715Y-73452381D02*
X112214286Y-73452381D01*
X112500000Y-73452381D02*
X112500000Y-72452381D01*
X112404762Y-72595238D01*
X112309524Y-72690476D01*
X112214286Y-72738095D01*
X109083334Y-73452381D02*
X108750000Y-72976190D01*
X108511905Y-73452381D02*
X108511905Y-72452381D01*
X108892858Y-72452381D01*
X108988096Y-72500000D01*
X109035715Y-72547619D01*
X109083334Y-72642857D01*
X109083334Y-72785714D01*
X109035715Y-72880952D01*
X108988096Y-72928571D01*
X108892858Y-72976190D01*
X108511905Y-72976190D01*
X110035715Y-73452381D02*
X109464286Y-73452381D01*
X109750000Y-73452381D02*
X109750000Y-72452381D01*
X109654762Y-72595238D01*
X109559524Y-72690476D01*
X109464286Y-72738095D01*
X95852381Y-61266666D02*
X95376190Y-61600000D01*
X95852381Y-61838095D02*
X94852381Y-61838095D01*
X94852381Y-61457142D01*
X94900000Y-61361904D01*
X94947619Y-61314285D01*
X95042857Y-61266666D01*
X95185714Y-61266666D01*
X95280952Y-61314285D01*
X95328571Y-61361904D01*
X95376190Y-61457142D01*
X95376190Y-61838095D01*
X94947619Y-60885714D02*
X94900000Y-60838095D01*
X94852381Y-60742857D01*
X94852381Y-60504761D01*
X94900000Y-60409523D01*
X94947619Y-60361904D01*
X95042857Y-60314285D01*
X95138095Y-60314285D01*
X95280952Y-60361904D01*
X95852381Y-60933333D01*
X95852381Y-60314285D01*
X93833334Y-83552381D02*
X93500000Y-83076190D01*
X93261905Y-83552381D02*
X93261905Y-82552381D01*
X93642858Y-82552381D01*
X93738096Y-82600000D01*
X93785715Y-82647619D01*
X93833334Y-82742857D01*
X93833334Y-82885714D01*
X93785715Y-82980952D01*
X93738096Y-83028571D01*
X93642858Y-83076190D01*
X93261905Y-83076190D01*
X94166667Y-82552381D02*
X94785715Y-82552381D01*
X94452381Y-82933333D01*
X94595239Y-82933333D01*
X94690477Y-82980952D01*
X94738096Y-83028571D01*
X94785715Y-83123810D01*
X94785715Y-83361905D01*
X94738096Y-83457143D01*
X94690477Y-83504762D01*
X94595239Y-83552381D01*
X94309524Y-83552381D01*
X94214286Y-83504762D01*
X94166667Y-83457143D01*
X91133334Y-83552381D02*
X90800000Y-83076190D01*
X90561905Y-83552381D02*
X90561905Y-82552381D01*
X90942858Y-82552381D01*
X91038096Y-82600000D01*
X91085715Y-82647619D01*
X91133334Y-82742857D01*
X91133334Y-82885714D01*
X91085715Y-82980952D01*
X91038096Y-83028571D01*
X90942858Y-83076190D01*
X90561905Y-83076190D01*
X91990477Y-82885714D02*
X91990477Y-83552381D01*
X91752381Y-82504762D02*
X91514286Y-83219048D01*
X92133334Y-83219048D01*
X88752381Y-61166666D02*
X88276190Y-61500000D01*
X88752381Y-61738095D02*
X87752381Y-61738095D01*
X87752381Y-61357142D01*
X87800000Y-61261904D01*
X87847619Y-61214285D01*
X87942857Y-61166666D01*
X88085714Y-61166666D01*
X88180952Y-61214285D01*
X88228571Y-61261904D01*
X88276190Y-61357142D01*
X88276190Y-61738095D01*
X87752381Y-60261904D02*
X87752381Y-60738095D01*
X88228571Y-60785714D01*
X88180952Y-60738095D01*
X88133333Y-60642857D01*
X88133333Y-60404761D01*
X88180952Y-60309523D01*
X88228571Y-60261904D01*
X88323810Y-60214285D01*
X88561905Y-60214285D01*
X88657143Y-60261904D01*
X88704762Y-60309523D01*
X88752381Y-60404761D01*
X88752381Y-60642857D01*
X88704762Y-60738095D01*
X88657143Y-60785714D01*
X110033334Y-83652381D02*
X109700000Y-83176190D01*
X109461905Y-83652381D02*
X109461905Y-82652381D01*
X109842858Y-82652381D01*
X109938096Y-82700000D01*
X109985715Y-82747619D01*
X110033334Y-82842857D01*
X110033334Y-82985714D01*
X109985715Y-83080952D01*
X109938096Y-83128571D01*
X109842858Y-83176190D01*
X109461905Y-83176190D01*
X110890477Y-82652381D02*
X110700000Y-82652381D01*
X110604762Y-82700000D01*
X110557143Y-82747619D01*
X110461905Y-82890476D01*
X110414286Y-83080952D01*
X110414286Y-83461905D01*
X110461905Y-83557143D01*
X110509524Y-83604762D01*
X110604762Y-83652381D01*
X110795239Y-83652381D01*
X110890477Y-83604762D01*
X110938096Y-83557143D01*
X110985715Y-83461905D01*
X110985715Y-83223810D01*
X110938096Y-83128571D01*
X110890477Y-83080952D01*
X110795239Y-83033333D01*
X110604762Y-83033333D01*
X110509524Y-83080952D01*
X110461905Y-83128571D01*
X110414286Y-83223810D01*
X98833334Y-83552381D02*
X98500000Y-83076190D01*
X98261905Y-83552381D02*
X98261905Y-82552381D01*
X98642858Y-82552381D01*
X98738096Y-82600000D01*
X98785715Y-82647619D01*
X98833334Y-82742857D01*
X98833334Y-82885714D01*
X98785715Y-82980952D01*
X98738096Y-83028571D01*
X98642858Y-83076190D01*
X98261905Y-83076190D01*
X99166667Y-82552381D02*
X99833334Y-82552381D01*
X99404762Y-83552381D01*
X102133334Y-73352381D02*
X101800000Y-72876190D01*
X101561905Y-73352381D02*
X101561905Y-72352381D01*
X101942858Y-72352381D01*
X102038096Y-72400000D01*
X102085715Y-72447619D01*
X102133334Y-72542857D01*
X102133334Y-72685714D01*
X102085715Y-72780952D01*
X102038096Y-72828571D01*
X101942858Y-72876190D01*
X101561905Y-72876190D01*
X102704762Y-72780952D02*
X102609524Y-72733333D01*
X102561905Y-72685714D01*
X102514286Y-72590476D01*
X102514286Y-72542857D01*
X102561905Y-72447619D01*
X102609524Y-72400000D01*
X102704762Y-72352381D01*
X102895239Y-72352381D01*
X102990477Y-72400000D01*
X103038096Y-72447619D01*
X103085715Y-72542857D01*
X103085715Y-72590476D01*
X103038096Y-72685714D01*
X102990477Y-72733333D01*
X102895239Y-72780952D01*
X102704762Y-72780952D01*
X102609524Y-72828571D01*
X102561905Y-72876190D01*
X102514286Y-72971429D01*
X102514286Y-73161905D01*
X102561905Y-73257143D01*
X102609524Y-73304762D01*
X102704762Y-73352381D01*
X102895239Y-73352381D01*
X102990477Y-73304762D01*
X103038096Y-73257143D01*
X103085715Y-73161905D01*
X103085715Y-72971429D01*
X103038096Y-72876190D01*
X102990477Y-72828571D01*
X102895239Y-72780952D01*
X112033334Y-67352381D02*
X111700000Y-66876190D01*
X111461905Y-67352381D02*
X111461905Y-66352381D01*
X111842858Y-66352381D01*
X111938096Y-66400000D01*
X111985715Y-66447619D01*
X112033334Y-66542857D01*
X112033334Y-66685714D01*
X111985715Y-66780952D01*
X111938096Y-66828571D01*
X111842858Y-66876190D01*
X111461905Y-66876190D01*
X112509524Y-67352381D02*
X112700000Y-67352381D01*
X112795239Y-67304762D01*
X112842858Y-67257143D01*
X112938096Y-67114286D01*
X112985715Y-66923810D01*
X112985715Y-66542857D01*
X112938096Y-66447619D01*
X112890477Y-66400000D01*
X112795239Y-66352381D01*
X112604762Y-66352381D01*
X112509524Y-66400000D01*
X112461905Y-66447619D01*
X112414286Y-66542857D01*
X112414286Y-66780952D01*
X112461905Y-66876190D01*
X112509524Y-66923810D01*
X112604762Y-66971429D01*
X112795239Y-66971429D01*
X112890477Y-66923810D01*
X112938096Y-66876190D01*
X112985715Y-66780952D01*
X105857143Y-73202381D02*
X105523809Y-72726190D01*
X105285714Y-73202381D02*
X105285714Y-72202381D01*
X105666667Y-72202381D01*
X105761905Y-72250000D01*
X105809524Y-72297619D01*
X105857143Y-72392857D01*
X105857143Y-72535714D01*
X105809524Y-72630952D01*
X105761905Y-72678571D01*
X105666667Y-72726190D01*
X105285714Y-72726190D01*
X106809524Y-73202381D02*
X106238095Y-73202381D01*
X106523809Y-73202381D02*
X106523809Y-72202381D01*
X106428571Y-72345238D01*
X106333333Y-72440476D01*
X106238095Y-72488095D01*
X107428571Y-72202381D02*
X107523810Y-72202381D01*
X107619048Y-72250000D01*
X107666667Y-72297619D01*
X107714286Y-72392857D01*
X107761905Y-72583333D01*
X107761905Y-72821429D01*
X107714286Y-73011905D01*
X107666667Y-73107143D01*
X107619048Y-73154762D01*
X107523810Y-73202381D01*
X107428571Y-73202381D01*
X107333333Y-73154762D01*
X107285714Y-73107143D01*
X107238095Y-73011905D01*
X107190476Y-72821429D01*
X107190476Y-72583333D01*
X107238095Y-72392857D01*
X107285714Y-72297619D01*
X107333333Y-72250000D01*
X107428571Y-72202381D01*
M02*
